<svg xmlns="http://www.w3.org/2000/svg" width="164.464" height="164.464" viewBox="0 0 123.348 123.348"><defs><clipPath id="a"><path d="M5 4.98h113.367v113.387H5Zm0 0"/></clipPath><clipPath id="b"><path d="M4.98 57H68v61.367H4.98Zm0 0"/></clipPath><clipPath id="c"><path d="M4.98 61H8v5H4.98Zm0 0"/></clipPath><clipPath id="d"><path d="M39 4.98h79.367V85H39Zm0 0"/></clipPath><clipPath id="e"><path d="M44 4.98h4V9h-4Zm0 0"/></clipPath><clipPath id="f"><path d="M4.98 111H11v7.367H4.98Zm0 0"/></clipPath><clipPath id="g"><path d="M4.98 115H6v3.367H4.98Zm0 0"/></clipPath><clipPath id="h"><path d="M4.98 80H11v16H4.98Zm0 0"/></clipPath><clipPath id="i"><path d="M4.98 84H6v4H4.98Zm0 0"/></clipPath><clipPath id="j"><path d="M4.98 49H11v19H4.98Zm0 0"/></clipPath><clipPath id="k"><path d="M4.98 53H5v4h-.02Zm0 0"/></clipPath><clipPath id="l"><path d="M4.98 18H11v21H4.98Zm0 0"/></clipPath><clipPath id="m"><path d="M4.98 21H5v5h-.02Zm0 0"/></clipPath><clipPath id="n"><path d="M4.98 4.98H11V11H4.98Zm0 0"/></clipPath><clipPath id="o"><path d="M23 110h16v8.367H23Zm0 0"/></clipPath><clipPath id="p"><path d="M27 115h5v3.367h-5Zm0 0"/></clipPath><clipPath id="q"><path d="M22 4.98h17V11H22Zm0 0"/></clipPath><clipPath id="r"><path d="M49 110h19v8.367H49Zm0 0"/></clipPath><clipPath id="s"><path d="M53 115h4v3.367h-4Zm0 0"/></clipPath><clipPath id="t"><path d="M48 4.98h20V11H48Zm0 0"/></clipPath><clipPath id="u"><path d="M74 110h22v8.367H74Zm0 0"/></clipPath><clipPath id="v"><path d="M74 4.98h22V11H74Zm0 0"/></clipPath><clipPath id="w"><path d="M100 110h18.367v8.367H100Zm0 0"/></clipPath><clipPath id="x"><path d="M100 79h18.367v17H100Zm0 0"/></clipPath><clipPath id="y"><path d="M100 48h18.367v20H100Zm0 0"/></clipPath><clipPath id="z"><path d="M100 17h18.367v22H100Zm0 0"/></clipPath><clipPath id="A"><path d="M99 4.98h19.367V11H99Zm0 0"/></clipPath><clipPath id="B"><path d="M4.98 4.98h113.387v113.387H4.98Zm0 0"/></clipPath><clipPath id="C"><path d="M4.98 4.98h113.387V83H4.98Zm0 0"/></clipPath><clipPath id="D"><path d="M37 14h81.367v104.367H37Zm0 0"/></clipPath><clipPath id="E"><path d="M4.98 4.98h113.387V59H4.98Zm0 0"/></clipPath><clipPath id="F"><path d="M63 31h55.367v87.367H63Zm0 0"/></clipPath><clipPath id="G"><path d="M4.98 4.98h113.387V39H4.98Zm0 0"/></clipPath><clipPath id="H"><path d="M83 51h35.367v67.367H83Zm0 0"/></clipPath><clipPath id="I"><path d="M4.98 4.98h113.387V23H4.98Zm0 0"/></clipPath><clipPath id="J"><path d="M100 77h18.367v41.367H100Zm0 0"/></clipPath></defs><path d="M4.98 118.367V4.98h113.387v113.387Zm0 0" style="stroke:none;fill-rule:nonzero;fill:#404040;fill-opacity:1"/><g clip-path="url(#a)"><path d="m141.732 34.018-1.086.261-1.086.266-1.09.273-1.085.274-1.09.281-1.086.285-1.09.29-1.086.292-1.09.301-1.086.305-1.09.308-1.086.313-1.09.32-1.085.324-1.09.332-1.086.336-1.09.34-1.086.352-1.09.351-1.086.364-1.09.367-1.086.375-1.09.379-1.085.39-1.09.395-1.086.406-1.09.41-1.086.418-1.09.43-1.086.437-1.09.442-1.085.457-1.09.46-1.086.477-1.09.48-1.086.493-1.086.504-1.09.516-1.086.527-1.09.535-1.085.555-1.09.558-1.086.575-1.09.59-1.086.601-1.09.617-1.086.63-1.09.648-1.086.664-1.09.68-1.085.695-1.09.71-1.086.735-1.09.75-1.086.773-1.09.793-1.086.813-1.09.836-1.086.86-1.09.886-1.085.91-1.09.934-1.086.968-1.09.993-1.086 1.023-1.09 1.055-1.086 1.09-1.09 1.124-1.085 1.16-1.086 1.2-1.09 1.242-1.086 1.281-1.09 1.325-1.086 1.375-1.09 1.425-1.086 1.477-1.09 1.531-1.085 1.59-1.09 1.652-1.086 1.72-1.09 1.788-1.086 1.86-1.09 1.94-1.086 2.024-1.09 2.118-1.086 2.207-1.09 2.312-1.085 2.422-1.09 2.535-1.086 2.664-1.09 2.8-1.086 2.946-1.09 3.106-1.086 3.277-1.09 3.457-1.085 3.664-1.09 3.883-1.086 4.121-.61 2.45" style="fill:none;stroke-width:.3985;stroke-linecap:butt;stroke-linejoin:miter;stroke:#3686c1;stroke-opacity:1;stroke-miterlimit:10" transform="matrix(1 0 0 -1 -23.365 146.713)"/></g><path d="m10.672 5.074-.781 3.48 1.261-1.542 1.84.777M91.207 104.633l2.45 2.59-.575-1.907 1.668-1.09" style="stroke:none;fill-rule:nonzero;fill:#3686c1;fill-opacity:1"/><g clip-path="url(#b)"><path d="m85.04 28.346-.573.191-.57.196-.575.199-.57.199-.575.203-.57.203-.574.211-.57.211-.575.215-.57.219-.574.218-.57.227-.575.227-.57.23-.574.234-.57.239-.575.242-.57.242-.574.25-1.14.508-.575.262-.57.265-.575.27-.57.273-.574.278-.57.28-.575.29-.57.293-.574.297-.57.3-.575.31-.57.312-.574.316-.57.324-.575.328-.57.336-.574.34-.57.348-.575.351-.57.364-.574.367-.57.375-.575.379-.57.39-.574.395-.57.402-.575.414-.57.422-.575.426-.57.441-.574.446-.57.457-.575.465-.57.476-.574.484-.57.497-.575.507-.57.516-.574.535-.57.54-.575.558-.57.57-.574.578-.57.598-.575.61-.57.62-.574.645-.57.656-.575.672-.57.691-.574.711-.57.727-.575.746-.57.766-.574.785-.57.812-.575.836-.57.856-.574.883-.57.91-.575.933-.57.961-.575.996-.57 1.028-.574 1.054-.57 1.094-.575 1.125-.57 1.168-.574 1.203-.57 1.25-.575 1.293-.57 1.336-.574 1.387-.57 1.441-.575 1.492-.57 1.551-.574 1.613.074-.207" style="fill:none;stroke-width:.3985;stroke-linecap:butt;stroke-linejoin:miter;stroke:#3686c1;stroke-opacity:1;stroke-miterlimit:10" transform="matrix(1 0 0 -1 -23.365 146.713)"/></g><g clip-path="url(#c)"><path d="m5.023 61.797-.48 3.531 1.125-1.644 1.894.617" style="stroke:none;fill-rule:nonzero;fill:#3686c1;fill-opacity:1"/></g><path d="m36.16 106.215 1.746 3.11-.097-1.99 1.886-.647" style="stroke:none;fill-rule:nonzero;fill:#3686c1;fill-opacity:1"/><g clip-path="url(#d)"><path d="m141.732 68.033-.742.36-.746.363-.742.367-.746.371-.743.371-.746.383-.742.38-1.492.78-.742.395-.746.398-.742.407-.747.41-.742.414-.746.418-.746.425-.742.426-.746.434-.742.437-.747.446-.742.449-.746.453-.746.461-.742.465-.746.469-.742.476-.746.484-.743.485-.746.496-.746.5-.742.508-.746.511-.742.52-.746.527-.743.532-.746.539-.742.55-.746.551-.746.563-.742.57-.746.574-.743.586-.746.594-.742.598-.746.609-.746.617-.742.625-.746.633-.742.645-.747.652-.742.664-.746.668-.746.683-.742.692-.746.7-.742.71-.747.723-.742.734-.746.746-.742.754-.746.77-.746.777-.742.793-.746.805-.743.816-.746.832-.742.844-.746.855-.746.875-.742.883-.746.902-.743.918-.746.93-.742.95-.746.964-.746.98-.742.997-.746 1.02-.743 1.03-.746 1.055-.742 1.074-.746 1.09-.742 1.114-.746 1.132-.746 1.157-.742 1.175-.747 1.203-.742 1.223-.746 1.246-.742 1.274-.746 1.297-.746 1.324-.742 1.351-.746 1.38-.743 1.41-.746 1.437-.742 1.469-.746 1.5.129-.262" style="fill:none;stroke-width:.3985;stroke-linecap:butt;stroke-linejoin:miter;stroke:#3686c1;stroke-opacity:1;stroke-miterlimit:10" transform="matrix(1 0 0 -1 -23.365 146.713)"/></g><g clip-path="url(#e)"><path d="m44.672 4.992-.04 3.57.915-1.773 1.957.379" style="stroke:none;fill-rule:nonzero;fill:#3686c1;fill-opacity:1"/></g><path d="m93.875 64.469 1.703 3.129-.066-1.989 1.89-.625" style="stroke:none;fill-rule:nonzero;fill:#3686c1;fill-opacity:1"/><g clip-path="url(#f)"><path d="m28.345 28.346-1.425 1.426" style="fill:none;stroke-width:.3985;stroke-linecap:butt;stroke-linejoin:miter;stroke:#bfbfbf;stroke-opacity:1;stroke-miterlimit:10" transform="matrix(1 0 0 -1 -23.365 146.713)"/></g><g clip-path="url(#g)"><path d="m2.148 115.531 1.125 3.383.282-1.973 1.972-.28" style="stroke:none;fill-rule:nonzero;fill:#bfbfbf;fill-opacity:1"/></g><g clip-path="url(#h)"><path d="m28.345 56.693-1.937 3.88" style="fill:none;stroke-width:.3985;stroke-linecap:butt;stroke-linejoin:miter;stroke:#bfbfbf;stroke-opacity:1;stroke-miterlimit:10" transform="matrix(1 0 0 -1 -23.365 146.713)"/></g><g clip-path="url(#i)"><path d="M2.148 84.352v3.578l.895-1.79 1.969.356" style="stroke:none;fill-rule:nonzero;fill:#bfbfbf;fill-opacity:1"/></g><g clip-path="url(#j)"><path d="m28.345 85.041-2.203 6.613" style="fill:none;stroke-width:.3985;stroke-linecap:butt;stroke-linejoin:miter;stroke:#bfbfbf;stroke-opacity:1;stroke-miterlimit:10" transform="matrix(1 0 0 -1 -23.365 146.713)"/></g><g clip-path="url(#k)"><path d="m2.148 53.168-.507 3.531 1.136-1.64 1.891.632" style="stroke:none;fill-rule:nonzero;fill:#bfbfbf;fill-opacity:1"/></g><g clip-path="url(#l)"><path d="m28.345 113.389-2.351 9.406" style="fill:none;stroke-width:.3985;stroke-linecap:butt;stroke-linejoin:miter;stroke:#bfbfbf;stroke-opacity:1;stroke-miterlimit:10" transform="matrix(1 0 0 -1 -23.365 146.713)"/></g><g clip-path="url(#m)"><path d="m2.148 21.988-.773 3.477 1.254-1.547 1.836.773" style="stroke:none;fill-rule:nonzero;fill:#bfbfbf;fill-opacity:1"/></g><g clip-path="url(#n)"><path d="m28.345 141.733-2.44 12.218" style="fill:none;stroke-width:.3985;stroke-linecap:butt;stroke-linejoin:miter;stroke:#bfbfbf;stroke-opacity:1;stroke-miterlimit:10" transform="matrix(1 0 0 -1 -23.365 146.713)"/></g><g clip-path="url(#o)"><path d="m56.693 28.346-3.879 1.941" style="fill:none;stroke-width:.3985;stroke-linecap:butt;stroke-linejoin:miter;stroke:#bfbfbf;stroke-opacity:1;stroke-miterlimit:10" transform="matrix(1 0 0 -1 -23.365 146.713)"/></g><g clip-path="url(#p)"><path d="m27.66 115.531 2.145 2.864-.356-1.97 1.79-.894" style="stroke:none;fill-rule:nonzero;fill:#bfbfbf;fill-opacity:1"/></g><path d="m56.693 56.693-4.262 4.262" style="fill:none;stroke-width:.3985;stroke-linecap:butt;stroke-linejoin:miter;stroke:#bfbfbf;stroke-opacity:1;stroke-miterlimit:10" transform="matrix(1 0 0 -1 -23.365 146.713)"/><path d="m27.66 84.352 1.125 3.378.281-1.972 1.973-.281" style="stroke:none;fill-rule:nonzero;fill:#bfbfbf;fill-opacity:1"/><path d="m56.693 85.041-4.562 6.84" style="fill:none;stroke-width:.3985;stroke-linecap:butt;stroke-linejoin:miter;stroke:#bfbfbf;stroke-opacity:1;stroke-miterlimit:10" transform="matrix(1 0 0 -1 -23.365 146.713)"/><path d="m27.66 53.168.442 3.547.664-1.883 1.996.11" style="stroke:none;fill-rule:nonzero;fill:#bfbfbf;fill-opacity:1"/><path d="m56.693 113.389-4.777 9.554" style="fill:none;stroke-width:.3985;stroke-linecap:butt;stroke-linejoin:miter;stroke:#bfbfbf;stroke-opacity:1;stroke-miterlimit:10" transform="matrix(1 0 0 -1 -23.365 146.713)"/><path d="M27.66 21.988v3.563l.89-1.781 1.962.355" style="stroke:none;fill-rule:nonzero;fill:#bfbfbf;fill-opacity:1"/><g clip-path="url(#q)"><path d="m56.693 141.733-4.926 12.32" style="fill:none;stroke-width:.3985;stroke-linecap:butt;stroke-linejoin:miter;stroke:#bfbfbf;stroke-opacity:1;stroke-miterlimit:10" transform="matrix(1 0 0 -1 -23.365 146.713)"/></g><g clip-path="url(#r)"><path d="m85.04 28.346-6.613 2.207" style="fill:none;stroke-width:.3985;stroke-linecap:butt;stroke-linejoin:miter;stroke:#bfbfbf;stroke-opacity:1;stroke-miterlimit:10" transform="matrix(1 0 0 -1 -23.365 146.713)"/></g><g clip-path="url(#s)"><path d="m53.172 115.531 2.523 2.524-.633-1.895 1.641-1.133" style="stroke:none;fill-rule:nonzero;fill:#bfbfbf;fill-opacity:1"/></g><path d="m85.04 56.693-6.843 4.563" style="fill:none;stroke-width:.3985;stroke-linecap:butt;stroke-linejoin:miter;stroke:#bfbfbf;stroke-opacity:1;stroke-miterlimit:10" transform="matrix(1 0 0 -1 -23.365 146.713)"/><path d="m53.172 84.352 1.773 3.101-.113-1.996 1.887-.664" style="stroke:none;fill-rule:nonzero;fill:#bfbfbf;fill-opacity:1"/><path d="m85.04 85.041-7.097 7.094" style="fill:none;stroke-width:.3985;stroke-linecap:butt;stroke-linejoin:miter;stroke:#bfbfbf;stroke-opacity:1;stroke-miterlimit:10" transform="matrix(1 0 0 -1 -23.365 146.713)"/><path d="m53.172 53.168 1.125 3.383.281-1.973 1.973-.281" style="stroke:none;fill-rule:nonzero;fill:#bfbfbf;fill-opacity:1"/><path d="m85.04 113.389-7.308 9.742" style="fill:none;stroke-width:.3985;stroke-linecap:butt;stroke-linejoin:miter;stroke:#bfbfbf;stroke-opacity:1;stroke-miterlimit:10" transform="matrix(1 0 0 -1 -23.365 146.713)"/><path d="m53.172 21.988.637 3.504.558-1.91h1.992" style="stroke:none;fill-rule:nonzero;fill:#bfbfbf;fill-opacity:1"/><g clip-path="url(#t)"><path d="m85.04 141.733-7.476 12.46" style="fill:none;stroke-width:.3985;stroke-linecap:butt;stroke-linejoin:miter;stroke:#bfbfbf;stroke-opacity:1;stroke-miterlimit:10" transform="matrix(1 0 0 -1 -23.365 146.713)"/></g><g clip-path="url(#u)"><path d="m113.388 28.346-9.406 2.351" style="fill:none;stroke-width:.3985;stroke-linecap:butt;stroke-linejoin:miter;stroke:#bfbfbf;stroke-opacity:1;stroke-miterlimit:10" transform="matrix(1 0 0 -1 -23.365 146.713)"/></g><path d="m78.684 115.531 2.707 2.32-.774-1.835 1.547-1.258" style="stroke:none;fill-rule:nonzero;fill:#bfbfbf;fill-opacity:1"/><path d="m113.388 56.693-9.558 4.778" style="fill:none;stroke-width:.3985;stroke-linecap:butt;stroke-linejoin:miter;stroke:#bfbfbf;stroke-opacity:1;stroke-miterlimit:10" transform="matrix(1 0 0 -1 -23.365 146.713)"/><path d="m78.684 84.352 2.136 2.847-.355-1.957 1.781-.89" style="stroke:none;fill-rule:nonzero;fill:#bfbfbf;fill-opacity:1"/><path d="m113.388 85.041-9.746 7.309" style="fill:none;stroke-width:.3985;stroke-linecap:butt;stroke-linejoin:miter;stroke:#bfbfbf;stroke-opacity:1;stroke-miterlimit:10" transform="matrix(1 0 0 -1 -23.365 146.713)"/><path d="m78.684 53.168 1.593 3.187v-1.992l1.914-.558" style="stroke:none;fill-rule:nonzero;fill:#bfbfbf;fill-opacity:1"/><path d="m113.388 113.389-9.933 9.93" style="fill:none;stroke-width:.3985;stroke-linecap:butt;stroke-linejoin:miter;stroke:#bfbfbf;stroke-opacity:1;stroke-miterlimit:10" transform="matrix(1 0 0 -1 -23.365 146.713)"/><path d="m78.684 21.988 1.125 3.38.28-1.973 1.974-.282" style="stroke:none;fill-rule:nonzero;fill:#bfbfbf;fill-opacity:1"/><g clip-path="url(#v)"><path d="m113.388 141.733-10.09 12.613" style="fill:none;stroke-width:.3985;stroke-linecap:butt;stroke-linejoin:miter;stroke:#bfbfbf;stroke-opacity:1;stroke-miterlimit:10" transform="matrix(1 0 0 -1 -23.365 146.713)"/></g><g clip-path="url(#w)"><path d="m141.732 28.346-12.215 2.445" style="fill:none;stroke-width:.3985;stroke-linecap:butt;stroke-linejoin:miter;stroke:#bfbfbf;stroke-opacity:1;stroke-miterlimit:10" transform="matrix(1 0 0 -1 -23.365 146.713)"/></g><path d="m104.195 115.531 2.817 2.192-.86-1.801 1.489-1.332" style="stroke:none;fill-rule:nonzero;fill:#bfbfbf;fill-opacity:1"/><g clip-path="url(#x)"><path d="m141.732 56.693-12.316 4.926" style="fill:none;stroke-width:.3985;stroke-linecap:butt;stroke-linejoin:miter;stroke:#bfbfbf;stroke-opacity:1;stroke-miterlimit:10" transform="matrix(1 0 0 -1 -23.365 146.713)"/></g><path d="m104.195 84.352 2.375 2.671-.52-1.93 1.708-1.042" style="stroke:none;fill-rule:nonzero;fill:#bfbfbf;fill-opacity:1"/><g clip-path="url(#y)"><path d="m141.732 85.041-12.457 7.473" style="fill:none;stroke-width:.3985;stroke-linecap:butt;stroke-linejoin:miter;stroke:#bfbfbf;stroke-opacity:1;stroke-miterlimit:10" transform="matrix(1 0 0 -1 -23.365 146.713)"/></g><path d="m104.195 53.168 1.922 3.02-.207-1.989 1.856-.758" style="stroke:none;fill-rule:nonzero;fill:#bfbfbf;fill-opacity:1"/><g clip-path="url(#z)"><path d="m141.732 113.389-12.61 10.086" style="fill:none;stroke-width:.3985;stroke-linecap:butt;stroke-linejoin:miter;stroke:#bfbfbf;stroke-opacity:1;stroke-miterlimit:10" transform="matrix(1 0 0 -1 -23.365 146.713)"/></g><path d="m104.195 21.988 1.5 3.25.063-2 1.937-.5" style="stroke:none;fill-rule:nonzero;fill:#bfbfbf;fill-opacity:1"/><g clip-path="url(#A)"><path d="m141.732 141.733-12.762 12.765" style="fill:none;stroke-width:.3985;stroke-linecap:butt;stroke-linejoin:miter;stroke:#bfbfbf;stroke-opacity:1;stroke-miterlimit:10" transform="matrix(1 0 0 -1 -23.365 146.713)"/></g><g clip-path="url(#B)"><path d="m28.345 28.346 1.145 1.144 1.148 1.145 1.145 1.144 1.145 1.149 8.011 8.012 1.149 1.144 1.144 1.149 9.156 9.156 1.149 1.144 1.144 1.145 1.145 1.148 8.012 8.012 1.148 1.145 1.145 1.144 1.144 1.148 6.867 6.868 1.149 1.144 1.144 1.145 1.145 1.148 8.012 8.012 1.148 1.144 1.145 1.149 9.156 9.156 1.148 1.145 1.145 1.148 9.156 9.156 1.148 1.145 1.145 1.148 9.156 9.157 1.149 1.144 1.144 1.145 1.145 1.148 8.011 8.012 1.149 1.144 1.144 1.149 8.012 8.011" style="fill:none;stroke-width:.3985;stroke-linecap:butt;stroke-linejoin:miter;stroke:#ff9d00;stroke-opacity:1;stroke-dasharray:2.98883,2.98883;stroke-miterlimit:10" transform="matrix(1 0 0 -1 -23.365 146.713)"/><path d="M2.834 2.834 5.638 5.64 7.045 7.04l1.402 1.402L9.849 9.85l9.817 9.816 1.406 1.402 1.402 1.403 1.403 1.406 11.218 11.219 1.407 1.402 1.402 1.403 1.402 1.406 9.817 9.816 1.406 1.403 1.402 1.406 11.22 11.218 1.405 1.403 1.403 1.406 12.62 12.621 1.407 1.403 1.402 1.406 11.22 11.219 1.405 1.402 1.403 1.406 11.219 11.219 1.406 1.402 1.402 1.403 1.402 1.406 11.22 11.219 1.405 1.402 1.403 1.406 11.219 11.219 1.406 1.402 1.402 1.403 1.403 1.406 1.402 1.402" style="fill:none;stroke-width:.3985;stroke-linecap:butt;stroke-linejoin:miter;stroke:#ff9d00;stroke-opacity:1;stroke-dasharray:2.98883,2.98883;stroke-miterlimit:10" transform="matrix(1 0 0 -1 -23.365 146.713)"/></g><g clip-path="url(#C)"><path d="m28.345 69.436 1.145.472 1.148.492 1.145.508 1.145.52 1.144.535 1.145.547 1.144.562 1.145.578 1.144.59 1.145.602 1.144.617 1.149.625 1.144.64 1.145.65 1.144.663 1.145.672 1.144.688 1.145.691 1.144.707 1.145.715 1.144.723 1.149.734 1.144.746 1.145.75 1.144.762 1.145.77 1.145.777 1.144.785 1.145.797 1.144.8 1.145.809 1.148.816 1.145.82 1.144.833 1.145.836 1.144.843 1.145.848 1.144.856 1.145.863 1.144.867 1.149.871 1.144.879 2.29 1.773 1.144.895 1.144.898 1.145.907 2.289 1.82 1.145.918 1.148.926 1.145.926 1.144.93 1.145.933 1.144.937 2.29 1.89 1.144.95 1.144.953 1.145.957 1.148.961 2.29 1.93 1.144.969 1.144.976 1.145.973 2.289 1.96 1.144.985 1.145.988 1.148.989 1.145.996 1.144.992 3.434 3 1.145 1.004 1.144 1.008 1.145 1.011 1.144 1.008 1.149 1.016 2.289 2.031 1.144 1.02 1.145 1.023 1.144 1.02 3.434 3.082 1.144 1.031 1.149 1.031 3.433 3.106 2.29 2.078 3.433 3.129" style="fill:none;stroke-width:.3985;stroke-linecap:butt;stroke-linejoin:miter;stroke:#ff9d00;stroke-opacity:1;stroke-dasharray:2.98883,2.98883;stroke-miterlimit:10" transform="matrix(1 0 0 -1 -23.365 146.713)"/></g><g clip-path="url(#D)"><path d="m66.22 19.166.762 2.488.762 2.254.762 2.082.765 1.95.762 1.84.762 1.753.761 1.676.766 1.613.762 1.555.761 1.512.762 1.465.762 1.425.766 1.395.761 1.36.762 1.331.762 1.309.765 1.285.762 1.262.762 1.242.761 1.223.762 1.203.766 1.191.762 1.172.761 1.16.762 1.145.762 1.136.765 1.122.762 1.109.762 1.102.761 1.09.766 1.077.762 1.07.762 1.067.761 1.055.762 1.043.766 1.043.761 1.031.762 1.023.762 1.02.761 1.012.766 1.008.762 1 .762.996.761.992.766.984.762.98 1.523 1.946.762.965.765.96.762.962.762.953.762.95.765.944.762.946 1.523 1.875.762.933.766.93.761.926 1.524 1.843.762.918.765.915.762.914.762.91.761.906.766.906.762.903 2.285 2.695.765.89.762.895.762.887.762.89.765.887 1.524 1.766 1.523 1.758.766.875.761.878 2.286 2.614.765.87 1.524 1.735.761.863.766.864.762.86.761.862.762.86.762.855.766.86.761.855.762.852.762.855" style="fill:none;stroke-width:.3985;stroke-linecap:butt;stroke-linejoin:miter;stroke:#ff9d00;stroke-opacity:1;stroke-dasharray:2.98883,2.98883;stroke-miterlimit:10" transform="matrix(1 0 0 -1 -23.365 146.713)"/></g><g clip-path="url(#E)"><path d="m28.345 94.014 1.145.351 1.148.368 1.145.375 1.145.386 1.144.403 1.145.414 1.144.425 1.145.434 1.144.45 1.145.456 1.144.473 1.149.48 1.144.493 1.145.5 1.144.515 1.145.524 1.144.53 1.145.548 1.144.55 1.145.567 1.144.57 1.149.582 1.144.594 1.145.602 1.144.609 1.145.617 1.145.63 1.144.632 1.145.644 1.144.653 1.145.66 1.148.668 1.145.676 1.144.683 1.145.692 1.144.699 1.145.703 1.144.715 1.145.719 1.144.726 1.149.735 1.144.738 1.145.746 1.144.754 1.145.758 1.144.765 1.145.77 1.144.777 1.145.781 1.145.79 1.148.792 1.145.797 1.144.805 1.145.809 1.144.816 1.145.82 1.144.825 1.145.828 1.144.832 1.145.84 1.148.843 1.145.848 1.144.851 2.29 1.72 1.144.863 2.289 1.742 2.289 1.758 1.148.886 1.145.887 1.144.89 2.29 1.797 1.144.903 2.29 1.812 2.288 1.828 1.149.918 1.144.922 1.145.926 2.289 1.86 2.289 1.867 2.289 1.882 1.144.946 1.149.945 1.144.95 1.145.952 1.144.957 1.145.954 2.29 1.921 1.144.965 1.144.969" style="fill:none;stroke-width:.3985;stroke-linecap:butt;stroke-linejoin:miter;stroke:#ff9d00;stroke-opacity:1;stroke-dasharray:2.98883,2.98883;stroke-miterlimit:10" transform="matrix(1 0 0 -1 -23.365 146.713)"/></g><g clip-path="url(#F)"><path d="m92.474 22.72.5 1.946.496 1.817.497 1.703.5 1.617.496 1.543.496 1.472.5 1.422.496 1.371.496 1.325.5 1.285.496 1.254.496 1.218.5 1.188.496 1.164.496 1.137.5 1.113.496 1.09.496 1.074.5 1.055.497 1.035.496 1.02.5 1.007.496.989.496.976.5.965.496.95.496.94.5.93.496.918.496.907.5.898.496.89.496.88.5.87.497.868.496.855.5.848.496.844.496.832.5.828.496.824.496.813.5.812.496.8.5.802.496.793.496.785.5.785.496.777.496.774.5.77.993 1.523.5.753.992 1.5.5.743.496.742.496.734.5.735.992 1.453.5.722.496.723.496.715.5.715.496.707.497.71.5.704.496.703.496.7.5.694.496.696.496.691.5.688.496.687.496.684.5.683.496.68.496.676.5.676.993 1.343.5.672.496.664.496.668.5.66.496.665.496.66.5.656.496.656.496.653.5.656.992 1.297.5.648.496.645.496.648.5.64" style="fill:none;stroke-width:.3985;stroke-linecap:butt;stroke-linejoin:miter;stroke:#ff9d00;stroke-opacity:1;stroke-dasharray:2.98883,2.98883;stroke-miterlimit:10" transform="matrix(1 0 0 -1 -23.365 146.713)"/></g><g clip-path="url(#G)"><path d="m28.345 113.389 1.145.289 1.148.305 1.145.312 1.145.324 1.144.332 1.145.344 1.144.355 1.145.368 1.144.375 1.145.382 1.144.395 1.149.406 1.144.414 1.145.426 1.144.434 1.145.441 1.144.453 1.145.461 1.144.473 1.145.48 1.144.489 1.149.496 1.144.507 1.145.516 1.144.524 1.145.53 1.145.54 1.144.547 1.145.554 1.144.567 1.145.57 1.148.578 1.145.59 1.144.594 1.145.601 1.144.61 1.145.617 1.144.621 1.145.633 1.144.637 1.149.644 1.144.649 1.145.66 1.144.664 1.145.668 1.144.676 1.145.683 1.144.692 1.145.695 1.145.7 1.148.706 1.145.711 1.144.719 2.29 1.453 2.288 1.476 1.145.747 1.144.75 1.145.754 1.148.761 1.145.766 2.289 1.547 1.144.781 1.145.785 1.144.79 1.145.792 1.144.797 1.145.805 1.148.804 1.145.813 2.289 1.633 1.145.824 1.144.828 1.145.832 1.144.836 2.29 1.68 1.148.847 1.144.848 2.29 1.711 2.288 1.727 1.145.867 2.289 1.742 1.144.879 1.149.879 1.144.883 1.145.886 2.289 1.781 1.145.895 1.144.898 2.29 1.805" style="fill:none;stroke-width:.3985;stroke-linecap:butt;stroke-linejoin:miter;stroke:#ff9d00;stroke-opacity:1;stroke-dasharray:2.98883,2.98883;stroke-miterlimit:10" transform="matrix(1 0 0 -1 -23.365 146.713)"/></g><g clip-path="url(#H)"><path d="m112.623 25.111.293 1.286.293 1.226.293 1.184.293 1.133.297 1.097.293 1.067.292 1.027.293 1.004.293.976.297.954.293.93.293.91.293.89.293.871.293.86.297.84.293.824.293.812.293.8.293.786.297.773.293.766.293.75.293.746.293.73.297.727.292.715.293.707.293.7.293.69.293.684.297.676.293.668.293.664.293.656.293.649.297.648.293.637.293.633.293.629.293.62.293.618.297.613.293.61.293.601.293.598.293.594.59 1.18.292.581.293.578.293.575.297.57.293.566.586 1.125.586 1.11.297.55.293.547.586 1.086.293.54.297.535.293.535.879 1.582.293.52.296.523.586 1.03.586 1.024.297.508.293.508.293.504.586 1 .297.5.293.496.586.984.586.977.297.488.586.969.293.48.293.477.296.48.293.477.88 1.418.296.469.293.468.586.93" style="fill:none;stroke-width:.3985;stroke-linecap:butt;stroke-linejoin:miter;stroke:#ff9d00;stroke-opacity:1;stroke-dasharray:2.98883,2.98883;stroke-miterlimit:10" transform="matrix(1 0 0 -1 -23.365 146.713)"/></g><g clip-path="url(#I)"><path d="m28.345 129.9 1.145.254 1.148.266 1.145.273 1.145.286 1.144.289 1.145.304 1.144.309 1.145.32 1.144.332 1.145.336 1.144.348 1.149.355 1.144.368 1.145.375 1.144.382 1.145.391 1.144.398 1.145.41 1.144.415 1.145.425 1.144.434 1.149.441 1.144.45 1.145.457 1.144.465 1.145.472 1.145.485 1.144.488 1.145.496 1.144.504 1.145.512 1.148.515 1.145.528 1.144.53 1.145.544 1.144.547 1.145.554 1.144.559 1.145.57 1.144.574 1.149.582 1.144.586 1.145.594 1.144.602 1.145.61 1.144.612 1.145.618 1.144.625 1.145.632 1.145.637 1.148.645 1.145.648 1.144.656 1.145.66 1.144.668 1.145.672 1.144.676 1.145.684 1.144.687 1.145.695 1.148.7 1.145.703 1.144.707 1.145.715 1.144.718 1.145.723 1.144.727 1.145.734 1.144.738 1.145.743 1.148.746 1.145.75 2.289 1.515 1.145.766 2.289 1.539 1.144.777 1.145.782 1.144.785 1.149.789 1.144.793 1.145.797 1.144.8 1.145.805 2.289 1.617 1.144.817 2.29 1.64 1.148.825 2.289 1.664 1.144.835 2.29 1.68 2.289 1.695 1.144.852" style="fill:none;stroke-width:.3985;stroke-linecap:butt;stroke-linejoin:miter;stroke:#ff9d00;stroke-opacity:1;stroke-dasharray:2.98883,2.98883;stroke-miterlimit:10" transform="matrix(1 0 0 -1 -23.365 146.713)"/></g><g clip-path="url(#J)"><path d="m129.607 26.96.121.581.121.57.125.563.121.547.122.543.125.531.12.52.122.515.125.508.12.496.122.492.125.485.121.48.121.473.125.465.121.46.121.454.125.453.243.883.125.433.12.43.122.426.125.422.12.418.122.414.125.41.242.804.125.399.242.789.125.387.121.386.121.38.125.378.122.38.12.37.126.371.242.735.125.359.242.719.125.355.242.703.125.348.242.688.125.343.121.34.122.336.125.336.12.336.122.328.125.332.12.328.122.324.125.325.121.324.121.32.125.32.242.633.125.317.121.312.121.309.126.312.12.309.126.305.12.308.122.305.125.3.242.602.125.297.121.3.121.294.125.297.242.586.125.293.243.578.125.285.12.289.122.285.125.285.12.282.122.285.125.28.121.278.121.282.125.277.242.555.125.273.121.273" style="fill:none;stroke-width:.3985;stroke-linecap:butt;stroke-linejoin:miter;stroke:#ff9d00;stroke-opacity:1;stroke-dasharray:2.98883,2.98883;stroke-miterlimit:10" transform="matrix(1 0 0 -1 -23.365 146.713)"/></g><path d="m55.037 87.525 2.484 1.66 1.66-2.488M82.552 58.35l1.66 2.488 2.485-1.656" style="fill:none;stroke-width:.3985;stroke-linecap:butt;stroke-linejoin:miter;stroke:#bfbfbf;stroke-opacity:1;stroke-miterlimit:10" transform="matrix(1 0 0 -1 -23.365 146.713)"/></svg>