<svg xmlns="http://www.w3.org/2000/svg" xmlns:xlink="http://www.w3.org/1999/xlink" width="192.811" height="183.363" viewBox="0 0 144.608 137.522"><defs><symbol id="a" overflow="visible"><path d="M3.953-2.438H.843c-.124 0-.25.047-.25.188 0 .14.126.172.25.172h3.11v3.11c0 .109.031.25.172.25.14 0 .188-.141.188-.25v-3.11H7.39c.109 0 .265-.016.265-.172 0-.156-.156-.188-.265-.188H4.312V-5.53c0-.11-.03-.25-.187-.25-.156 0-.172.14-.172.25Zm0 0" style="stroke:none"/></symbol><symbol id="l" overflow="visible"><path d="M.11-2.453v.906h2.828v-.906Zm0 0" style="stroke:none"/></symbol><symbol id="b" overflow="visible"><path d="M4.14-3.656c.032-.125.032-.14.032-.188a.117.117 0 0 0-.11-.125c-.093 0-.437.313-.609.625-.14-.328-.422-.625-.875-.625-1.047 0-2.203 1.25-2.203 2.61C.375-.375 1 .094 1.609.094c.375 0 .735-.188 1.063-.5L2.328.969c-.11.453-.125.484-.687.5-.11 0-.22 0-.22.156 0 .016 0 .11.126.11.203 0 .719-.016.906-.016h.469c.11.015.36.015.469.015.046 0 .171 0 .171-.156 0-.11-.093-.11-.25-.11-.421 0-.421-.062-.421-.155 0 0 0-.063.046-.188ZM2.845-1.094c-.047.172-.047.172-.188.344-.328.39-.687.625-1.031.625-.438 0-.578-.453-.578-.844 0-.437.25-1.469.469-1.906.28-.531.703-.86 1.062-.86.594 0 .735.72.735.782a.368.368 0 0 1-.032.125Zm0 0" style="stroke:none"/></symbol><symbol id="h" overflow="visible"><path d="M3.36-3.594h.796c.188 0 .282 0 .282-.156 0-.11-.094-.11-.266-.11h-.766c.094-.546.219-1.28.344-1.765.078-.344.297-.469.469-.469.062 0 .265.016.422.125-.188.032-.438.188-.438.485 0 .234.172.328.328.328.25 0 .5-.203.5-.532 0-.406-.39-.64-.812-.64-.407 0-.813.297-1 .656-.203.39-.266.734-.453 1.813h-.641c-.172 0-.281 0-.281.156 0 .11.11.11.265.11h.61C2.469-2.282 2.156-.5 1.953.436c-.11.5-.25 1.172-.672 1.172-.14 0-.328-.046-.406-.125.219-.03.438-.218.438-.484 0-.234-.172-.328-.329-.328a.51.51 0 0 0-.5.531c0 .422.407.64.797.64.907 0 1.328-1.5 1.469-2.265Zm0 0" style="stroke:none"/></symbol><symbol id="j" overflow="visible"><path d="M4.375-2.922c.047-.234.156-.64.156-.687 0-.11-.078-.25-.281-.25a.402.402 0 0 0-.328.187c-.031.078-.64 2.516-.703 2.813-.188.328-.547.734-1.047.734-.547 0-.547-.563-.547-.734 0-.407.11-.844.5-1.844.078-.219.125-.344.125-.5a.739.739 0 0 0-.766-.766c-.859 0-1.218 1.281-1.218 1.39 0 .079.062.11.125.11.093 0 .109-.062.14-.172.188-.656.531-1.093.922-1.093.188 0 .219.125.219.296 0 .141-.047.313-.125.516-.422 1.125-.531 1.5-.531 1.922 0 1 .812 1.094 1.14 1.094.5 0 .875-.313 1.094-.594.172.594.766.594.813.594.265 0 .484-.125.671-.469.157-.297.297-.875.297-.906 0-.047-.031-.11-.11-.11-.109 0-.124.047-.155.22-.188.702-.375 1.046-.672 1.046-.219 0-.282-.188-.282-.406 0-.172.047-.36.126-.672l.218-.922Zm0 0" style="stroke:none"/></symbol><symbol id="d" overflow="visible"><path d="M.313-.281v.265L.859-.03h1.36v-.25c-.25 0-.64-.125-.64-.453 0-.125.046-.235.093-.344.156-.422.281-.984.437-.984H4.25c.156 0 .266.5.36.75.077.234.265.593.265.75 0 .28-.5.28-.734.28v.266h2.453V-.28h-.25c-.203 0-.422-.031-.516-.125-.125-.125-.156-.297-.219-.438-.64-1.734-1.234-3.484-1.875-5.218l-.078-.188c-.031-.094-.062-.188-.219-.188-.187 0-.218.22-.265.36C2.625-4.547 2.078-3 1.516-1.484l-.157.453c-.187.562-.562.75-1.046.75Zm1.812-2.063L3.188-5.28 4.25-2.344Zm0 0" style="stroke:none"/></symbol><symbol id="e" overflow="visible"><path d="M.375-6.14v.28h.328c.313 0 .578.048.578.391v4.782c0 .39-.328.406-.656.406h-.25v.265h3.39c.485 0 .907-.046 1.344-.265.5-.266.907-.781.907-1.375 0-.953-.97-1.438-1.782-1.547.157-.047.329-.094.47-.14.53-.22 1.046-.657 1.046-1.298 0-.578-.469-1.046-.969-1.265-.437-.203-.906-.235-1.375-.235Zm1.656 3.062H3.25c.14 0 .281-.016.422-.016.89 0 1.453.656 1.453 1.422 0 .875-.734 1.39-1.578 1.39H2.375c-.234 0-.344-.109-.344-.343Zm0-.235V-5.53c0-.235.11-.328.344-.328h1.156c.625 0 1.36.28 1.36 1.25 0 .812-.782 1.312-1.5 1.312-.11 0-.22-.015-.329-.015Zm0 0" style="stroke:none"/></symbol><symbol id="f" overflow="visible"><path d="M6.047-2.047c.172 0 .344 0 .344-.203 0-.188-.188-.188-.344-.188H1.109c-.156 0-.343 0-.343.188 0 .203.171.203.343.203Zm0 0" style="stroke:none"/></symbol><symbol id="g" overflow="visible"><path d="M7.625-2.047c-1.063.75-1.281 1.938-1.281 2.031 0 .125.125.125.187.125.11 0 .172 0 .203-.125.25-1.046.86-1.75 1.844-2.109.047-.016.125-.047.125-.125s-.062-.094-.125-.125c-1.125-.422-1.64-1.219-1.844-2.094-.03-.125-.062-.125-.203-.125-.078 0-.187 0-.187.125 0 .094.218 1.282 1.281 2.032H.844c-.156 0-.328 0-.328.187 0 .203.171.203.328.203Zm0 0" style="stroke:none"/></symbol><symbol id="k" overflow="visible"><path d="M1.703-1.797c.016-.016.156-.297.39-.484a.85.85 0 0 1 .516-.156c.047 0 .25 0 .407.078-.157.062-.25.203-.25.328 0 .187.156.234.234.234.172 0 .344-.14.344-.375 0-.312-.344-.469-.719-.469-.156 0-.531.016-.89.438-.094-.313-.407-.438-.657-.438-.266 0-.406.172-.484.313-.14.234-.235.562-.235.61 0 .062.063.077.11.077.094 0 .11-.03.14-.125.11-.468.25-.671.454-.671.187 0 .218.171.218.296 0 .094-.062.344-.11.5-.046.172-.093.407-.124.547C1-.954.969-.797.922-.64c-.047.172-.11.47-.11.5 0 .141.094.203.204.203A.286.286 0 0 0 1.28-.14c.016-.047.25-.953.282-1.093Zm0 0" style="stroke:none"/></symbol><symbol id="m" overflow="visible"><path d="M1.875-2.813A.49.49 0 0 0 1.938-3c0-.188-.172-.344-.375-.344-.235 0-.313.203-.329.297L.391-.484c0 .03-.032.078-.032.093 0 .11.25.157.25.157.063 0 .079-.047.11-.094Zm0 0" style="stroke:none"/></symbol><clipPath id="c"><path d="M20 4.98h111V120H20Zm0 0"/></clipPath><clipPath id="i"><path d="M97 47h42.629v26H97Zm0 0"/></clipPath></defs><path d="M17.512 75.848a5.441 5.441 0 0 0-5.446-5.442 5.444 5.444 0 1 0 5.445 5.441Zm0 0" style="stroke:none;fill-rule:nonzero;fill:#000;fill-opacity:1"/><use xlink:href="#a" x="7.943" y="78.108" style="fill:#fff;fill-opacity:1"/><use xlink:href="#b" x="9.848" y="63.608" style="fill:#fff;fill-opacity:1"/><g clip-path="url(#c)"><path d="M112.74-28.996C85.042-56.695 74.41-14.172 85.042 0c85.04 113.387-65.199 56.692-70.687 29.246" style="fill:none;stroke-width:.3985;stroke-linecap:butt;stroke-linejoin:miter;stroke:gray;stroke-opacity:1;stroke-miterlimit:10" transform="matrix(1 0 0 -1 12.068 75.848)"/></g><path d="M.716.001A2.153 2.153 0 1 1-3.59 0 2.153 2.153 0 0 1 .716.001Zm0 0" style="fill-rule:nonzero;fill:gray;fill-opacity:1;stroke-width:.3985;stroke-linecap:butt;stroke-linejoin:miter;stroke:gray;stroke-opacity:1;stroke-miterlimit:10" transform="scale(1 -1) rotate(44.999 188.962 98.237)"/><path d="M.716 0a2.15 2.15 0 0 1-2.151 2.15A2.15 2.15 0 0 1-3.585 0a2.15 2.15 0 0 1 2.151-2.151A2.15 2.15 0 0 1 .716 0Zm0 0" style="fill-rule:nonzero;fill:gray;fill-opacity:1;stroke-width:.3985;stroke-linecap:butt;stroke-linejoin:miter;stroke:gray;stroke-opacity:1;stroke-miterlimit:10" transform="matrix(-.19646 .98242 .98242 .19646 26.421 46.6)"/><path d="m100.691 111 1.446 3.273.097-1.996 1.946-.468" style="stroke:none;fill-rule:nonzero;fill:gray;fill-opacity:1"/><use xlink:href="#d" x="130.281" y="107.282" style="fill:gray;fill-opacity:1"/><use xlink:href="#e" x="14.889" y="50.589" style="fill:gray;fill-opacity:1"/><path d="M96.377 14.172 51.94 7.637" style="fill:none;stroke-width:1.59404;stroke-linecap:round;stroke-linejoin:miter;stroke:#3686c1;stroke-opacity:1;stroke-miterlimit:10" transform="matrix(1 0 0 -1 12.068 75.848)"/><path d="m60.258 68.762 6.437 2.117-2.687-2.668 1.808-3.332" style="stroke:none;fill-rule:nonzero;fill:#3686c1;fill-opacity:1"/><use xlink:href="#f" x="55.649" y="58.799" style="fill:#3686c1;fill-opacity:1"/><use xlink:href="#g" x="55.653" y="58.799" style="fill:#3686c1;fill-opacity:1"/><use xlink:href="#h" x="57.533" y="65.025" style="fill:#3686c1;fill-opacity:1"/><g clip-path="url(#i)"><path d="m96.377 14.172 21.532 3.168" style="fill:none;stroke-width:.79701;stroke-linecap:butt;stroke-linejoin:miter;stroke:#000;stroke-opacity:1;stroke-miterlimit:10" transform="matrix(1 0 0 -1 12.068 75.848)"/></g><path d="m132.543 58.133-4.406-1.45 1.84 1.825-1.239 2.277" style="stroke:none;fill-rule:nonzero;fill:#000;fill-opacity:1"/><use xlink:href="#f" x="127.81" y="51.282" style="fill:#000;fill-opacity:1"/><use xlink:href="#g" x="128.056" y="51.282" style="fill:#000;fill-opacity:1"/><use xlink:href="#j" x="127.81" y="55.143" style="fill:#000;fill-opacity:1"/><use xlink:href="#k" x="133.113" y="56.139" style="fill:#000;fill-opacity:1"/><path d="M113.43 61.676a4.983 4.983 0 1 0-9.966-.003 4.983 4.983 0 0 0 9.966.003Zm0 0" style="stroke:none;fill-rule:nonzero;fill:#000;fill-opacity:1"/><use xlink:href="#l" x="106.678" y="63.667" style="fill:#fff;fill-opacity:1"/><use xlink:href="#b" x="104.884" y="49.435" style="fill:#fff;fill-opacity:1"/><use xlink:href="#m" x="109.323" y="45.626" style="fill:#fff;fill-opacity:1"/></svg>