<svg xmlns="http://www.w3.org/2000/svg" xmlns:xlink="http://www.w3.org/1999/xlink" width="185.813" height="169.1pt" viewBox="0 0 139.36 169.1"><defs><clipPath id="c"><path d="M6 112h65v57.102H6Zm0 0"/></clipPath><clipPath id="d"><path d="M67 112h65v57.102H67Zm0 0"/></clipPath><symbol id="a" overflow="visible"><path d="M4.594-1.656c0-.516-.188-.907-.39-1.172-.391-.5-.798-.594-1.376-.735l-.797-.187c-.719-.172-.953-.75-.953-1.14 0-.61.484-1.188 1.25-1.188 1.156 0 1.625.875 1.75 1.766.016.171.031.218.14.218.126 0 .126-.062.126-.25v-1.734c0-.172 0-.25-.11-.25-.062 0-.078.016-.14.125-.11.156-.016.047-.313.516-.156-.188-.625-.641-1.469-.641-1.046 0-1.796.828-1.796 1.734 0 .703.421 1.125.468 1.172.391.406.563.438 1.625.703.735.156.813.188 1.11.485 0 0 .312.343.312.875 0 .609-.437 1.28-1.265 1.28-.688 0-1.938-.296-2-1.765C.75-1.984.75-2.03.64-2.03c-.125 0-.125.062-.125.25v1.734c0 .172 0 .25.109.25C.688.203.688.187.75.078c.125-.156.031-.047.328-.515.547.546 1.266.64 1.703.64 1.094 0 1.813-.906 1.813-1.86Zm0 0" style="stroke:none"/></symbol><symbol id="b" overflow="visible"><path d="M6.563-5.844v-.281c-.485.016-.61.031-1.047.031-.438 0-.563-.015-1.063-.031v.281c.922 0 .922.422.922.672v3.828L2.109-6.016c-.062-.109-.093-.109-.265-.109h-1.5v.281h.25c.422 0 .656.063.656.063v4.828c0 .25 0 .672-.906.672V0c.484-.016.61-.031 1.062-.031.422 0 .563.015 1.047.031v-.281c-.922 0-.922-.422-.922-.672v-4.625L5.344-.11C5.422 0 5.469 0 5.5 0c.156 0 .156-.078.156-.234v-4.938c0-.25 0-.672.907-.672Zm0 0" style="stroke:none"/></symbol></defs><path d="M0 .002v45.351h113.386V.002Zm0 0" style="fill:none;stroke-width:.3985;stroke-linecap:butt;stroke-linejoin:miter;stroke:#000;stroke-opacity:1;stroke-miterlimit:10" transform="matrix(1 0 0 -1 12.094 50.533)"/><path d="M9.445 9.857C6.953 7.763 5.781 5.713 6.824 5.28c1.047-.433 3.914.91 6.406 3.008 2.492 2.094 3.668 4.14 2.621 4.574-.793.332-2.691-.371-4.746-1.754" style="fill:none;stroke-width:.3985;stroke-linecap:butt;stroke-linejoin:miter;stroke:#000;stroke-opacity:1;stroke-miterlimit:10" transform="matrix(1 0 0 -1 12.094 50.533)"/><path d="m11.34 9.072-2.036 2.7" style="fill:none;stroke-width:.79701;stroke-linecap:butt;stroke-linejoin:miter;stroke:#000;stroke-opacity:1;stroke-miterlimit:10" transform="matrix(1 0 0 -1 12.094 50.533)"/><path d="m19.836 36.688.84 4.566.722-2.492 2.594-.008" style="stroke:none;fill-rule:nonzero;fill:#000;fill-opacity:1"/><path d="M10.652 20.748c2.223-2.38 4.332-3.445 4.711-2.38.375 1.067-1.117 3.86-3.34 6.24-2.219 2.378-4.328 3.445-4.707 2.378-.289-.812.512-2.668 2.004-4.648" style="fill:none;stroke-width:.3985;stroke-linecap:butt;stroke-linejoin:miter;stroke:#000;stroke-opacity:1;stroke-miterlimit:10" transform="matrix(1 0 0 -1 12.094 50.533)"/><path d="M11.34 22.678 8.754 20.51" style="fill:none;stroke-width:.79701;stroke-linecap:butt;stroke-linejoin:miter;stroke:#000;stroke-opacity:1;stroke-miterlimit:10" transform="matrix(1 0 0 -1 12.094 50.533)"/><path d="m18.855 31.7 4.528-1.083-2.535-.594-.145-2.597" style="stroke:none;fill-rule:nonzero;fill:#000;fill-opacity:1"/><path d="M9.695 37.506c-2.926-1.43-4.562-3.133-3.652-3.809.906-.672 4.015-.062 6.941 1.367 2.926 1.43 4.559 3.133 3.652 3.805-.69.516-2.703.293-5.03-.555" style="fill:none;stroke-width:.3985;stroke-linecap:butt;stroke-linejoin:miter;stroke:#000;stroke-opacity:1;stroke-miterlimit:10" transform="matrix(1 0 0 -1 12.094 50.533)"/><path d="M11.34 36.283 10.015 39.4" style="fill:none;stroke-width:.79701;stroke-linecap:butt;stroke-linejoin:miter;stroke:#000;stroke-opacity:1;stroke-miterlimit:10" transform="matrix(1 0 0 -1 12.094 50.533)"/><path d="m21.098 8.746-.29 4.633 1.301-2.246 2.52.625" style="stroke:none;fill-rule:nonzero;fill:#000;fill-opacity:1"/><path d="M22.304 11.084c-3.113.953-5.468.82-5.265-.293.207-1.113 2.894-2.785 6.012-3.735 3.113-.949 5.468-.82 5.265.293-.156.848-1.777 2.059-4.058 3.028" style="fill:none;stroke-width:.3985;stroke-linecap:butt;stroke-linejoin:miter;stroke:#000;stroke-opacity:1;stroke-miterlimit:10" transform="matrix(1 0 0 -1 12.094 50.533)"/><path d="m22.68 9.072 1.156 3.18" style="fill:none;stroke-width:.79701;stroke-linecap:butt;stroke-linejoin:miter;stroke:#000;stroke-opacity:1;stroke-miterlimit:10" transform="matrix(1 0 0 -1 12.094 50.533)"/><path d="m36.816 35.844-3.37 3.191 2.484-.754 1.418 2.172" style="stroke:none;fill-rule:nonzero;fill:#000;fill-opacity:1"/><path d="M21.433 24.303c-3.207-.567-5.25-1.754-4.562-2.653.691-.898 3.848-1.164 7.05-.597 3.208.566 5.25 1.753 4.563 2.652-.523.683-2.52 1.023-4.992.851" style="fill:none;stroke-width:.3985;stroke-linecap:butt;stroke-linejoin:miter;stroke:#000;stroke-opacity:1;stroke-miterlimit:10" transform="matrix(1 0 0 -1 12.094 50.533)"/><path d="m22.68 22.678-.415 3.359" style="fill:none;stroke-width:.79701;stroke-linecap:butt;stroke-linejoin:miter;stroke:#000;stroke-opacity:1;stroke-miterlimit:10" transform="matrix(1 0 0 -1 12.094 50.533)"/><path d="m34.043 21.922-1.55 4.367 1.866-1.793 2.246 1.29" style="stroke:none;fill-rule:nonzero;fill:#000;fill-opacity:1"/><path d="M24.722 36.193c1.63 2.82 2.032 5.149.899 5.2-1.13.05-3.363-2.196-4.988-5.016-1.63-2.82-2.032-5.149-.899-5.2.86-.039 2.402 1.27 3.86 3.274" style="fill:none;stroke-width:.3985;stroke-linecap:butt;stroke-linejoin:miter;stroke:#000;stroke-opacity:1;stroke-miterlimit:10" transform="matrix(1 0 0 -1 12.094 50.533)"/><path d="m22.68 36.283 2.828-1.836" style="fill:none;stroke-width:.79701;stroke-linecap:butt;stroke-linejoin:miter;stroke:#000;stroke-opacity:1;stroke-miterlimit:10" transform="matrix(1 0 0 -1 12.094 50.533)"/><path d="m39.785 17.504-2.36-4.012.177 2.594-2.442.898" style="stroke:none;fill-rule:nonzero;fill:#000;fill-opacity:1"/><path d="M33.472 11.045c-3.187.675-5.523.34-5.222-.75.3-1.09 3.129-2.524 6.312-3.2 3.184-.675 5.524-.34 5.223.754-.23.829-1.953 1.891-4.309 2.66" style="fill:none;stroke-width:.3985;stroke-linecap:butt;stroke-linejoin:miter;stroke:#000;stroke-opacity:1;stroke-miterlimit:10" transform="matrix(1 0 0 -1 12.094 50.533)"/><path d="m34.015 9.072.875 3.266" style="fill:none;stroke-width:.79701;stroke-linecap:butt;stroke-linejoin:miter;stroke:#000;stroke-opacity:1;stroke-miterlimit:10" transform="matrix(1 0 0 -1 12.094 50.533)"/><path d="m47.656 35.688-3.078 3.472 2.406-.965 1.606 2.043" style="stroke:none;fill-rule:nonzero;fill:#000;fill-opacity:1"/><path d="M33.074 24.494c-3.258 0-5.473-.816-4.953-1.82.523-1.004 3.582-1.817 6.84-1.813 3.254 0 5.472.817 4.949 1.82-.395.762-2.3 1.446-4.766 1.707" style="fill:none;stroke-width:.3985;stroke-linecap:butt;stroke-linejoin:miter;stroke:#000;stroke-opacity:1;stroke-miterlimit:10" transform="matrix(1 0 0 -1 12.094 50.533)"/><path d="m34.015 22.678.18 3.382" style="fill:none;stroke-width:.79701;stroke-linecap:butt;stroke-linejoin:miter;stroke:#000;stroke-opacity:1;stroke-miterlimit:10" transform="matrix(1 0 0 -1 12.094 50.533)"/><path d="m46.422 21.887-2.285 4.031 2.152-1.445 1.988 1.66" style="stroke:none;fill-rule:nonzero;fill:#000;fill-opacity:1"/><path d="M33.816 34.244c2.735-1.77 5.035-2.293 5.145-1.168.11 1.125-2.016 3.477-4.746 5.246-2.73 1.773-5.036 2.297-5.145 1.172-.082-.86 1.145-2.469 3.07-4.027" style="fill:none;stroke-width:.3985;stroke-linecap:butt;stroke-linejoin:miter;stroke:#000;stroke-opacity:1;stroke-miterlimit:10" transform="matrix(1 0 0 -1 12.094 50.533)"/><path d="m34.015 36.283-1.984-2.734" style="fill:none;stroke-width:.79701;stroke-linecap:butt;stroke-linejoin:miter;stroke:#000;stroke-opacity:1;stroke-miterlimit:10" transform="matrix(1 0 0 -1 12.094 50.533)"/><path d="m42.598 19.086 4.125-2.145-2.598.043-.766-2.484" style="stroke:none;fill-rule:nonzero;fill:#000;fill-opacity:1"/><path d="M45.265 7.025c2.82-1.629 5.145-2.031 5.196-.898.05 1.129-2.196 3.363-5.016 4.992-2.82 1.625-5.144 2.027-5.195.898-.04-.863 1.27-2.406 3.273-3.863" style="fill:none;stroke-width:.3985;stroke-linecap:butt;stroke-linejoin:miter;stroke:#000;stroke-opacity:1;stroke-miterlimit:10" transform="matrix(1 0 0 -1 12.094 50.533)"/><path d="m45.355 9.072-1.84-2.832" style="fill:none;stroke-width:.79701;stroke-linecap:butt;stroke-linejoin:miter;stroke:#000;stroke-opacity:1;stroke-miterlimit:10" transform="matrix(1 0 0 -1 12.094 50.533)"/><path d="m54.195 46.477 4.012-2.36-2.598.176-.894-2.441" style="stroke:none;fill-rule:nonzero;fill:#000;fill-opacity:1"/><path d="M45.41 24.724c-2.848 1.579-5.18 1.942-5.211.809-.031-1.133 2.254-3.324 5.102-4.902 2.847-1.578 5.18-1.942 5.21-.809.024.86-1.312 2.383-3.34 3.805" style="fill:none;stroke-width:.3985;stroke-linecap:butt;stroke-linejoin:miter;stroke:#000;stroke-opacity:1;stroke-miterlimit:10" transform="matrix(1 0 0 -1 12.094 50.533)"/><path d="m45.355 22.678 1.793 2.867" style="fill:none;stroke-width:.79701;stroke-linecap:butt;stroke-linejoin:miter;stroke:#000;stroke-opacity:1;stroke-miterlimit:10" transform="matrix(1 0 0 -1 12.094 50.533)"/><path d="m60.617 22.785-3.96 2.422 2.585-.219.934 2.422" style="stroke:none;fill-rule:nonzero;fill:#000;fill-opacity:1"/><path d="M44.773 38.248c-3.195.62-5.527.242-5.207-.84.32-1.086 3.172-2.469 6.367-3.09 3.2-.617 5.528-.242 5.207.844-.242.824-1.98 1.86-4.351 2.586" style="fill:none;stroke-width:.3985;stroke-linecap:butt;stroke-linejoin:miter;stroke:#000;stroke-opacity:1;stroke-miterlimit:10" transform="matrix(1 0 0 -1 12.094 50.533)"/><path d="m45.355 36.283.817 3.281" style="fill:none;stroke-width:.79701;stroke-linecap:butt;stroke-linejoin:miter;stroke:#000;stroke-opacity:1;stroke-miterlimit:10" transform="matrix(1 0 0 -1 12.094 50.533)"/><path d="m58.895 8.45-3.02 3.527 2.39-1.008 1.641 2.011" style="stroke:none;fill-rule:nonzero;fill:#000;fill-opacity:1"/><path d="M58.601 9.818c.336 3.238-.242 5.527-1.293 5.117-1.054-.414-2.183-3.375-2.52-6.613-.339-3.238.24-5.527 1.294-5.113.8.312 1.676 2.137 2.195 4.562" style="fill:none;stroke-width:.3985;stroke-linecap:butt;stroke-linejoin:miter;stroke:#000;stroke-opacity:1;stroke-miterlimit:10" transform="matrix(1 0 0 -1 12.094 50.533)"/><path d="m56.695 9.072 3.34-.531" style="fill:none;stroke-width:.79701;stroke-linecap:butt;stroke-linejoin:miter;stroke:#000;stroke-opacity:1;stroke-miterlimit:10" transform="matrix(1 0 0 -1 12.094 50.533)"/><path d="M74.691 42.398 70.918 39.7l1.21 2.293-1.858 1.805" style="stroke:none;fill-rule:nonzero;fill:#000;fill-opacity:1"/><path d="M58.738 22.803c1.324 2.972 1.48 5.328.352 5.261-1.13-.066-3.118-2.535-4.442-5.511-1.32-2.973-1.48-5.329-.347-5.262.859.05 2.253 1.515 3.496 3.66" style="fill:none;stroke-width:.3985;stroke-linecap:butt;stroke-linejoin:miter;stroke:#000;stroke-opacity:1;stroke-miterlimit:10" transform="matrix(1 0 0 -1 12.094 50.533)"/><path d="m56.695 22.678 3.008-1.536" style="fill:none;stroke-width:.79701;stroke-linecap:butt;stroke-linejoin:miter;stroke:#000;stroke-opacity:1;stroke-miterlimit:10" transform="matrix(1 0 0 -1 12.094 50.533)"/><path d="m74.113 30.57-2.761-3.742.445 2.563-2.336 1.144" style="stroke:none;fill-rule:nonzero;fill:#000;fill-opacity:1"/><path d="M54.668 36.588c-1.91-2.633-2.555-4.907-1.438-5.075 1.121-.168 3.578 1.832 5.489 4.465 1.914 2.637 2.558 4.91 1.437 5.078-.852.125-2.523-1.011-4.18-2.855" style="fill:none;stroke-width:.3985;stroke-linecap:butt;stroke-linejoin:miter;stroke:#000;stroke-opacity:1;stroke-miterlimit:10" transform="matrix(1 0 0 -1 12.094 50.533)"/><path d="m56.695 36.283-2.625 2.125" style="fill:none;stroke-width:.79701;stroke-linecap:butt;stroke-linejoin:miter;stroke:#000;stroke-opacity:1;stroke-miterlimit:10" transform="matrix(1 0 0 -1 12.094 50.533)"/><path d="m64.14 10.488 1.926 4.239.098-2.602 2.523-.637" style="stroke:none;fill-rule:nonzero;fill:#000;fill-opacity:1"/><path d="M66.066 8.49c-.617-3.195-.242-5.527.844-5.207 1.086.32 2.469 3.172 3.086 6.367.62 3.195.242 5.528-.84 5.207-.828-.242-1.86-1.984-2.586-4.351" style="fill:none;stroke-width:.3985;stroke-linecap:butt;stroke-linejoin:miter;stroke:#000;stroke-opacity:1;stroke-miterlimit:10" transform="matrix(1 0 0 -1 12.094 50.533)"/><path d="m68.031 9.072-3.281.816" style="fill:none;stroke-width:.79701;stroke-linecap:butt;stroke-linejoin:miter;stroke:#000;stroke-opacity:1;stroke-miterlimit:10" transform="matrix(1 0 0 -1 12.094 50.533)"/><path d="m74.328 40.016 3.527 3.02-1.011-2.391 2.015-1.641" style="stroke:none;fill-rule:nonzero;fill:#000;fill-opacity:1"/><path d="M66.02 23.053c-2.005-2.567-2.727-4.817-1.614-5.024 1.113-.207 3.637 1.707 5.64 4.274 2.005 2.566 2.727 4.816 1.614 5.023-.848.156-2.559-.926-4.277-2.707" style="fill:none;stroke-width:.3985;stroke-linecap:butt;stroke-linejoin:miter;stroke:#000;stroke-opacity:1;stroke-miterlimit:10" transform="matrix(1 0 0 -1 12.094 50.533)"/><path d="m68.031 22.678-2.547 2.214" style="fill:none;stroke-width:.79701;stroke-linecap:butt;stroke-linejoin:miter;stroke:#000;stroke-opacity:1;stroke-miterlimit:10" transform="matrix(1 0 0 -1 12.094 50.533)"/><path d="m75.617 23.934 1.774 4.304.187-2.597 2.547-.547" style="stroke:none;fill-rule:nonzero;fill:#000;fill-opacity:1"/><path d="M68.543 34.299c3.172-.73 5.515-.434 5.234.664-.281 1.093-3.082 2.574-6.254 3.304-3.176.73-5.515.438-5.234-.66.215-.832 1.918-1.926 4.258-2.734" style="fill:none;stroke-width:.3985;stroke-linecap:butt;stroke-linejoin:miter;stroke:#000;stroke-opacity:1;stroke-miterlimit:10" transform="matrix(1 0 0 -1 12.094 50.533)"/><path d="m68.031 36.283-.93-3.25" style="fill:none;stroke-width:.79701;stroke-linecap:butt;stroke-linejoin:miter;stroke:#000;stroke-opacity:1;stroke-miterlimit:10" transform="matrix(1 0 0 -1 12.094 50.533)"/><path d="m78.48 19.996 3.137-3.422-2.422.926-1.566-2.07" style="stroke:none;fill-rule:nonzero;fill:#000;fill-opacity:1"/><path d="M79.101 7.04c2.668-1.866 4.953-2.468 5.102-1.347.148 1.121-1.895 3.543-4.563 5.41-2.668 1.864-4.949 2.47-5.097 1.348-.114-.856 1.054-2.508 2.922-4.133" style="fill:none;stroke-width:.3985;stroke-linecap:butt;stroke-linejoin:miter;stroke:#000;stroke-opacity:1;stroke-miterlimit:10" transform="matrix(1 0 0 -1 12.094 50.533)"/><path d="M79.37 9.072 77.29 6.404" style="fill:none;stroke-width:.79701;stroke-linecap:butt;stroke-linejoin:miter;stroke:#000;stroke-opacity:1;stroke-miterlimit:10" transform="matrix(1 0 0 -1 12.094 50.533)"/><path d="m87.785 46.172 4.188-1.992-2.59-.051-.68-2.5" style="stroke:none;fill-rule:nonzero;fill:#000;fill-opacity:1"/><path d="M79.777 20.67c3.129-.895 5.484-.723 5.262.386-.223 1.11-2.945 2.735-6.074 3.63-3.13.894-5.485.722-5.262-.387.172-.844 1.816-2.024 4.113-2.953" style="fill:none;stroke-width:.3985;stroke-linecap:butt;stroke-linejoin:miter;stroke:#000;stroke-opacity:1;stroke-miterlimit:10" transform="matrix(1 0 0 -1 12.094 50.533)"/><path d="m79.37 22.678-1.1-3.2" style="fill:none;stroke-width:.79701;stroke-linecap:butt;stroke-linejoin:miter;stroke:#000;stroke-opacity:1;stroke-miterlimit:10" transform="matrix(1 0 0 -1 12.094 50.533)"/><path d="m89.52 33.508 3.312-3.25-2.469.797-1.453-2.149" style="stroke:none;fill-rule:nonzero;fill:#000;fill-opacity:1"/><path d="M81.324 35.666c2.3 2.305 3.293 4.449 2.215 4.789-1.078.34-3.82-1.25-6.121-3.555-2.301-2.3-3.293-4.445-2.211-4.785.82-.262 2.648.605 4.574 2.164" style="fill:none;stroke-width:.3985;stroke-linecap:butt;stroke-linejoin:miter;stroke:#000;stroke-opacity:1;stroke-miterlimit:10" transform="matrix(1 0 0 -1 12.094 50.533)"/><path d="m79.37 36.283 2.266-2.516" style="fill:none;stroke-width:.79701;stroke-linecap:butt;stroke-linejoin:miter;stroke:#000;stroke-opacity:1;stroke-miterlimit:10" transform="matrix(1 0 0 -1 12.094 50.533)"/><path d="m95.465 18.691-1.235-4.468-.5 2.543-2.578.23" style="stroke:none;fill-rule:nonzero;fill:#000;fill-opacity:1"/><path d="M92.742 8.803c1.863 2.667 2.469 4.949 1.348 5.097-1.121.149-3.543-1.89-5.41-4.558-1.868-2.668-2.47-4.954-1.348-5.102.851-.113 2.504 1.055 4.133 2.926" style="fill:none;stroke-width:.3985;stroke-linecap:butt;stroke-linejoin:miter;stroke:#000;stroke-opacity:1;stroke-miterlimit:10" transform="matrix(1 0 0 -1 12.094 50.533)"/><path d="m90.71 9.072 2.669-2.086" style="fill:none;stroke-width:.79701;stroke-linecap:butt;stroke-linejoin:miter;stroke:#000;stroke-opacity:1;stroke-miterlimit:10" transform="matrix(1 0 0 -1 12.094 50.533)"/><path d="m107.516 45.14-1.993-4.187-.05 2.594-2.504.676" style="stroke:none;fill-rule:nonzero;fill:#000;fill-opacity:1"/><path d="M89.351 21.146c1.168-3.039 2.723-4.816 3.473-3.972.75.847.414 3.996-.754 7.035s-2.726 4.816-3.476 3.972c-.57-.644-.524-2.668.117-5.062" style="fill:none;stroke-width:.3985;stroke-linecap:butt;stroke-linejoin:miter;stroke:#000;stroke-opacity:1;stroke-miterlimit:10" transform="matrix(1 0 0 -1 12.094 50.533)"/><path d="m90.71 22.678-3.218-1.047" style="fill:none;stroke-width:.79701;stroke-linecap:butt;stroke-linejoin:miter;stroke:#000;stroke-opacity:1;stroke-miterlimit:10" transform="matrix(1 0 0 -1 12.094 50.533)"/><path d="m97.121 29.703 4.586.692-2.121-1.493.84-2.457" style="stroke:none;fill-rule:nonzero;fill:#000;fill-opacity:1"/><path d="M88.695 36.658c-2.004-2.566-2.723-4.813-1.613-5.02 1.113-.207 3.64 1.704 5.64 4.27 2.004 2.566 2.727 4.816 1.614 5.023-.844.157-2.555-.921-4.278-2.707" style="fill:none;stroke-width:.3985;stroke-linecap:butt;stroke-linejoin:miter;stroke:#000;stroke-opacity:1;stroke-miterlimit:10" transform="matrix(1 0 0 -1 12.094 50.533)"/><path d="m90.71 36.283-2.546 2.215" style="fill:none;stroke-width:.79701;stroke-linecap:butt;stroke-linejoin:miter;stroke:#000;stroke-opacity:1;stroke-miterlimit:10" transform="matrix(1 0 0 -1 12.094 50.533)"/><path d="m98.293 10.328 1.777 4.3.188-2.593 2.543-.547" style="stroke:none;fill-rule:nonzero;fill:#000;fill-opacity:1"/><path d="M101.23 7.193c2.051-2.527 4.078-3.738 4.531-2.703.454 1.04-.843 3.93-2.894 6.457-2.05 2.531-4.078 3.742-4.531 2.703-.344-.789.324-2.699 1.675-4.777" style="fill:none;stroke-width:.3985;stroke-linecap:butt;stroke-linejoin:miter;stroke:#000;stroke-opacity:1;stroke-miterlimit:10" transform="matrix(1 0 0 -1 12.094 50.533)"/><path d="m102.05 9.072-2.734-1.988" style="fill:none;stroke-width:.79701;stroke-linecap:butt;stroke-linejoin:miter;stroke:#000;stroke-opacity:1;stroke-miterlimit:10" transform="matrix(1 0 0 -1 12.094 50.533)"/><path d="m109.309 44.977 4.582-.762-2.48-.766.038-2.597" style="stroke:none;fill-rule:nonzero;fill:#000;fill-opacity:1"/><path d="M101.5 20.705c2.383-2.219 4.558-3.137 4.863-2.047.3 1.09-1.383 3.773-3.766 5.992-2.382 2.219-4.558 3.137-4.863 2.047-.23-.832.7-2.629 2.324-4.5" style="fill:none;stroke-width:.3985;stroke-linecap:butt;stroke-linejoin:miter;stroke:#000;stroke-opacity:1;stroke-miterlimit:10" transform="matrix(1 0 0 -1 12.094 50.533)"/><path d="m102.05 22.678-2.433-2.348" style="fill:none;stroke-width:.79701;stroke-linecap:butt;stroke-linejoin:miter;stroke:#000;stroke-opacity:1;stroke-miterlimit:10" transform="matrix(1 0 0 -1 12.094 50.533)"/><path d="m109.844 32.008 4.433-1.39-2.566-.415-.32-2.578" style="stroke:none;fill-rule:nonzero;fill:#000;fill-opacity:1"/><path d="M103.957 37.033c.336 3.238-.242 5.527-1.293 5.113-1.055-.414-2.184-3.37-2.524-6.61-.336-3.237.243-5.526 1.297-5.116.801.316 1.676 2.14 2.196 4.562" style="fill:none;stroke-width:.3985;stroke-linecap:butt;stroke-linejoin:miter;stroke:#000;stroke-opacity:1;stroke-miterlimit:10" transform="matrix(1 0 0 -1 12.094 50.533)"/><path d="m102.05 36.283 3.34-.527" style="fill:none;stroke-width:.79701;stroke-linecap:butt;stroke-linejoin:miter;stroke:#000;stroke-opacity:1;stroke-miterlimit:10" transform="matrix(1 0 0 -1 12.094 50.533)"/><path d="m120.047 15.184-3.774-2.7 1.211 2.293-1.859 1.809" style="stroke:none;fill-rule:nonzero;fill:#000;fill-opacity:1"/><path d="M0-56.694v45.356h113.386v-45.356Zm0 0" style="fill:none;stroke-width:.3985;stroke-linecap:butt;stroke-linejoin:miter;stroke:#000;stroke-opacity:1;stroke-miterlimit:10" transform="matrix(1 0 0 -1 12.094 50.533)"/><use xlink:href="#a" x="4.982" y="87.638" style="fill:#000;fill-opacity:1"/><use xlink:href="#b" x="127.474" y="87.638" style="fill:#000;fill-opacity:1"/><path d="M13.105-46.584c-.172 3.25-1.101 5.422-2.078 4.847-.976-.574-1.625-3.671-1.453-6.925.172-3.25 1.102-5.422 2.074-4.848.746.438 1.324 2.375 1.457 4.848" style="fill:none;stroke-width:.3985;stroke-linecap:butt;stroke-linejoin:miter;stroke:#000;stroke-opacity:1;stroke-miterlimit:10" transform="matrix(1 0 0 -1 12.094 50.533)"/><path d="M11.34-47.623h3.386" style="fill:none;stroke-width:.79701;stroke-linecap:butt;stroke-linejoin:miter;stroke:#000;stroke-opacity:1;stroke-miterlimit:10" transform="matrix(1 0 0 -1 12.094 50.533)"/><path d="m29.41 98.156-4.144-2.074 1.554 2.074-1.554 2.07" style="stroke:none;fill-rule:nonzero;fill:#000;fill-opacity:1"/><path d="M13.172-33.104c.054 3.254-.72 5.485-1.735 4.98-1.011-.503-1.879-3.55-1.933-6.804-.055-3.254.722-5.484 1.734-4.984.773.386 1.488 2.277 1.79 4.738" style="fill:none;stroke-width:.3985;stroke-linecap:butt;stroke-linejoin:miter;stroke:#000;stroke-opacity:1;stroke-miterlimit:10" transform="matrix(1 0 0 -1 12.094 50.533)"/><path d="m11.34-34.018 3.375-.234" style="fill:none;stroke-width:.79701;stroke-linecap:butt;stroke-linejoin:miter;stroke:#000;stroke-opacity:1;stroke-miterlimit:10" transform="matrix(1 0 0 -1 12.094 50.533)"/><path d="m29.395 84.965-3.993-2.356 1.407 2.176-1.696 1.961" style="stroke:none;fill-rule:nonzero;fill:#000;fill-opacity:1"/><path d="M13.246-19.662c.34 3.238-.242 5.527-1.293 5.117-1.055-.414-2.184-3.375-2.52-6.613-.34-3.239.239-5.528 1.293-5.114.801.313 1.68 2.137 2.196 4.563" style="fill:none;stroke-width:.3985;stroke-linecap:butt;stroke-linejoin:miter;stroke:#000;stroke-opacity:1;stroke-miterlimit:10" transform="matrix(1 0 0 -1 12.094 50.533)"/><path d="m11.34-20.408 3.34-.532" style="fill:none;stroke-width:.79701;stroke-linecap:butt;stroke-linejoin:miter;stroke:#000;stroke-opacity:1;stroke-miterlimit:10" transform="matrix(1 0 0 -1 12.094 50.533)"/><path d="m29.336 71.879-3.773-2.7 1.21 2.294-1.859 1.804" style="stroke:none;fill-rule:nonzero;fill:#000;fill-opacity:1"/><path d="M24.543-46.776c.168 3.25-.532 5.508-1.559 5.04-1.031-.47-2.004-3.485-2.172-6.735-.168-3.25.531-5.508 1.559-5.039.785.355 1.566 2.223 1.953 4.672" style="fill:none;stroke-width:.3985;stroke-linecap:butt;stroke-linejoin:miter;stroke:#000;stroke-opacity:1;stroke-miterlimit:10" transform="matrix(1 0 0 -1 12.094 50.533)"/><path d="m22.68-47.623 3.367-.356" style="fill:none;stroke-width:.79701;stroke-linecap:butt;stroke-linejoin:miter;stroke:#000;stroke-opacity:1;stroke-miterlimit:10" transform="matrix(1 0 0 -1 12.094 50.533)"/><path d="m40.715 98.781-3.906-2.496 1.332 2.227-1.766 1.898" style="stroke:none;fill-rule:nonzero;fill:#000;fill-opacity:1"/><path d="M24.324-32.799c-.508 3.215-1.66 5.277-2.57 4.605-.91-.671-1.235-3.824-.723-7.039.508-3.214 1.66-5.277 2.57-4.605.696.512 1.07 2.5.942 4.973" style="fill:none;stroke-width:.3985;stroke-linecap:butt;stroke-linejoin:miter;stroke:#000;stroke-opacity:1;stroke-miterlimit:10" transform="matrix(1 0 0 -1 12.094 50.533)"/><path d="m22.68-34.018 3.367.356" style="fill:none;stroke-width:.79701;stroke-linecap:butt;stroke-linejoin:miter;stroke:#000;stroke-opacity:1;stroke-miterlimit:10" transform="matrix(1 0 0 -1 12.094 50.533)"/><path d="m40.715 83.926-4.34-1.63 1.766 1.9-1.332 2.222" style="stroke:none;fill-rule:nonzero;fill:#000;fill-opacity:1"/><path d="M24.597-19.694c.395 3.23-.144 5.532-1.203 5.137-1.062-.398-2.242-3.336-2.636-6.57-.395-3.23.144-5.527 1.203-5.133.808.3 1.718 2.106 2.277 4.523" style="fill:none;stroke-width:.3985;stroke-linecap:butt;stroke-linejoin:miter;stroke:#000;stroke-opacity:1;stroke-miterlimit:10" transform="matrix(1 0 0 -1 12.094 50.533)"/><path d="m22.68-20.408 3.331-.59" style="fill:none;stroke-width:.79701;stroke-linecap:butt;stroke-linejoin:miter;stroke:#000;stroke-opacity:1;stroke-miterlimit:10" transform="matrix(1 0 0 -1 12.094 50.533)"/><path d="m40.66 71.98-3.726-2.761 1.171 2.312-1.894 1.774" style="stroke:none;fill-rule:nonzero;fill:#000;fill-opacity:1"/><path d="M35.746-46.526c-.285 3.247-1.293 5.383-2.246 4.774-.953-.606-1.496-3.727-1.211-6.969.285-3.246 1.289-5.383 2.242-4.773.73.46 1.242 2.418 1.285 4.894" style="fill:none;stroke-width:.3985;stroke-linecap:butt;stroke-linejoin:miter;stroke:#000;stroke-opacity:1;stroke-miterlimit:10" transform="matrix(1 0 0 -1 12.094 50.533)"/><path d="m34.015-47.623 3.387.117" style="fill:none;stroke-width:.79701;stroke-linecap:butt;stroke-linejoin:miter;stroke:#000;stroke-opacity:1;stroke-miterlimit:10" transform="matrix(1 0 0 -1 12.094 50.533)"/><path d="m52.086 97.95-4.215-1.93 1.625 2.02-1.48 2.124" style="stroke:none;fill-rule:nonzero;fill:#000;fill-opacity:1"/><path d="M35.664-32.799c-.512 3.215-1.664 5.277-2.574 4.605-.91-.671-1.23-3.824-.723-7.039.512-3.214 1.664-5.277 2.574-4.605.692.512 1.067 2.5.942 4.973" style="fill:none;stroke-width:.3985;stroke-linecap:butt;stroke-linejoin:miter;stroke:#000;stroke-opacity:1;stroke-miterlimit:10" transform="matrix(1 0 0 -1 12.094 50.533)"/><path d="m34.015-34.018 3.368.356" style="fill:none;stroke-width:.79701;stroke-linecap:butt;stroke-linejoin:miter;stroke:#000;stroke-opacity:1;stroke-miterlimit:10" transform="matrix(1 0 0 -1 12.094 50.533)"/><path d="m52.055 83.926-4.34-1.63 1.762 1.9-1.329 2.222" style="stroke:none;fill-rule:nonzero;fill:#000;fill-opacity:1"/><path d="M35.816-19.436c-.058 3.258-.91 5.461-1.906 4.922-.996-.539-1.754-3.617-1.695-6.871.058-3.254.914-5.457 1.906-4.918.758.41 1.406 2.324 1.625 4.793" style="fill:none;stroke-width:.3985;stroke-linecap:butt;stroke-linejoin:miter;stroke:#000;stroke-opacity:1;stroke-miterlimit:10" transform="matrix(1 0 0 -1 12.094 50.533)"/><path d="m34.015-20.408 3.387-.121" style="fill:none;stroke-width:.79701;stroke-linecap:butt;stroke-linejoin:miter;stroke:#000;stroke-opacity:1;stroke-miterlimit:10" transform="matrix(1 0 0 -1 12.094 50.533)"/><path d="m52.086 71.152-4.07-2.218 1.48 2.129-1.625 2.015" style="stroke:none;fill-rule:nonzero;fill:#000;fill-opacity:1"/><path d="M47.043-46.463c-.399 3.23-1.477 5.332-2.41 4.691-.934-.64-1.364-3.777-.97-7.011.4-3.23 1.481-5.332 2.415-4.692.707.488 1.152 2.461 1.11 4.942" style="fill:none;stroke-width:.3985;stroke-linecap:butt;stroke-linejoin:miter;stroke:#000;stroke-opacity:1;stroke-miterlimit:10" transform="matrix(1 0 0 -1 12.094 50.533)"/><path d="m45.355-47.623 3.38.238" style="fill:none;stroke-width:.79701;stroke-linecap:butt;stroke-linejoin:miter;stroke:#000;stroke-opacity:1;stroke-miterlimit:10" transform="matrix(1 0 0 -1 12.094 50.533)"/><path d="m63.41 97.738-4.281-1.777 1.7 1.957-1.411 2.18" style="stroke:none;fill-rule:nonzero;fill:#000;fill-opacity:1"/><path d="M46.937-32.713c-.68 3.184-1.937 5.18-2.812 4.46-.871-.718-1.032-3.882-.352-7.066.68-3.183 1.938-5.183 2.809-4.464.668.546.937 2.554.68 5.02" style="fill:none;stroke-width:.3985;stroke-linecap:butt;stroke-linejoin:miter;stroke:#000;stroke-opacity:1;stroke-miterlimit:10" transform="matrix(1 0 0 -1 12.094 50.533)"/><path d="m45.355-34.018 3.344.531" style="fill:none;stroke-width:.79701;stroke-linecap:butt;stroke-linejoin:miter;stroke:#000;stroke-opacity:1;stroke-miterlimit:10" transform="matrix(1 0 0 -1 12.094 50.533)"/><path d="m63.352 83.613-4.422-1.398 1.863 1.805-1.215 2.293" style="stroke:none;fill-rule:nonzero;fill:#000;fill-opacity:1"/><path d="M46.914-19.08c-.735 3.172-2.028 5.148-2.887 4.414-.863-.735-.965-3.899-.23-7.07.734-3.176 2.027-5.149 2.886-4.418.657.558.891 2.57.59 5.027" style="fill:none;stroke-width:.3985;stroke-linecap:butt;stroke-linejoin:miter;stroke:#000;stroke-opacity:1;stroke-miterlimit:10" transform="matrix(1 0 0 -1 12.094 50.533)"/><path d="m45.355-20.408 3.332.586" style="fill:none;stroke-width:.79701;stroke-linecap:butt;stroke-linejoin:miter;stroke:#000;stroke-opacity:1;stroke-miterlimit:10" transform="matrix(1 0 0 -1 12.094 50.533)"/><path d="m63.336 69.906-4.445-1.324 1.89 1.773-1.172 2.313" style="stroke:none;fill-rule:nonzero;fill:#000;fill-opacity:1"/><path d="M58.586-46.842c.285 3.246-.336 5.523-1.383 5.094-1.043-.434-2.121-3.414-2.402-6.657-.282-3.242.335-5.523 1.382-5.09.797.329 1.641 2.165 2.114 4.598" style="fill:none;stroke-width:.3985;stroke-linecap:butt;stroke-linejoin:miter;stroke:#000;stroke-opacity:1;stroke-miterlimit:10" transform="matrix(1 0 0 -1 12.094 50.533)"/><path d="m56.695-47.623 3.352-.473" style="fill:none;stroke-width:.79701;stroke-linecap:butt;stroke-linejoin:miter;stroke:#000;stroke-opacity:1;stroke-miterlimit:10" transform="matrix(1 0 0 -1 12.094 50.533)"/><path d="m74.707 98.988-3.816-2.629 1.25 2.27-1.829 1.836" style="stroke:none;fill-rule:nonzero;fill:#000;fill-opacity:1"/><path d="M58.441-32.947c-.226 3.246-1.195 5.402-2.16 4.812-.965-.59-1.563-3.703-1.336-6.95.23-3.25 1.2-5.402 2.164-4.812.734.45 1.281 2.399 1.367 4.875" style="fill:none;stroke-width:.3985;stroke-linecap:butt;stroke-linejoin:miter;stroke:#000;stroke-opacity:1;stroke-miterlimit:10" transform="matrix(1 0 0 -1 12.094 50.533)"/><path d="m56.695-34.018 3.387.063" style="fill:none;stroke-width:.79701;stroke-linecap:butt;stroke-linejoin:miter;stroke:#000;stroke-opacity:1;stroke-miterlimit:10" transform="matrix(1 0 0 -1 12.094 50.533)"/><path d="m74.766 84.445-4.18-2 1.59 2.043-1.52 2.102" style="stroke:none;fill-rule:nonzero;fill:#000;fill-opacity:1"/><path d="M58.277-19.108c-.68 3.184-1.937 5.184-2.812 4.465-.872-.719-1.032-3.883-.352-7.066.676-3.188 1.934-5.184 2.809-4.465.664.547.937 2.55.68 5.016" style="fill:none;stroke-width:.3985;stroke-linecap:butt;stroke-linejoin:miter;stroke:#000;stroke-opacity:1;stroke-miterlimit:10" transform="matrix(1 0 0 -1 12.094 50.533)"/><path d="m56.695-20.408 3.34.527" style="fill:none;stroke-width:.79701;stroke-linecap:butt;stroke-linejoin:miter;stroke:#000;stroke-opacity:1;stroke-miterlimit:10" transform="matrix(1 0 0 -1 12.094 50.533)"/><path d="m74.691 70.008-4.421-1.403 1.859 1.81-1.211 2.292" style="stroke:none;fill-rule:nonzero;fill:#000;fill-opacity:1"/><path d="M69.851-46.678c-.004 3.254-.816 5.473-1.82 4.95-1.004-.52-1.816-3.583-1.816-6.84 0-3.254.816-5.473 1.82-4.95.766.399 1.445 2.301 1.707 4.766" style="fill:none;stroke-width:.3985;stroke-linecap:butt;stroke-linejoin:miter;stroke:#000;stroke-opacity:1;stroke-miterlimit:10" transform="matrix(1 0 0 -1 12.094 50.533)"/><path d="m68.031-47.623 3.383-.176" style="fill:none;stroke-width:.79701;stroke-linecap:butt;stroke-linejoin:miter;stroke:#000;stroke-opacity:1;stroke-miterlimit:10" transform="matrix(1 0 0 -1 12.094 50.533)"/><path d="m86.098 98.469-4.032-2.285 1.442 2.148-1.66 1.988" style="stroke:none;fill-rule:nonzero;fill:#000;fill-opacity:1"/><path d="M69.953-33.299c.394 3.23-.145 5.531-1.203 5.133-1.063-.395-2.242-3.332-2.637-6.567-.394-3.23.145-5.53 1.203-5.136.809.3 1.719 2.109 2.278 4.523" style="fill:none;stroke-width:.3985;stroke-linecap:butt;stroke-linejoin:miter;stroke:#000;stroke-opacity:1;stroke-miterlimit:10" transform="matrix(1 0 0 -1 12.094 50.533)"/><path d="m68.031-34.018 3.336-.586" style="fill:none;stroke-width:.79701;stroke-linecap:butt;stroke-linejoin:miter;stroke:#000;stroke-opacity:1;stroke-miterlimit:10" transform="matrix(1 0 0 -1 12.094 50.533)"/><path d="m86.012 85.586-3.723-2.762 1.172 2.313-1.895 1.773" style="stroke:none;fill-rule:nonzero;fill:#000;fill-opacity:1"/><path d="M69.851-19.467c-.004 3.258-.816 5.473-1.82 4.953-1.004-.523-1.816-3.586-1.816-6.84s.816-5.472 1.82-4.949c.766.395 1.445 2.3 1.707 4.766" style="fill:none;stroke-width:.3985;stroke-linecap:butt;stroke-linejoin:miter;stroke:#000;stroke-opacity:1;stroke-miterlimit:10" transform="matrix(1 0 0 -1 12.094 50.533)"/><path d="m68.031-20.408 3.383-.18" style="fill:none;stroke-width:.79701;stroke-linecap:butt;stroke-linejoin:miter;stroke:#000;stroke-opacity:1;stroke-miterlimit:10" transform="matrix(1 0 0 -1 12.094 50.533)"/><path d="m86.098 71.254-4.032-2.285 1.442 2.152-1.66 1.988" style="stroke:none;fill-rule:nonzero;fill:#000;fill-opacity:1"/><path d="M81.12-46.553c-.23 3.246-1.198 5.402-2.163 4.809-.965-.59-1.563-3.7-1.332-6.946.226-3.25 1.195-5.402 2.16-4.812.734.45 1.281 2.394 1.371 4.87" style="fill:none;stroke-width:.3985;stroke-linecap:butt;stroke-linejoin:miter;stroke:#000;stroke-opacity:1;stroke-miterlimit:10" transform="matrix(1 0 0 -1 12.094 50.533)"/><path d="m79.37-47.623 3.388.058" style="fill:none;stroke-width:.79701;stroke-linecap:butt;stroke-linejoin:miter;stroke:#000;stroke-opacity:1;stroke-miterlimit:10" transform="matrix(1 0 0 -1 12.094 50.533)"/><path d="m97.441 98.05-4.18-2 1.59 2.048-1.519 2.097" style="stroke:none;fill-rule:nonzero;fill:#000;fill-opacity:1"/><path d="M80.953-32.713c-.68 3.184-1.938 5.18-2.809 4.46-.875-.718-1.035-3.882-.355-7.066.68-3.183 1.937-5.183 2.812-4.464.664.546.934 2.554.676 5.02" style="fill:none;stroke-width:.3985;stroke-linecap:butt;stroke-linejoin:miter;stroke:#000;stroke-opacity:1;stroke-miterlimit:10" transform="matrix(1 0 0 -1 12.094 50.533)"/><path d="m79.37-34.018 3.345.531" style="fill:none;stroke-width:.79701;stroke-linecap:butt;stroke-linejoin:miter;stroke:#000;stroke-opacity:1;stroke-miterlimit:10" transform="matrix(1 0 0 -1 12.094 50.533)"/><path d="m97.371 83.613-4.426-1.398 1.864 1.805-1.215 2.293" style="stroke:none;fill-rule:nonzero;fill:#000;fill-opacity:1"/><path d="M81.222-19.53c.11 3.254-.625 5.497-1.648 5.012-1.02-.488-1.941-3.52-2.05-6.773-.114-3.254.624-5.496 1.644-5.012.777.371 1.527 2.25 1.87 4.707" style="fill:none;stroke-width:.3985;stroke-linecap:butt;stroke-linejoin:miter;stroke:#000;stroke-opacity:1;stroke-miterlimit:10" transform="matrix(1 0 0 -1 12.094 50.533)"/><path d="m79.37-20.408 3.376-.297" style="fill:none;stroke-width:.79701;stroke-linecap:butt;stroke-linejoin:miter;stroke:#000;stroke-opacity:1;stroke-miterlimit:10" transform="matrix(1 0 0 -1 12.094 50.533)"/><path d="m97.422 71.465-3.953-2.43 1.37 2.203-1.73 1.93" style="stroke:none;fill-rule:nonzero;fill:#000;fill-opacity:1"/><path d="M92.543-46.71c.058 3.255-.719 5.485-1.735 4.981-1.011-.504-1.879-3.55-1.933-6.804-.055-3.258.722-5.489 1.734-4.985.774.383 1.488 2.278 1.79 4.735" style="fill:none;stroke-width:.3985;stroke-linecap:butt;stroke-linejoin:miter;stroke:#000;stroke-opacity:1;stroke-miterlimit:10" transform="matrix(1 0 0 -1 12.094 50.533)"/><path d="m90.71-47.623 3.376-.235" style="fill:none;stroke-width:.79701;stroke-linecap:butt;stroke-linejoin:miter;stroke:#000;stroke-opacity:1;stroke-miterlimit:10" transform="matrix(1 0 0 -1 12.094 50.533)"/><path d="m108.766 98.574-3.993-2.36 1.407 2.177-1.696 1.96" style="stroke:none;fill-rule:nonzero;fill:#000;fill-opacity:1"/><path d="M92.59-33.201c.226 3.25-.434 5.515-1.473 5.066-1.035-.45-2.063-3.45-2.285-6.695-.227-3.25.433-5.516 1.469-5.067.793.344 1.605 2.196 2.035 4.637" style="fill:none;stroke-width:.3985;stroke-linecap:butt;stroke-linejoin:miter;stroke:#000;stroke-opacity:1;stroke-miterlimit:10" transform="matrix(1 0 0 -1 12.094 50.533)"/><path d="m90.71-34.018 3.36-.41" style="fill:none;stroke-width:.79701;stroke-linecap:butt;stroke-linejoin:miter;stroke:#000;stroke-opacity:1;stroke-miterlimit:10" transform="matrix(1 0 0 -1 12.094 50.533)"/><path d="m108.738 85.277-3.863-2.562 1.29 2.246-1.794 1.867" style="stroke:none;fill-rule:nonzero;fill:#000;fill-opacity:1"/><path d="M92.27-19.08c-.735 3.172-2.028 5.148-2.887 4.414-.864-.735-.965-3.899-.23-7.07.733-3.176 2.026-5.149 2.886-4.418.656.558.89 2.57.59 5.027" style="fill:none;stroke-width:.3985;stroke-linecap:butt;stroke-linejoin:miter;stroke:#000;stroke-opacity:1;stroke-miterlimit:10" transform="matrix(1 0 0 -1 12.094 50.533)"/><path d="m90.71-20.408 3.333.586" style="fill:none;stroke-width:.79701;stroke-linecap:butt;stroke-linejoin:miter;stroke:#000;stroke-opacity:1;stroke-miterlimit:10" transform="matrix(1 0 0 -1 12.094 50.533)"/><path d="m108.691 69.906-4.445-1.324 1.89 1.773-1.171 2.313" style="stroke:none;fill-rule:nonzero;fill:#000;fill-opacity:1"/><path d="M103.633-46.322c-.68 3.183-1.938 5.183-2.813 4.464-.875-.718-1.031-3.882-.351-7.066.675-3.184 1.933-5.184 2.808-4.465.664.547.938 2.55.68 5.016" style="fill:none;stroke-width:.3985;stroke-linecap:butt;stroke-linejoin:miter;stroke:#000;stroke-opacity:1;stroke-miterlimit:10" transform="matrix(1 0 0 -1 12.094 50.533)"/><path d="m102.05-47.623 3.34.531" style="fill:none;stroke-width:.79701;stroke-linecap:butt;stroke-linejoin:miter;stroke:#000;stroke-opacity:1;stroke-miterlimit:10" transform="matrix(1 0 0 -1 12.094 50.533)"/><path d="m120.047 97.223-4.422-1.403 1.86 1.805-1.212 2.293" style="stroke:none;fill-rule:nonzero;fill:#000;fill-opacity:1"/><path d="M103.898-33.135c.113 3.254-.625 5.496-1.644 5.012-1.024-.489-1.942-3.52-2.055-6.774-.113-3.254.625-5.496 1.648-5.011.778.37 1.524 2.25 1.872 4.703" style="fill:none;stroke-width:.3985;stroke-linecap:butt;stroke-linejoin:miter;stroke:#000;stroke-opacity:1;stroke-miterlimit:10" transform="matrix(1 0 0 -1 12.094 50.533)"/><path d="m102.05-34.018 3.372-.293" style="fill:none;stroke-width:.79701;stroke-linecap:butt;stroke-linejoin:miter;stroke:#000;stroke-opacity:1;stroke-miterlimit:10" transform="matrix(1 0 0 -1 12.094 50.533)"/><path d="m120.098 85.07-3.95-2.425 1.368 2.199-1.73 1.93" style="stroke:none;fill-rule:nonzero;fill:#000;fill-opacity:1"/><path d="M103.676-19.162c-.567 3.203-1.754 5.246-2.653 4.558-.898-.687-1.168-3.843-.601-7.05.566-3.208 1.754-5.247 2.652-4.56.684.524 1.027 2.517.855 4.99" style="fill:none;stroke-width:.3985;stroke-linecap:butt;stroke-linejoin:miter;stroke:#000;stroke-opacity:1;stroke-miterlimit:10" transform="matrix(1 0 0 -1 12.094 50.533)"/><path d="m102.05-20.408 3.36.41" style="fill:none;stroke-width:.79701;stroke-linecap:butt;stroke-linejoin:miter;stroke:#000;stroke-opacity:1;stroke-miterlimit:10" transform="matrix(1 0 0 -1 12.094 50.533)"/><path d="m120.074 70.215-4.367-1.555 1.797 1.871-1.29 2.246" style="stroke:none;fill-rule:nonzero;fill:#000;fill-opacity:1"/><g clip-path="url(#c)"><path d="M0-113.389v45.356h49.89l2.493-9.961H49.89l2.493-9.965H49.89l2.493-9.961H49.89l2.493-9.965H49.89v-5.504Zm0 0" style="fill:none;stroke-width:.3985;stroke-linecap:butt;stroke-linejoin:miter;stroke:#000;stroke-opacity:1;stroke-miterlimit:10" transform="matrix(1 0 0 -1 12.094 50.533)"/></g><g clip-path="url(#d)"><path d="m63.496-113.389-2.488 9.965h2.488l-2.488 9.96h2.488l-2.488 9.966h2.488l-2.488 9.96h2.488v5.505h49.89v-45.356Zm0 0" style="fill:none;stroke-width:.3985;stroke-linecap:butt;stroke-linejoin:miter;stroke:#000;stroke-opacity:1;stroke-miterlimit:10" transform="matrix(1 0 0 -1 12.094 50.533)"/></g><path d="M8.62-103.373c0 3.258-.816 5.472-1.82 4.953-1.003-.524-1.816-3.586-1.816-6.84.004-3.258.817-5.473 1.82-4.953.766.398 1.45 2.305 1.707 4.766" style="fill:none;stroke-width:.3985;stroke-linecap:butt;stroke-linejoin:miter;stroke:#000;stroke-opacity:1;stroke-miterlimit:10" transform="matrix(1 0 0 -1 12.094 50.533)"/><path d="m6.804-104.319 3.383-.175" style="fill:none;stroke-width:.79701;stroke-linecap:butt;stroke-linejoin:miter;stroke:#000;stroke-opacity:1;stroke-miterlimit:10" transform="matrix(1 0 0 -1 12.094 50.533)"/><path d="m24.867 155.164-4.031-2.289 1.445 2.152-1.664 1.989" style="stroke:none;fill-rule:nonzero;fill:#000;fill-opacity:1"/><path d="M8.363-89.381c-.734 3.172-2.027 5.148-2.887 4.414-.863-.734-.965-3.898-.23-7.07.73-3.172 2.023-5.149 2.887-4.418.656.558.89 2.57.59 5.031" style="fill:none;stroke-width:.3985;stroke-linecap:butt;stroke-linejoin:miter;stroke:#000;stroke-opacity:1;stroke-miterlimit:10" transform="matrix(1 0 0 -1 12.094 50.533)"/><path d="m6.804-90.71 3.332.587" style="fill:none;stroke-width:.79701;stroke-linecap:butt;stroke-linejoin:miter;stroke:#000;stroke-opacity:1;stroke-miterlimit:10" transform="matrix(1 0 0 -1 12.094 50.533)"/><path d="m24.785 140.207-4.445-1.324 1.89 1.773-1.171 2.313" style="stroke:none;fill-rule:nonzero;fill:#000;fill-opacity:1"/><path d="M8.683-76.287c.227 3.246-.433 5.515-1.472 5.066-1.035-.453-2.063-3.45-2.285-6.7-.227-3.245.43-5.515 1.468-5.062.79.34 1.606 2.196 2.035 4.633" style="fill:none;stroke-width:.3985;stroke-linecap:butt;stroke-linejoin:miter;stroke:#000;stroke-opacity:1;stroke-miterlimit:10" transform="matrix(1 0 0 -1 12.094 50.533)"/><path d="m6.804-77.104 3.36-.414" style="fill:none;stroke-width:.79701;stroke-linecap:butt;stroke-linejoin:miter;stroke:#000;stroke-opacity:1;stroke-miterlimit:10" transform="matrix(1 0 0 -1 12.094 50.533)"/><path d="m24.832 128.363-3.863-2.562 1.289 2.25-1.797 1.867" style="stroke:none;fill-rule:nonzero;fill:#000;fill-opacity:1"/><path d="M20.008-103.47c.168 3.253-.532 5.507-1.559 5.042-1.031-.469-2.004-3.484-2.172-6.738-.168-3.25.531-5.504 1.559-5.04.785.36 1.566 2.223 1.953 4.673" style="fill:none;stroke-width:.3985;stroke-linecap:butt;stroke-linejoin:miter;stroke:#000;stroke-opacity:1;stroke-miterlimit:10" transform="matrix(1 0 0 -1 12.094 50.533)"/><path d="m18.14-104.319 3.368-.351" style="fill:none;stroke-width:.79701;stroke-linecap:butt;stroke-linejoin:miter;stroke:#000;stroke-opacity:1;stroke-miterlimit:10" transform="matrix(1 0 0 -1 12.094 50.533)"/><path d="m36.18 155.473-3.907-2.493 1.329 2.223-1.762 1.899" style="stroke:none;fill-rule:nonzero;fill:#000;fill-opacity:1"/><path d="M19.976-89.799c.055 3.258-.722 5.488-1.734 4.984-1.012-.504-1.879-3.55-1.934-6.808-.054-3.254.723-5.485 1.735-4.98.77.382 1.484 2.277 1.789 4.734" style="fill:none;stroke-width:.3985;stroke-linecap:butt;stroke-linejoin:miter;stroke:#000;stroke-opacity:1;stroke-miterlimit:10" transform="matrix(1 0 0 -1 12.094 50.533)"/><path d="m18.14-90.71 3.38-.237" style="fill:none;stroke-width:.79701;stroke-linecap:butt;stroke-linejoin:miter;stroke:#000;stroke-opacity:1;stroke-miterlimit:10" transform="matrix(1 0 0 -1 12.094 50.533)"/><path d="m36.2 141.66-3.993-2.36 1.406 2.18-1.695 1.958" style="stroke:none;fill-rule:nonzero;fill:#000;fill-opacity:1"/><path d="M19.832-75.944c-.399 3.23-1.477 5.332-2.41 4.692-.934-.64-1.368-3.778-.97-7.012.4-3.23 1.477-5.332 2.411-4.691.711.488 1.156 2.46 1.113 4.941" style="fill:none;stroke-width:.3985;stroke-linecap:butt;stroke-linejoin:miter;stroke:#000;stroke-opacity:1;stroke-miterlimit:10" transform="matrix(1 0 0 -1 12.094 50.533)"/><path d="m18.14-77.104 3.38.239" style="fill:none;stroke-width:.79701;stroke-linecap:butt;stroke-linejoin:miter;stroke:#000;stroke-opacity:1;stroke-miterlimit:10" transform="matrix(1 0 0 -1 12.094 50.533)"/><path d="m36.2 127.219-4.282-1.778 1.695 1.957-1.406 2.18" style="stroke:none;fill-rule:nonzero;fill:#000;fill-opacity:1"/><path d="M31.347-103.47c.168 3.253-.53 5.507-1.562 5.042-1.027-.469-2-3.484-2.168-6.738-.168-3.25.527-5.504 1.559-5.04.785.36 1.562 2.223 1.953 4.673" style="fill:none;stroke-width:.3985;stroke-linecap:butt;stroke-linejoin:miter;stroke:#000;stroke-opacity:1;stroke-miterlimit:10" transform="matrix(1 0 0 -1 12.094 50.533)"/><path d="m29.48-104.319 3.367-.351" style="fill:none;stroke-width:.79701;stroke-linecap:butt;stroke-linejoin:miter;stroke:#000;stroke-opacity:1;stroke-miterlimit:10" transform="matrix(1 0 0 -1 12.094 50.533)"/><path d="m47.52 155.473-3.907-2.493 1.328 2.223-1.761 1.899" style="stroke:none;fill-rule:nonzero;fill:#000;fill-opacity:1"/><path d="M31.402-89.994c.395 3.23-.144 5.53-1.207 5.136-1.059-.394-2.238-3.336-2.633-6.566-.394-3.234.145-5.531 1.203-5.137.809.301 1.715 2.11 2.274 4.524" style="fill:none;stroke-width:.3985;stroke-linecap:butt;stroke-linejoin:miter;stroke:#000;stroke-opacity:1;stroke-miterlimit:10" transform="matrix(1 0 0 -1 12.094 50.533)"/><path d="m29.48-90.71 3.332-.589" style="fill:none;stroke-width:.79701;stroke-linecap:butt;stroke-linejoin:miter;stroke:#000;stroke-opacity:1;stroke-miterlimit:10" transform="matrix(1 0 0 -1 12.094 50.533)"/><path d="m47.46 142.281-3.726-2.761 1.172 2.312-1.89 1.773" style="stroke:none;fill-rule:nonzero;fill:#000;fill-opacity:1"/><path d="M31.3-76.158c-.003 3.254-.82 5.472-1.824 4.949-1.004-.52-1.816-3.582-1.812-6.84 0-3.254.816-5.473 1.82-4.95.766.4 1.445 2.302 1.707 4.766" style="fill:none;stroke-width:.3985;stroke-linecap:butt;stroke-linejoin:miter;stroke:#000;stroke-opacity:1;stroke-miterlimit:10" transform="matrix(1 0 0 -1 12.094 50.533)"/><path d="m29.48-77.104 3.383-.175" style="fill:none;stroke-width:.79701;stroke-linecap:butt;stroke-linejoin:miter;stroke:#000;stroke-opacity:1;stroke-miterlimit:10" transform="matrix(1 0 0 -1 12.094 50.533)"/><path d="m47.543 127.95-4.031-2.286 1.445 2.148-1.66 1.989" style="stroke:none;fill-rule:nonzero;fill:#000;fill-opacity:1"/><path d="M42.547-103.217c-.286 3.242-1.29 5.379-2.243 4.773-.957-.609-1.5-3.73-1.214-6.972.285-3.242 1.293-5.38 2.246-4.774.726.461 1.242 2.418 1.285 4.899" style="fill:none;stroke-width:.3985;stroke-linecap:butt;stroke-linejoin:miter;stroke:#000;stroke-opacity:1;stroke-miterlimit:10" transform="matrix(1 0 0 -1 12.094 50.533)"/><path d="m40.82-104.319 3.383.122" style="fill:none;stroke-width:.79701;stroke-linecap:butt;stroke-linejoin:miter;stroke:#000;stroke-opacity:1;stroke-miterlimit:10" transform="matrix(1 0 0 -1 12.094 50.533)"/><path d="m58.887 154.64-4.215-1.925 1.625 2.015-1.48 2.125" style="stroke:none;fill-rule:nonzero;fill:#000;fill-opacity:1"/><path d="M42.488-89.522c-.453 3.223-1.57 5.305-2.492 4.649-.922-.656-1.3-3.801-.844-7.024.453-3.226 1.57-5.308 2.492-4.652.7.5 1.11 2.484 1.024 4.957" style="fill:none;stroke-width:.3985;stroke-linecap:butt;stroke-linejoin:miter;stroke:#000;stroke-opacity:1;stroke-miterlimit:10" transform="matrix(1 0 0 -1 12.094 50.533)"/><path d="m40.82-90.71 3.371.294" style="fill:none;stroke-width:.79701;stroke-linecap:butt;stroke-linejoin:miter;stroke:#000;stroke-opacity:1;stroke-miterlimit:10" transform="matrix(1 0 0 -1 12.094 50.533)"/><path d="m58.867 140.723-4.312-1.703 1.73 1.93-1.367 2.198" style="stroke:none;fill-rule:nonzero;fill:#000;fill-opacity:1"/><path d="M42.683-76.256c.168 3.25-.527 5.508-1.558 5.039-1.032-.469-2-3.484-2.172-6.734-.168-3.25.531-5.508 1.562-5.04.782.356 1.563 2.223 1.953 4.672" style="fill:none;stroke-width:.3985;stroke-linecap:butt;stroke-linejoin:miter;stroke:#000;stroke-opacity:1;stroke-miterlimit:10" transform="matrix(1 0 0 -1 12.094 50.533)"/><path d="m40.82-77.104 3.367-.355" style="fill:none;stroke-width:.79701;stroke-linecap:butt;stroke-linejoin:miter;stroke:#000;stroke-opacity:1;stroke-miterlimit:10" transform="matrix(1 0 0 -1 12.094 50.533)"/><path d="m58.86 128.262-3.91-2.496 1.331 2.226-1.761 1.899" style="stroke:none;fill-rule:nonzero;fill:#000;fill-opacity:1"/><path d="M69.816-103.31c-.113 3.253-1.008 5.44-1.992 4.886-.984-.559-1.691-3.645-1.574-6.898.113-3.254 1.008-5.442 1.992-4.887.75.426 1.363 2.351 1.539 4.824" style="fill:none;stroke-width:.3985;stroke-linecap:butt;stroke-linejoin:miter;stroke:#000;stroke-opacity:1;stroke-miterlimit:10" transform="matrix(1 0 0 -1 12.094 50.533)"/><path d="m68.031-104.319 3.387-.058" style="fill:none;stroke-width:.79701;stroke-linecap:butt;stroke-linejoin:miter;stroke:#000;stroke-opacity:1;stroke-miterlimit:10" transform="matrix(1 0 0 -1 12.094 50.533)"/><path d="m86.102 154.953-4.106-2.144 1.516 2.101-1.59 2.043" style="stroke:none;fill-rule:nonzero;fill:#000;fill-opacity:1"/><path d="M69.941-89.963c.336 3.238-.242 5.531-1.297 5.117-1.05-.414-2.18-3.375-2.52-6.613-.335-3.238.243-5.528 1.294-5.113.804.312 1.68 2.136 2.195 4.562" style="fill:none;stroke-width:.3985;stroke-linecap:butt;stroke-linejoin:miter;stroke:#000;stroke-opacity:1;stroke-miterlimit:10" transform="matrix(1 0 0 -1 12.094 50.533)"/><path d="m68.031-90.71 3.344-.53" style="fill:none;stroke-width:.79701;stroke-linecap:butt;stroke-linejoin:miter;stroke:#000;stroke-opacity:1;stroke-miterlimit:10" transform="matrix(1 0 0 -1 12.094 50.533)"/><path d="m86.031 142.18-3.773-2.7 1.21 2.293-1.863 1.805" style="stroke:none;fill-rule:nonzero;fill:#000;fill-opacity:1"/><path d="M69.781-76.033c-.23 3.246-1.195 5.402-2.164 4.808-.965-.59-1.563-3.699-1.332-6.945.23-3.25 1.195-5.402 2.16-4.813.734.45 1.285 2.395 1.371 4.871" style="fill:none;stroke-width:.3985;stroke-linecap:butt;stroke-linejoin:miter;stroke:#000;stroke-opacity:1;stroke-miterlimit:10" transform="matrix(1 0 0 -1 12.094 50.533)"/><path d="m68.031-77.104 3.387.059" style="fill:none;stroke-width:.79701;stroke-linecap:butt;stroke-linejoin:miter;stroke:#000;stroke-opacity:1;stroke-miterlimit:10" transform="matrix(1 0 0 -1 12.094 50.533)"/><path d="m86.102 127.531-4.18-2 1.59 2.047-1.516 2.098" style="stroke:none;fill-rule:nonzero;fill:#000;fill-opacity:1"/><path d="M81.265-103.533c.282 3.242-.336 5.52-1.382 5.09-1.047-.434-2.122-3.41-2.407-6.657-.28-3.242.34-5.523 1.383-5.09.797.328 1.645 2.168 2.117 4.598" style="fill:none;stroke-width:.3985;stroke-linecap:butt;stroke-linejoin:miter;stroke:#000;stroke-opacity:1;stroke-miterlimit:10" transform="matrix(1 0 0 -1 12.094 50.533)"/><path d="m79.37-104.319 3.356-.468" style="fill:none;stroke-width:.79701;stroke-linecap:butt;stroke-linejoin:miter;stroke:#000;stroke-opacity:1;stroke-miterlimit:10" transform="matrix(1 0 0 -1 12.094 50.533)"/><path d="m97.383 155.684-3.813-2.633 1.25 2.27-1.828 1.835" style="stroke:none;fill-rule:nonzero;fill:#000;fill-opacity:1"/><path d="M80.996-89.463c-.567 3.203-1.754 5.246-2.652 4.558-.899-.687-1.165-3.843-.598-7.05.566-3.207 1.754-5.246 2.652-4.559.684.524 1.024 2.516.852 4.988" style="fill:none;stroke-width:.3985;stroke-linecap:butt;stroke-linejoin:miter;stroke:#000;stroke-opacity:1;stroke-miterlimit:10" transform="matrix(1 0 0 -1 12.094 50.533)"/><path d="m79.37-90.71 3.364.411" style="fill:none;stroke-width:.79701;stroke-linecap:butt;stroke-linejoin:miter;stroke:#000;stroke-opacity:1;stroke-miterlimit:10" transform="matrix(1 0 0 -1 12.094 50.533)"/><path d="m97.398 140.516-4.367-1.555 1.797 1.871-1.293 2.246" style="stroke:none;fill-rule:nonzero;fill:#000;fill-opacity:1"/><path d="M81.082-75.975c-.344 3.238-1.387 5.356-2.328 4.735-.946-.625-1.434-3.754-1.09-6.993.34-3.238 1.383-5.355 2.328-4.734.715.477 1.195 2.441 1.2 4.918" style="fill:none;stroke-width:.3985;stroke-linecap:butt;stroke-linejoin:miter;stroke:#000;stroke-opacity:1;stroke-miterlimit:10" transform="matrix(1 0 0 -1 12.094 50.533)"/><path d="m79.37-77.104 3.384.176" style="fill:none;stroke-width:.79701;stroke-linecap:butt;stroke-linejoin:miter;stroke:#000;stroke-opacity:1;stroke-miterlimit:10" transform="matrix(1 0 0 -1 12.094 50.533)"/><path d="m97.434 127.324-4.246-1.851 1.66 1.988-1.446 2.148" style="stroke:none;fill-rule:nonzero;fill:#000;fill-opacity:1"/><path d="M92.336-103.072c-.567 3.207-1.754 5.25-2.653 4.562-.898-.691-1.168-3.848-.597-7.05.566-3.208 1.754-5.25 2.652-4.563.684.523 1.023 2.52.852 4.992" style="fill:none;stroke-width:.3985;stroke-linecap:butt;stroke-linejoin:miter;stroke:#000;stroke-opacity:1;stroke-miterlimit:10" transform="matrix(1 0 0 -1 12.094 50.533)"/><path d="m90.71-104.319 3.36.415" style="fill:none;stroke-width:.79701;stroke-linecap:butt;stroke-linejoin:miter;stroke:#000;stroke-opacity:1;stroke-miterlimit:10" transform="matrix(1 0 0 -1 12.094 50.533)"/><path d="m108.738 154.121-4.367-1.55 1.793 1.867-1.289 2.246" style="stroke:none;fill-rule:nonzero;fill:#000;fill-opacity:1"/><path d="M92.511-89.733c-.058 3.254-.914 5.457-1.906 4.918-.996-.539-1.754-3.617-1.695-6.87.059-3.255.91-5.458 1.906-4.919.758.41 1.406 2.328 1.621 4.793" style="fill:none;stroke-width:.3985;stroke-linecap:butt;stroke-linejoin:miter;stroke:#000;stroke-opacity:1;stroke-miterlimit:10" transform="matrix(1 0 0 -1 12.094 50.533)"/><path d="m90.71-90.71 3.384-.12" style="fill:none;stroke-width:.79701;stroke-linecap:butt;stroke-linejoin:miter;stroke:#000;stroke-opacity:1;stroke-miterlimit:10" transform="matrix(1 0 0 -1 12.094 50.533)"/><path d="m108.777 141.453-4.07-2.219 1.48 2.13-1.624 2.015" style="stroke:none;fill-rule:nonzero;fill:#000;fill-opacity:1"/><path d="M92.476-76.065c-.172 3.25-1.101 5.422-2.078 4.848-.976-.574-1.625-3.672-1.453-6.926.172-3.25 1.102-5.422 2.078-4.847.742.437 1.32 2.375 1.453 4.847" style="fill:none;stroke-width:.3985;stroke-linecap:butt;stroke-linejoin:miter;stroke:#000;stroke-opacity:1;stroke-miterlimit:10" transform="matrix(1 0 0 -1 12.094 50.533)"/><path d="M90.71-77.104h3.387" style="fill:none;stroke-width:.79701;stroke-linecap:butt;stroke-linejoin:miter;stroke:#000;stroke-opacity:1;stroke-miterlimit:10" transform="matrix(1 0 0 -1 12.094 50.533)"/><path d="m108.781 127.637-4.144-2.075 1.554 2.075-1.554 2.07" style="stroke:none;fill-rule:nonzero;fill:#000;fill-opacity:1"/><path d="M103.61-102.987c-.735 3.172-2.028 5.149-2.891 4.415-.86-.735-.961-3.903-.231-7.075.734-3.172 2.027-5.148 2.89-4.414.653.559.891 2.57.59 5.028" style="fill:none;stroke-width:.3985;stroke-linecap:butt;stroke-linejoin:miter;stroke:#000;stroke-opacity:1;stroke-miterlimit:10" transform="matrix(1 0 0 -1 12.094 50.533)"/><path d="m102.05-104.319 3.333.59" style="fill:none;stroke-width:.79701;stroke-linecap:butt;stroke-linejoin:miter;stroke:#000;stroke-opacity:1;stroke-miterlimit:10" transform="matrix(1 0 0 -1 12.094 50.533)"/><path d="m120.031 153.813-4.449-1.325 1.895 1.774-1.172 2.312" style="stroke:none;fill-rule:nonzero;fill:#000;fill-opacity:1"/><path d="M103.867-89.768c0 3.258-.816 5.473-1.82 4.953-1.004-.523-1.817-3.582-1.817-6.84.004-3.253.817-5.472 1.82-4.949.766.395 1.45 2.301 1.708 4.766" style="fill:none;stroke-width:.3985;stroke-linecap:butt;stroke-linejoin:miter;stroke:#000;stroke-opacity:1;stroke-miterlimit:10" transform="matrix(1 0 0 -1 12.094 50.533)"/><path d="m102.05-90.71 3.38-.179" style="fill:none;stroke-width:.79701;stroke-linecap:butt;stroke-linejoin:miter;stroke:#000;stroke-opacity:1;stroke-miterlimit:10" transform="matrix(1 0 0 -1 12.094 50.533)"/><path d="m120.113 141.555-4.031-2.285 1.441 2.152-1.66 1.988" style="stroke:none;fill-rule:nonzero;fill:#000;fill-opacity:1"/><path d="M103.957-76.354c.336 3.239-.242 5.528-1.293 5.114-1.055-.415-2.184-3.375-2.524-6.614-.336-3.238.243-5.527 1.297-5.113.801.316 1.676 2.14 2.196 4.563" style="fill:none;stroke-width:.3985;stroke-linecap:butt;stroke-linejoin:miter;stroke:#000;stroke-opacity:1;stroke-miterlimit:10" transform="matrix(1 0 0 -1 12.094 50.533)"/><path d="m102.05-77.104 3.34-.527" style="fill:none;stroke-width:.79701;stroke-linecap:butt;stroke-linejoin:miter;stroke:#000;stroke-opacity:1;stroke-miterlimit:10" transform="matrix(1 0 0 -1 12.094 50.533)"/><path d="m120.047 128.57-3.774-2.695 1.211 2.29-1.859 1.808" style="stroke:none;fill-rule:nonzero;fill:#000;fill-opacity:1"/><use xlink:href="#a" x="4.982" y="144.332" style="fill:#000;fill-opacity:1"/><path d="M59.887 144.332h6.91v-6.176h-6.91Zm0 0" style="stroke:none;fill-rule:nonzero;fill:#fff;fill-opacity:1"/><use xlink:href="#b" x="59.885" y="144.332" style="fill:#000;fill-opacity:1"/><path d="M70.781 144.332h5.117v-6.176h-5.117Zm0 0" style="stroke:none;fill-rule:nonzero;fill:#fff;fill-opacity:1"/><use xlink:href="#a" x="70.78" y="144.332" style="fill:#000;fill-opacity:1"/><use xlink:href="#b" x="127.474" y="144.332" style="fill:#000;fill-opacity:1"/></svg>