<svg xmlns="http://www.w3.org/2000/svg" xmlns:xlink="http://www.w3.org/1999/xlink" width="165.533" height="219.44" viewBox="0 0 124.15 164.58"><defs><symbol id="a" overflow="visible"><path d="M6.047-2.047c.172 0 .344 0 .344-.203 0-.188-.188-.188-.344-.188H1.109c-.156 0-.343 0-.343.188 0 .203.171.203.343.203Zm0 0" style="stroke:none"/></symbol><symbol id="b" overflow="visible"><path d="M7.625-2.047c-1.063.75-1.281 1.938-1.281 2.031 0 .125.125.125.187.125.11 0 .172 0 .203-.125.25-1.046.86-1.75 1.844-2.109.047-.016.125-.047.125-.125s-.062-.094-.125-.125c-1.125-.422-1.64-1.219-1.844-2.094-.03-.125-.062-.125-.203-.125-.078 0-.187 0-.187.125 0 .094.218 1.282 1.281 2.032H.844c-.156 0-.328 0-.328.187 0 .203.171.203.328.203Zm0 0" style="stroke:none"/></symbol><symbol id="c" overflow="visible"><path d="M3.484-1.078c0 .156 0 .187-.125.375a1.3 1.3 0 0 1-1.046.578c-.391 0-.75-.219-.985-.594-.234-.39-.25-.906-.25-1.203 0-.422.047-.89.281-1.25a1.262 1.262 0 0 1 1.047-.562c.375 0 .735.187.969.53.11.142.11.142.11.313Zm.032-2.36c-.047-.046-.454-.53-1.141-.53-1.11 0-2.063.89-2.063 2.046 0 1.11.891 2.016 1.954 2.016A1.59 1.59 0 0 0 3.484-.47v.563L4.844 0v-.281c-.61 0-.688-.063-.688-.5V-6.22l-1.328.094v.281c.61 0 .688.063.688.5Zm0 0" style="stroke:none"/></symbol><symbol id="d" overflow="visible"><path d="M1.469-.688c-.094.329-.11.407-.782.407-.171 0-.265 0-.265.172C.422 0 .516 0 .672 0h3.265c1.454 0 2.516-1.063 2.516-1.922 0-.64-.531-1.187-1.406-1.281 1.016-.203 1.89-.875 1.89-1.672 0-.703-.656-1.25-1.718-1.25H2.156c-.172 0-.265 0-.265.156 0 .125.078.125.265.125.031 0 .188 0 .344.016.14.016.203.031.203.14 0 .032 0 .079-.031.172Zm1.39-2.609L3.406-5.5c.078-.328.094-.344.485-.344h1.203c.937 0 1.015.703 1.015.922 0 .813-.828 1.625-1.843 1.625ZM2.438-.28H2.25c-.094-.016-.11-.031-.11-.094 0-.016 0-.031.032-.203l.625-2.5h1.687c.563 0 1.125.25 1.125 1.062 0 .891-.812 1.735-1.89 1.735Zm0 0" style="stroke:none"/></symbol><symbol id="f" overflow="visible"><path d="M1.25-.766c.188-.218.672-.671 1.063-1 .671-.562.874-.75.984-.875.734-.718.984-1.171.984-1.218 0-.016 0-.11-.125-.11-.078 0-.093.031-.14.11-.11.171-.36.562-.657.562-.187 0-.296-.11-.5-.328-.218-.234-.39-.344-.625-.344-.687 0-1.109.828-1.109 1.047 0 .031.016.11.11.11.093 0 .124-.063.124-.079.172-.437.704-.437.782-.437.203 0 .421.062.609.14.36.11.516.11.656.11-.281.312-.781.75-1.36 1.234-.437.375-.718.657-.921.844-.328.36-.734.906-.734 1 0 .063.046.094.125.094.078 0 .093-.032.14-.078.344-.547.688-.579.781-.579.22 0 .344.125.547.36.204.234.407.297.579.297.921 0 1.468-1.14 1.468-1.39 0-.079-.062-.11-.125-.11-.094 0-.11.062-.125.11-.25.655-.89.765-1.125.765-.156 0-.344-.047-.61-.14-.187-.048-.39-.126-.577-.126-.094 0-.188.031-.219.031Zm0 0" style="stroke:none"/></symbol><symbol id="g" overflow="visible"><path d="M3.422-5.5c.047-.219.078-.313.234-.344h.563c.718 0 1.703 0 1.703.907 0 .328-.14 1-.64 1.39-.22.14-.673.375-1.391.375H2.828Zm1.39 2.453c1.22-.312 1.97-.984 1.97-1.719 0-.78-.86-1.359-2.048-1.359H2.141c-.172 0-.282 0-.282.156 0 .125.094.125.282.125.03 0 .187 0 .328.016.156.016.219.031.219.14 0 .032 0 .079-.032.172L1.437-.687c-.078.328-.093.406-.765.406-.172 0-.266 0-.266.172C.406-.016.47 0 .531 0c.156 0 .422-.016.578-.016.188-.015.204-.015.547-.015.297 0 .313 0 .578.015.172 0 .407.016.579.016.062 0 .171 0 .171-.156 0-.125-.093-.125-.28-.125-.032 0-.188 0-.329-.016-.203-.031-.219-.062-.219-.14 0-.032 0-.047.047-.204l.578-2.312h1.11c.796 0 1 .469 1 .812 0 .063 0 .125-.047.313-.219.828-.219.906-.219 1.047 0 .812.766.984 1.219.984.781 0 1.11-.906 1.11-1.062 0-.063-.063-.094-.126-.094-.094 0-.094.031-.14.14-.157.47-.485.782-.813.782-.344 0-.36-.266-.36-.531 0-.22.063-.735.079-.797.015-.141.062-.5.062-.641 0-.516-.328-.86-.843-1.047Zm0 0" style="stroke:none"/></symbol><symbol id="j" overflow="visible"><path d="M.875-1.25c.11.828.438 1.36 1.047 1.36.547 0 1.094-.485 1.422-.782.015-.015.031-.031.031-.094 0-.046-.063-.125-.125-.125-.031 0-.047 0-.125.079-.578.546-.89.703-1.188.703-.125 0-.328 0-.453-.407a2.796 2.796 0 0 1-.109-.78c0-.141 0-.313.047-.47 0 0 0-.015.172-.187.39-.406.906-.984 1.265-1.531.704-1.079.766-1.875.766-2.125 0-.313-.078-.72-.547-.72-.406 0-.703.376-.828.532C1.422-4.766.844-2.875.844-1.719c0 .047 0 .11.015.157-.218.187-.421.375-.625.578C.22-.97.156-.906.125-.891c-.016.032-.031.063-.031.094s.031.14.11.14c.077 0 .421-.343.515-.452Zm.594-.938c.062-.359.375-1.734.672-2.53.109-.282.515-1.376.953-1.376.25 0 .297.235.297.453 0 .141-.032.704-.391 1.438-.531 1.047-1.516 2.016-1.531 2.016Zm0 0" style="stroke:none"/></symbol><symbol id="l" overflow="visible"><path d="M3.625-3.625a.523.523 0 0 0-.453.484c0 .172.125.329.36.329.234 0 .484-.204.484-.547 0-.344-.329-.61-.766-.61-.672 0-1.047.5-1.172.672-.11-.484-.515-.672-.844-.672-.328 0-.53.203-.687.516a3.399 3.399 0 0 0-.281.875c0 .078.062.11.125.11.093 0 .109-.048.156-.235.172-.703.36-1.031.656-1.031.281 0 .281.28.281.421 0 .188-.078.454-.125.688-.062.234-.156.625-.187.734L.812-.42C.75-.204.75-.189.75-.157c0 .11.078.25.266.25.296 0 .359-.235.421-.5.11-.39.11-.406.188-.766.344-1.344.39-1.562.406-1.61.063-.109.469-.952 1.219-.952.203 0 .328.062.375.109Zm0 0" style="stroke:none"/></symbol><symbol id="n" overflow="visible"><path d="M4.375-2.922c.047-.234.156-.64.156-.687 0-.11-.078-.25-.281-.25a.402.402 0 0 0-.328.187c-.031.078-.64 2.516-.703 2.813-.188.328-.547.734-1.047.734-.547 0-.547-.563-.547-.734 0-.407.11-.844.5-1.844.078-.219.125-.344.125-.5a.739.739 0 0 0-.766-.766c-.859 0-1.218 1.281-1.218 1.39 0 .079.062.11.125.11.093 0 .109-.062.14-.172.188-.656.531-1.093.922-1.093.188 0 .219.125.219.296 0 .141-.047.313-.125.516-.422 1.125-.531 1.5-.531 1.922 0 1 .812 1.094 1.14 1.094.5 0 .875-.313 1.094-.594.172.594.766.594.813.594.265 0 .484-.125.671-.469.157-.297.297-.875.297-.906 0-.047-.031-.11-.11-.11-.109 0-.124.047-.155.22-.188.702-.375 1.046-.672 1.046-.219 0-.282-.188-.282-.406 0-.172.047-.36.126-.672l.218-.922Zm0 0" style="stroke:none"/></symbol><symbol id="o" overflow="visible"><path d="M4.172-4.438c0-.921-.297-1.89-1.125-1.89-1.313 0-2.672 2.562-2.672 4.547C.375-1.125.563.094 1.5.094c1.313 0 2.672-2.531 2.672-4.532ZM1.344-3.25c.187-.719.375-1.375.734-1.984.219-.36.547-.86.969-.86.484 0 .515.766.515 1.11 0 .53-.14 1.156-.28 1.734Zm1.86.281c-.142.563-.313 1.235-.673 1.875-.234.422-.594.969-1.031.969-.375 0-.5-.469-.5-1.125 0-.578.14-1.156.281-1.719Zm0 0" style="stroke:none"/></symbol><symbol id="p" overflow="visible"><path d="M3.422-5.422c.078-.344.11-.422.828-.422.172 0 .266 0 .266-.172 0-.093-.094-.109-.141-.109-.188 0-.39.016-.578.016-.203 0-.547.015-.61.015-.203 0-.406-.015-.609-.015-.187 0-.406-.016-.594-.016-.046 0-.171 0-.171.156 0 .125.093.125.265.125.203 0 .406 0 .578.063a.275.275 0 0 1 .016.093c0 .032-.016.125-.016.157L1.437-.688c-.078.313-.093.407-.796.407-.188 0-.297 0-.297.172 0 .03.031.109.14.109.172 0 .375-.016.563-.016.203 0 .422-.015.625-.015s.406.015.61.015c.187 0 .405.016.593.016.063 0 .172 0 .172-.156 0-.125-.094-.125-.266-.125-.344 0-.61 0-.61-.156 0-.063 0-.079.048-.204Zm0 0" style="stroke:none"/></symbol><symbol id="e" overflow="visible"><path d="M1.125-.531c.188-.188.406-.36.719-.594.406-.313.64-.5.906-.734.344-.313.563-.641.563-.704 0-.078-.079-.078-.11-.078-.062 0-.078.016-.11.079-.109.156-.28.343-.468.343-.14 0-.266-.11-.344-.172-.156-.14-.297-.25-.515-.25-.5 0-.844.532-.844.704 0 .078.047.093.11.093.077 0 .093-.031.124-.078.078-.219.407-.234.532-.234.156 0 .312.031.437.062.297.063.375.063.5.063-.14.14-.281.265-.672.562-.484.375-.656.5-.906.735-.313.28-.594.625-.594.703 0 .093.078.093.11.093C.625.063.64.048.671 0c.234-.313.469-.36.562-.36.141 0 .25.079.36.172.172.141.297.25.515.25.672 0 1.094-.734 1.094-.953 0-.046-.062-.078-.11-.078-.093 0-.109.031-.124.094-.11.328-.516.453-.797.453-.14 0-.281-.031-.438-.062-.171-.032-.328-.063-.468-.063-.032 0-.079 0-.141.016Zm0 0" style="stroke:none"/></symbol><symbol id="k" overflow="visible"><path d="M5.75-4.453c0-.89-.922-1.672-2.172-1.672H.36v.281h.204c.687 0 .718.094.718.422v4.719c0 .328-.031.422-.718.422H.359V0c.407-.031.907-.031 1.313-.031.422 0 .922 0 1.328.031v-.281h-.203c-.703 0-.719-.094-.719-.422v-2.11h1.5c1.25 0 2.172-.78 2.172-1.64Zm-.922 0c0 .406 0 1.39-1.484 1.39H2.047v-2.421c0-.297.031-.36.453-.36h.86c1.468 0 1.468.985 1.468 1.39Zm0 0" style="stroke:none"/></symbol><symbol id="m" overflow="visible"><path d="M8.047 0v-.281h-.203c-.688 0-.703-.094-.703-.422v-4.719c0-.328.015-.422.703-.422h.203v-.281h-1.5c-.188 0-.25 0-.313.156L4.22-.875l-2-5.047c-.078-.187-.078-.203-.328-.203H.39v.281h.203c.687 0 .703.094.703.422v4.469c0 .25 0 .672-.906.672V0C.875-.016 1-.031 1.437-.031c.438 0 .579.015 1.063.031v-.281c-.922 0-.922-.422-.922-.672V-5.75l.016-.016L3.797-.203c.047.125.078.203.187.203.094 0 .141-.078.172-.156l2.25-5.672v5.125c0 .328-.015.422-.703.422H5.5V0c.531-.031 1.14-.031 1.266-.031.062 0 .718 0 1.28.031Zm0 0" style="stroke:none"/></symbol><clipPath id="h"><path d="M0 111h124.148v47H0Zm0 0"/></clipPath><clipPath id="i"><path d="M0 123h124.148v40H0Zm0 0"/></clipPath></defs><path d="M.001 0v99.214" style="fill:none;stroke-width:.3985;stroke-linecap:butt;stroke-linejoin:miter;stroke:gray;stroke-opacity:1;stroke-miterlimit:10" transform="matrix(1 0 0 -1 62.073 134.472)"/><path d="M.001 85.042v11.934" style="fill:none;stroke-width:1.59404;stroke-linecap:round;stroke-linejoin:miter;stroke:#369;stroke-opacity:1;stroke-miterlimit:10" transform="matrix(1 0 0 -1 62.073 134.472)"/><path d="m62.074 33.707-3.031 6.059 3.031-2.27 3.028 2.27" style="stroke:none;fill-rule:nonzero;fill:#369;fill-opacity:1"/><use xlink:href="#a" x="64.066" y="31.766" style="fill:#369;fill-opacity:1"/><use xlink:href="#a" x="67.656" y="31.766" style="fill:#369;fill-opacity:1"/><use xlink:href="#b" x="71.246" y="31.766" style="fill:#369;fill-opacity:1"/><use xlink:href="#c" x="64.066" y="37.993" style="fill:#369;fill-opacity:1"/><use xlink:href="#d" x="69.185" y="37.993" style="fill:#369;fill-opacity:1"/><use xlink:href="#e" x="76.159" y="38.989" style="fill:#369;fill-opacity:1"/><path d="M28.345 100.765c0 4.695-12.688 8.504-28.344 8.504s-28.347-3.809-28.347-8.504c0-4.7 12.691-8.508 28.347-8.508s28.344 3.809 28.344 8.508ZM.001 100.765l-24.55-4.254" style="fill:none;stroke-width:.3985;stroke-linecap:butt;stroke-linejoin:miter;stroke:#000;stroke-opacity:1;stroke-dasharray:.3985,.99628;stroke-miterlimit:10" transform="matrix(1 0 0 -1 62.073 134.472)"/><path d="M.001 99.214v26.356" style="fill:none;stroke-width:.3985;stroke-linecap:butt;stroke-linejoin:miter;stroke:gray;stroke-opacity:1;stroke-miterlimit:10" transform="matrix(1 0 0 -1 62.073 134.472)"/><path d="m62.074 6.91-1.594 3.188 1.594-1.196 1.594 1.196" style="stroke:none;fill-rule:nonzero;fill:gray;fill-opacity:1"/><use xlink:href="#f" x="64.066" y="8.842" style="fill:gray;fill-opacity:1"/><path d="M-49.096-8.505 0 0" style="fill:none;stroke-width:.3985;stroke-linecap:butt;stroke-linejoin:miter;stroke:gray;stroke-opacity:1;stroke-miterlimit:10" transform="matrix(1 0 0 -1 62.073 134.472)"/><path d="M43.824 140.086h7.035v-6.125h-7.035Zm0 0" style="stroke:none;fill-rule:nonzero;fill:#fff;fill-opacity:1"/><use xlink:href="#g" x="43.825" y="140.087" style="fill:gray;fill-opacity:1"/><g clip-path="url(#h)"><path d="M56.693 0C56.693 9.393 31.31 17.006 0 17.006-31.31 17.007-56.694 9.394-56.694 0c0-9.394 25.383-17.007 56.695-17.007 31.309 0 56.692 7.613 56.692 17.007Zm0 0" style="fill:none;stroke-width:.3985;stroke-linecap:butt;stroke-linejoin:miter;stroke:#000;stroke-opacity:1;stroke-miterlimit:10" transform="matrix(1 0 0 -1 62.073 134.472)"/></g><path d="M-49.096-8.505c2.472-1.285 5.507-2.472 7.093-2.949" style="fill:none;stroke-width:.3985;stroke-linecap:butt;stroke-linejoin:miter;stroke:#000;stroke-opacity:1;stroke-miterlimit:10" transform="matrix(1 0 0 -1 62.073 134.472)"/><path d="m21.984 146.5-2.601-2.45.687 1.876-1.605 1.183" style="stroke:none;fill-rule:nonzero;fill:#000;fill-opacity:1"/><g clip-path="url(#i)"><path d="M-56.694 0c0-9.395 25.383-17.008 56.695-17.008 31.309 0 56.692 7.613 56.692 17.007" style="fill:none;stroke-width:.79701;stroke-linecap:butt;stroke-linejoin:miter;stroke:#000;stroke-opacity:1;stroke-miterlimit:10" transform="matrix(1 0 0 -1 62.073 134.472)"/></g><path d="m70.773 151.281-4.238-1.879 1.649 2-1.457 2.141" style="stroke:none;fill-rule:nonzero;fill:#000;fill-opacity:1"/><path d="M-49.096-10.497v3.985m0-1.993L0 85.042" style="fill:none;stroke-width:.3985;stroke-linecap:butt;stroke-linejoin:miter;stroke:#000;stroke-opacity:1;stroke-miterlimit:10" transform="matrix(1 0 0 -1 62.073 134.472)"/><use xlink:href="#a" x="8.367" y="151.295" style="fill:#000;fill-opacity:1"/><use xlink:href="#b" x="8.371" y="151.295" style="fill:#000;fill-opacity:1"/><use xlink:href="#c" x="8.512" y="157.522" style="fill:#000;fill-opacity:1"/><use xlink:href="#j" x="13.632" y="157.522" style="fill:#000;fill-opacity:1"/><use xlink:href="#k" x="9.839" y="138.991" style="fill:#000;fill-opacity:1"/><use xlink:href="#l" x="31.117" y="98.134" style="fill:#000;fill-opacity:1"/><use xlink:href="#m" x="64.066" y="52.52" style="fill:#000;fill-opacity:1"/><path d="m-49.096-8.505 13.8 26.297" style="fill:none;stroke-width:.3985;stroke-linecap:butt;stroke-linejoin:miter;stroke:#000;stroke-opacity:1;stroke-miterlimit:10" transform="matrix(1 0 0 -1 62.073 134.472)"/><path d="M27.703 114.914 24.805 117l1.972-.32.856 1.804" style="stroke:none;fill-rule:nonzero;fill:#000;fill-opacity:1"/><use xlink:href="#a" x="22.332" y="128.683" style="fill:#000;fill-opacity:1"/><use xlink:href="#b" x="22.336" y="128.683" style="fill:#000;fill-opacity:1"/><use xlink:href="#n" x="24.288" y="132.544" style="fill:#000;fill-opacity:1"/><path d="m.001 85.042-21.11 9.864" style="fill:none;stroke-width:1.59404;stroke-linecap:round;stroke-linejoin:miter;stroke:#369;stroke-opacity:1;stroke-miterlimit:10" transform="matrix(1 0 0 -1 62.073 134.472)"/><path d="m37.523 37.96 4.22 5.325-.778-3.719 3.347-1.785" style="stroke:none;fill-rule:nonzero;fill:#369;fill-opacity:1"/><use xlink:href="#a" x="31.254" y="48.272" style="fill:#369;fill-opacity:1"/><use xlink:href="#b" x="34.584" y="48.272" style="fill:#369;fill-opacity:1"/><use xlink:href="#c" x="31.254" y="54.499" style="fill:#369;fill-opacity:1"/><use xlink:href="#d" x="36.373" y="54.499" style="fill:#369;fill-opacity:1"/><path d="M.001 70.867c-2.32 0-4.605.57-6.656 1.66" style="fill:none;stroke-width:.3985;stroke-linecap:butt;stroke-linejoin:miter;stroke:#000;stroke-opacity:1;stroke-miterlimit:10" transform="matrix(1 0 0 -1 62.073 134.472)"/><use xlink:href="#o" x="56.12" y="71.341" style="fill:#000;fill-opacity:1"/><path d="m-4.397 87.378-2.34-4.398 4.398-2.336" style="fill:none;stroke-width:.3985;stroke-linecap:butt;stroke-linejoin:miter;stroke:#000;stroke-opacity:1;stroke-miterlimit:10" transform="matrix(1 0 0 -1 62.073 134.472)"/><use xlink:href="#p" x="59.708" y="159.6" style="fill:#000;fill-opacity:1"/></svg>