<svg xmlns="http://www.w3.org/2000/svg" xmlns:xlink="http://www.w3.org/1999/xlink" width="205.573" height="157.6" viewBox="0 0 154.18 118.2"><defs><clipPath id="a"><path d="M0 45h154.18v50H0Zm0 0"/></clipPath><symbol id="b" overflow="visible"><path d="M3.422-5.422c.078-.344.11-.422.828-.422.172 0 .266 0 .266-.172 0-.093-.094-.109-.141-.109-.188 0-.39.016-.578.016-.203 0-.547.015-.61.015-.203 0-.406-.015-.609-.015-.187 0-.406-.016-.594-.016-.046 0-.171 0-.171.156 0 .125.093.125.265.125.203 0 .406 0 .578.063a.275.275 0 0 1 .016.093c0 .032-.016.125-.016.157L1.437-.688c-.078.313-.093.407-.796.407-.188 0-.297 0-.297.172 0 .03.031.109.14.109.172 0 .375-.016.563-.016.203 0 .422-.015.625-.015s.406.015.61.015c.187 0 .405.016.593.016.063 0 .172 0 .172-.156 0-.125-.094-.125-.266-.125-.344 0-.61 0-.61-.156 0-.063 0-.079.048-.204Zm0 0" style="stroke:none"/></symbol></defs><path d="M.002-42.52V0" style="fill:none;stroke-width:1.59404;stroke-linecap:butt;stroke-linejoin:miter;stroke:#000;stroke-opacity:1;stroke-miterlimit:10" transform="matrix(1 0 0 -1 77.092 69.902)"/><path d="M5.18 88.664h106.3l37.524-37.523h-106.3Zm0 0" style="stroke:none;fill-rule:nonzero;fill:#fff;fill-opacity:1"/><path d="M5.18 88.664h106.3l37.524-37.523h-106.3Zm0 0" style="stroke:none;fill-rule:nonzero;fill:#ffe6bf;fill-opacity:.75"/><g clip-path="url(#a)"><path d="M-71.912-18.762h106.3L71.912 18.76h-106.3Zm0 0" style="fill:none;stroke-width:.3985;stroke-linecap:butt;stroke-linejoin:miter;stroke:#000;stroke-opacity:.75;stroke-miterlimit:10" transform="matrix(1 0 0 -1 77.092 69.902)"/></g><path d="M-34.389 18.761h106.3M-34.389 18.761l-37.523-37.523M-34.389 18.761h106.3M-23.76 18.761l-37.523-37.523M-34.389 18.761h106.3M-13.127 18.761l-37.524-37.523M-34.389 18.761h106.3M-2.498 18.761l-37.524-37.523M-34.389 18.761h106.3M8.13 18.761l-37.523-37.523M-34.389 18.761h106.3M18.763 18.761-18.76-18.762M-34.389 18.761h106.3M29.392 18.761-8.13-18.762M-34.389 18.761h106.3M40.021 18.761 2.498-18.762M-34.389 18.761h106.3M50.65 18.761 13.127-18.762M-34.389 18.761h106.3M61.283 18.761 23.76-18.762M-34.389 18.761h106.3M71.912 18.761 34.388-18.762M-38.139 15.011H68.158M-34.389 18.761l-37.523-37.523M-38.139 15.011H68.158M-23.76 18.761l-37.523-37.523M-38.139 15.011H68.158M-13.127 18.761l-37.524-37.523M-38.139 15.011H68.158M-2.498 18.761l-37.524-37.523M-38.139 15.011H68.158M8.13 18.761l-37.523-37.523M-38.139 15.011H68.158M18.763 18.761-18.76-18.762M-38.139 15.011H68.158M29.392 18.761-8.13-18.762M-38.139 15.011H68.158M40.021 18.761 2.498-18.762M-38.139 15.011H68.158M50.65 18.761 13.127-18.762M-38.139 15.011H68.158M61.283 18.761 23.76-18.762M-38.139 15.011H68.158M71.912 18.761 34.388-18.762M-41.893 11.257H64.408M-34.389 18.761l-37.523-37.523M-41.893 11.257H64.408M-23.76 18.761l-37.523-37.523M-41.893 11.257H64.408M-13.127 18.761l-37.524-37.523M-41.893 11.257H64.408M-2.498 18.761l-37.524-37.523M-41.893 11.257H64.408M8.13 18.761l-37.523-37.523M-41.893 11.257H64.408M18.763 18.761-18.76-18.762M-41.893 11.257H64.408M29.392 18.761-8.13-18.762M-41.893 11.257H64.408M40.021 18.761 2.498-18.762M-41.893 11.257H64.408M50.65 18.761 13.127-18.762M-41.893 11.257H64.408M61.283 18.761 23.76-18.762M-41.893 11.257H64.408M71.912 18.761 34.388-18.762M-45.647 7.504H60.654M-34.389 18.761l-37.523-37.523M-45.647 7.504H60.654M-23.76 18.761l-37.523-37.523M-45.647 7.504H60.654M-13.127 18.761l-37.524-37.523M-45.647 7.504H60.654M-2.498 18.761l-37.524-37.523M-45.647 7.504H60.654M8.13 18.761l-37.523-37.523M-45.647 7.504H60.654M18.763 18.761-18.76-18.762M-45.647 7.504H60.654M29.392 18.761-8.13-18.762M-45.647 7.504H60.654M40.021 18.761 2.498-18.762M-45.647 7.504H60.654M50.65 18.761 13.127-18.762M-45.647 7.504H60.654M61.283 18.761 23.76-18.762M-45.647 7.504H60.654M71.912 18.761 34.388-18.762M-49.397 3.754H56.904M-34.389 18.761l-37.523-37.523M-49.397 3.754H56.904M-23.76 18.761l-37.523-37.523M-49.397 3.754H56.904M-13.127 18.761l-37.524-37.523M-49.397 3.754H56.904M-2.498 18.761l-37.524-37.523M-49.397 3.754H56.904M8.13 18.761l-37.523-37.523M-49.397 3.754H56.904M18.763 18.761-18.76-18.762M-49.397 3.754H56.904M29.392 18.761-8.13-18.762M-49.397 3.754H56.904M40.021 18.761 2.498-18.762M-49.397 3.754H56.904M50.65 18.761 13.127-18.762M-49.397 3.754H56.904M61.283 18.761 23.76-18.762M-49.397 3.754H56.904M71.912 18.761 34.388-18.762M-53.15 0h106.3M-34.389 18.761l-37.523-37.523M-53.15 0h106.3M-23.76 18.761l-37.523-37.523M-53.15 0h106.3M-13.127 18.761l-37.524-37.523M-53.15 0h106.3M-2.498 18.761l-37.524-37.523M-53.15 0h106.3M8.13 18.761l-37.523-37.523M-53.15 0h106.3M18.763 18.761-18.76-18.762M-53.15 0h106.3M29.392 18.761-8.13-18.762M-53.15 0h106.3M40.021 18.761 2.498-18.762M-53.15 0h106.3M50.65 18.761 13.127-18.762M-53.15 0h106.3M61.283 18.761 23.76-18.762M-53.15 0h106.3M71.912 18.761 34.388-18.762M-56.904-3.754h106.3M-34.389 18.761l-37.523-37.523M-56.904-3.754h106.3M-23.76 18.761l-37.523-37.523M-56.904-3.754h106.3M-13.127 18.761l-37.524-37.523M-56.904-3.754h106.3M-2.498 18.761l-37.524-37.523M-56.904-3.754h106.3M8.13 18.761l-37.523-37.523M-56.904-3.754h106.3M18.763 18.761-18.76-18.762M-56.904-3.754h106.3M29.392 18.761-8.13-18.762M-56.904-3.754h106.3M40.021 18.761 2.498-18.762M-56.904-3.754h106.3M50.65 18.761 13.127-18.762M-56.904-3.754h106.3M61.283 18.761 23.76-18.762M-56.904-3.754h106.3M71.912 18.761 34.388-18.762M-60.654-7.504h106.3M-34.389 18.761l-37.523-37.523M-60.654-7.504h106.3M-23.76 18.761l-37.523-37.523M-60.654-7.504h106.3M-13.127 18.761l-37.524-37.523M-60.654-7.504h106.3M-2.498 18.761l-37.524-37.523M-60.654-7.504h106.3M8.13 18.761l-37.523-37.523M-60.654-7.504h106.3M18.763 18.761-18.76-18.762M-60.654-7.504h106.3M29.392 18.761-8.13-18.762M-60.654-7.504h106.3M40.021 18.761 2.498-18.762M-60.654-7.504h106.3M50.65 18.761 13.127-18.762M-60.654-7.504h106.3M61.283 18.761 23.76-18.762M-60.654-7.504h106.3M71.912 18.761 34.388-18.762M-64.408-11.258h106.3M-34.389 18.761l-37.523-37.523M-64.408-11.258h106.3M-23.76 18.761l-37.523-37.523M-64.408-11.258h106.3M-13.127 18.761l-37.524-37.523M-64.408-11.258h106.3M-2.498 18.761l-37.524-37.523M-64.408-11.258h106.3M8.13 18.761l-37.523-37.523M-64.408-11.258h106.3M18.763 18.761-18.76-18.762M-64.408-11.258h106.3M29.392 18.761-8.13-18.762M-64.408-11.258h106.3M40.021 18.761 2.498-18.762M-64.408-11.258h106.3M50.65 18.761 13.127-18.762M-64.408-11.258h106.3M61.283 18.761 23.76-18.762M-64.408-11.258h106.3M71.912 18.761 34.388-18.762M-68.158-15.008h106.3M-34.389 18.761l-37.523-37.523M-68.158-15.008h106.3M-23.76 18.761l-37.523-37.523M-68.158-15.008h106.3M-13.127 18.761l-37.524-37.523M-68.158-15.008h106.3M-2.498 18.761l-37.524-37.523M-68.158-15.008h106.3M8.13 18.761l-37.523-37.523M-68.158-15.008h106.3M18.763 18.761-18.76-18.762M-68.158-15.008h106.3M29.392 18.761-8.13-18.762M-68.158-15.008h106.3M40.021 18.761 2.498-18.762M-68.158-15.008h106.3M50.65 18.761 13.127-18.762M-68.158-15.008h106.3M61.283 18.761 23.76-18.762M-68.158-15.008h106.3M71.912 18.761 34.388-18.762M-71.912-18.762h106.3M-34.389 18.761l-37.523-37.523M-71.912-18.762h106.3M-23.76 18.761l-37.523-37.523M-71.912-18.762h106.3M-13.127 18.761l-37.524-37.523M-71.912-18.762h106.3M-2.498 18.761l-37.524-37.523M-71.912-18.762h106.3M8.13 18.761l-37.523-37.523M-71.912-18.762h106.3M18.763 18.761-18.76-18.762M-71.912-18.762h106.3M29.392 18.761-8.13-18.762M-71.912-18.762h106.3M40.021 18.761 2.498-18.762M-71.912-18.762h106.3M50.65 18.761 13.127-18.762M-71.912-18.762h106.3M61.283 18.761 23.76-18.762M-71.912-18.762h106.3M71.912 18.761 34.388-18.762" style="fill:none;stroke-width:.19925;stroke-linecap:butt;stroke-linejoin:miter;stroke:#bfbfbf;stroke-opacity:.5;stroke-miterlimit:10" transform="matrix(1 0 0 -1 77.092 69.902)"/><path d="M-7.506-7.504C4.236-7.504 17.115-4.144 21.26 0c4.144 4.144-2.012 7.504-13.754 7.504-11.743 0-24.621-3.36-28.766-7.504-4.144-4.145 2.012-7.504 13.754-7.504Zm0 0" style="fill:none;stroke-width:.3985;stroke-linecap:butt;stroke-linejoin:miter;stroke:#369;stroke-opacity:1;stroke-miterlimit:10" transform="matrix(1 0 0 -1 77.092 69.902)"/><path d="m92.05 62.945 2.884 2.102-.914-1.77 1.44-1.375" style="stroke:none;fill-rule:nonzero;fill:#369;fill-opacity:1"/><path d="M-11.256-11.258C6.357-11.258 25.674-6.22 31.888 0c6.22 6.218-3.02 11.257-20.632 11.257-17.61 0-36.93-5.039-43.145-11.257-6.219-6.22 3.02-11.258 20.633-11.258Zm0 0" style="fill:none;stroke-width:.3985;stroke-linecap:butt;stroke-linejoin:miter;stroke:#369;stroke-opacity:1;stroke-miterlimit:10" transform="matrix(1 0 0 -1 77.092 69.902)"/><path d="m106.793 71.691-3.543.496 1.895.637-.079 2" style="stroke:none;fill-rule:nonzero;fill:#369;fill-opacity:1"/><path d="M-15.01-15.008C8.474-15.008 34.232-8.29 42.521 0c8.29 8.289-4.027 15.011-27.511 15.011C-8.475 15.011-34.23 8.29-42.522 0c-8.289-8.29 4.028-15.008 27.512-15.008Zm0 0" style="fill:none;stroke-width:.3985;stroke-linecap:butt;stroke-linejoin:miter;stroke:#369;stroke-opacity:1;stroke-miterlimit:10" transform="matrix(1 0 0 -1 77.092 69.902)"/><path d="m103.91 78.309-3.535-.473 1.648 1.121-.613 1.895" style="stroke:none;fill-rule:nonzero;fill:#369;fill-opacity:1"/><path d="M22.037 41.195c2.441.129 4.066.828 3.637 1.559-.43.73-2.754 1.218-5.192 1.09-2.437-.13-4.066-.825-3.636-1.56.328-.554 1.78-.991 1.644-.984" style="fill:none;stroke-width:.3985;stroke-linecap:butt;stroke-linejoin:miter;stroke:#000;stroke-opacity:1;stroke-miterlimit:10" transform="matrix(1 0 0 -1 77.092 69.902)"/><path d="m97.574 28.707-3.101-1.762 1.109 1.657-1.277 1.527" style="stroke:none;fill-rule:nonzero;fill:#000;fill-opacity:1"/><path d="M21.26 42.52v6.378" style="fill:none;stroke-width:2.19182;stroke-linecap:butt;stroke-linejoin:miter;stroke:#fff;stroke-opacity:1;stroke-miterlimit:10" transform="matrix(1 0 0 -1 77.092 69.902)"/><path d="M21.26 42.52v6.378" style="fill:none;stroke-width:.59776;stroke-linecap:butt;stroke-linejoin:miter;stroke:#000;stroke-opacity:1;stroke-miterlimit:10" transform="matrix(1 0 0 -1 77.092 69.902)"/><path d="M21.26 48.898v-1.316" style="fill:none;stroke-width:.79701;stroke-linecap:butt;stroke-linejoin:miter;stroke:#000;stroke-opacity:1;stroke-miterlimit:10" transform="matrix(1 0 0 -1 77.092 69.902)"/><path d="m98.352 19.727-2.07 4.144 2.07-1.55 2.074 1.55" style="stroke:none;fill-rule:nonzero;fill:#000;fill-opacity:1"/><path d="M21.26 31.109c-1.106.168-1.993.598-1.993 1.098 0 .496.887.93 1.993 1.093 1.105.168 1.992.067 1.992-.097 0-.168-.887-.266-1.992-.102-1.106.168-1.993.598-1.993 1.098 0 .496.887.93 1.993 1.094 1.105.168 1.992.066 1.992-.098 0-.168-.887-.266-1.992-.102-1.106.168-1.993.598-1.993 1.098 0 .496.887.93 1.993 1.094 1.105.168 1.992.066 1.992-.098 0-.168-.887-.265-1.992-.101-1.106.168-1.993.597-1.993 1.097 0 .496.887.93 1.993 1.094v.797" style="fill:none;stroke-width:.3985;stroke-linecap:butt;stroke-linejoin:miter;stroke:#000;stroke-opacity:1;stroke-miterlimit:10" transform="matrix(1 0 0 -1 77.092 69.902)"/><path d="M17.224 28.418v2.691h8.07v-2.691Zm0 0" style="fill-rule:nonzero;fill:#bfbfbf;fill-opacity:1;stroke-width:.3985;stroke-linecap:butt;stroke-linejoin:miter;stroke:gray;stroke-opacity:1;stroke-miterlimit:10" transform="matrix(1 0 0 -1 77.092 69.902)"/><path d="M.002 0v63.78" style="fill:none;stroke-width:2.29141;stroke-linecap:butt;stroke-linejoin:miter;stroke:#fff;stroke-opacity:1;stroke-miterlimit:10" transform="matrix(1 0 0 -1 77.092 69.902)"/><path d="M.002 0v63.78" style="fill:none;stroke-width:1.49442;stroke-linecap:butt;stroke-linejoin:miter;stroke:#000;stroke-opacity:1;stroke-miterlimit:10" transform="matrix(1 0 0 -1 77.092 69.902)"/><path d="m77.094 27.383-3.867 7.73 3.867-2.898 3.863 2.898" style="stroke:none;fill-rule:nonzero;fill:#000;fill-opacity:1"/><use xlink:href="#b" x="68.377" y="34.697" style="fill:#000;fill-opacity:1"/><path d="M.002 0v-19.133" style="fill:none;stroke-width:1.59404;stroke-linecap:butt;stroke-linejoin:miter;stroke:#000;stroke-opacity:1;stroke-dasharray:2.98883,2.98883;stroke-miterlimit:10" transform="matrix(1 0 0 -1 77.092 69.902)"/></svg>