<svg xmlns="http://www.w3.org/2000/svg" xmlns:xlink="http://www.w3.org/1999/xlink" width="199.48" height="89.8pt" viewBox="0 0 149.61 89.8"><defs><clipPath id="a"><path d="M62 72h26v9H62Zm0 0"/></clipPath><clipPath id="b"><path d="M87.563 76.656c0-2.379-5.711-4.308-12.754-4.308-7.047 0-12.758 1.93-12.758 4.308 0 2.38 5.71 4.309 12.758 4.309 7.043 0 12.754-1.93 12.754-4.309Zm0 0"/></clipPath><clipPath id="d"><path d="M61 76h28v9H61Zm0 0"/></clipPath><clipPath id="e"><path d="M61.2 76.883v3.402c0 2.504 6.093 4.535 13.609 4.535 7.511 0 13.605-2.03 13.605-4.535v-3.402c0 2.504-6.094 4.535-13.605 4.535-7.516 0-13.61-2.031-13.61-4.535"/></clipPath><clipPath id="g"><path d="M0 0h149.61v89.8H0Zm0 0"/></clipPath><linearGradient id="c" x1="0" x2="0" y1="25.001" y2="74.999" gradientTransform="matrix(.5103 0 0 -.17236 49.292 85.273)" gradientUnits="userSpaceOnUse"><stop offset="0" style="stop-color:#fff;stop-opacity:1"/><stop offset=".016" style="stop-color:#fefefe;stop-opacity:1"/><stop offset=".031" style="stop-color:#fefefe;stop-opacity:1"/><stop offset=".047" style="stop-color:#fdfdfd;stop-opacity:1"/><stop offset=".063" style="stop-color:#fcfcfc;stop-opacity:1"/><stop offset=".078" style="stop-color:#fbfbfb;stop-opacity:1"/><stop offset=".094" style="stop-color:#fafafa;stop-opacity:1"/><stop offset=".109" style="stop-color:#f9f9f9;stop-opacity:1"/><stop offset=".125" style="stop-color:#f8f8f8;stop-opacity:1"/><stop offset=".141" style="stop-color:#f7f7f7;stop-opacity:1"/><stop offset=".156" style="stop-color:#f6f6f6;stop-opacity:1"/><stop offset=".172" style="stop-color:#f5f5f5;stop-opacity:1"/><stop offset=".188" style="stop-color:#f4f4f4;stop-opacity:1"/><stop offset=".203" style="stop-color:#f3f3f3;stop-opacity:1"/><stop offset=".219" style="stop-color:#f2f2f2;stop-opacity:1"/><stop offset=".234" style="stop-color:#f1f1f1;stop-opacity:1"/><stop offset=".25" style="stop-color:#f0f0f0;stop-opacity:1"/><stop offset=".266" style="stop-color:#efefef;stop-opacity:1"/><stop offset=".281" style="stop-color:#eee;stop-opacity:1"/><stop offset=".297" style="stop-color:#ededed;stop-opacity:1"/><stop offset=".313" style="stop-color:#ececec;stop-opacity:1"/><stop offset=".328" style="stop-color:#ebebeb;stop-opacity:1"/><stop offset=".344" style="stop-color:#eaeaea;stop-opacity:1"/><stop offset=".359" style="stop-color:#e9e9e9;stop-opacity:1"/><stop offset=".375" style="stop-color:#e8e8e8;stop-opacity:1"/><stop offset=".391" style="stop-color:#e7e7e7;stop-opacity:1"/><stop offset=".406" style="stop-color:#e6e6e6;stop-opacity:1"/><stop offset=".422" style="stop-color:#e5e5e5;stop-opacity:1"/><stop offset=".438" style="stop-color:#e4e4e4;stop-opacity:1"/><stop offset=".453" style="stop-color:#e3e3e3;stop-opacity:1"/><stop offset=".469" style="stop-color:#e2e2e2;stop-opacity:1"/><stop offset=".484" style="stop-color:#e1e1e1;stop-opacity:1"/><stop offset=".5" style="stop-color:#e0e0e0;stop-opacity:1"/><stop offset=".516" style="stop-color:#dfdfdf;stop-opacity:1"/><stop offset=".531" style="stop-color:#dedede;stop-opacity:1"/><stop offset=".547" style="stop-color:#ddd;stop-opacity:1"/><stop offset=".563" style="stop-color:#dcdcdc;stop-opacity:1"/><stop offset=".578" style="stop-color:#dbdbdb;stop-opacity:1"/><stop offset=".594" style="stop-color:#dadada;stop-opacity:1"/><stop offset=".609" style="stop-color:#d9d9d9;stop-opacity:1"/><stop offset=".625" style="stop-color:#d8d8d8;stop-opacity:1"/><stop offset=".641" style="stop-color:#d7d7d7;stop-opacity:1"/><stop offset=".656" style="stop-color:#d6d6d6;stop-opacity:1"/><stop offset=".672" style="stop-color:#d5d5d5;stop-opacity:1"/><stop offset=".688" style="stop-color:#d4d4d4;stop-opacity:1"/><stop offset=".703" style="stop-color:#d3d3d3;stop-opacity:1"/><stop offset=".719" style="stop-color:#d2d2d2;stop-opacity:1"/><stop offset=".734" style="stop-color:#d1d1d1;stop-opacity:1"/><stop offset=".75" style="stop-color:#d0d0d0;stop-opacity:1"/><stop offset=".766" style="stop-color:#cfcfcf;stop-opacity:1"/><stop offset=".781" style="stop-color:#cecece;stop-opacity:1"/><stop offset=".797" style="stop-color:#cdcdcd;stop-opacity:1"/><stop offset=".813" style="stop-color:#ccc;stop-opacity:1"/><stop offset=".828" style="stop-color:#cbcbcb;stop-opacity:1"/><stop offset=".844" style="stop-color:#cacaca;stop-opacity:1"/><stop offset=".859" style="stop-color:#c9c9c9;stop-opacity:1"/><stop offset=".875" style="stop-color:#c8c8c8;stop-opacity:1"/><stop offset=".891" style="stop-color:#c7c7c7;stop-opacity:1"/><stop offset=".906" style="stop-color:#c6c6c6;stop-opacity:1"/><stop offset=".922" style="stop-color:#c5c5c5;stop-opacity:1"/><stop offset=".938" style="stop-color:#c4c4c4;stop-opacity:1"/><stop offset=".953" style="stop-color:#c3c3c3;stop-opacity:1"/><stop offset=".969" style="stop-color:#c2c2c2;stop-opacity:1"/><stop offset=".984" style="stop-color:#c1c1c1;stop-opacity:1"/><stop offset="1" style="stop-color:silver;stop-opacity:1"/></linearGradient><linearGradient id="f" x1="0" x2="0" y1="25.003" y2="74.997" gradientTransform="matrix(0 -.15875 -.54433 0 102.023 88.788)" gradientUnits="userSpaceOnUse"><stop offset="0" style="stop-color:#bfbfbf;stop-opacity:1"/><stop offset=".008" style="stop-color:silver;stop-opacity:1"/><stop offset=".016" style="stop-color:#c1c1c1;stop-opacity:1"/><stop offset=".023" style="stop-color:#c2c2c2;stop-opacity:1"/><stop offset=".031" style="stop-color:#c3c3c3;stop-opacity:1"/><stop offset=".039" style="stop-color:#c4c4c4;stop-opacity:1"/><stop offset=".047" style="stop-color:#c5c5c5;stop-opacity:1"/><stop offset=".055" style="stop-color:#c6c6c6;stop-opacity:1"/><stop offset=".063" style="stop-color:#c7c7c7;stop-opacity:1"/><stop offset=".07" style="stop-color:#c8c8c8;stop-opacity:1"/><stop offset=".078" style="stop-color:#c9c9c9;stop-opacity:1"/><stop offset=".086" style="stop-color:#cacaca;stop-opacity:1"/><stop offset=".094" style="stop-color:#cbcbcb;stop-opacity:1"/><stop offset=".102" style="stop-color:#ccc;stop-opacity:1"/><stop offset=".109" style="stop-color:#cdcdcd;stop-opacity:1"/><stop offset=".117" style="stop-color:#cecece;stop-opacity:1"/><stop offset=".125" style="stop-color:#cfcfcf;stop-opacity:1"/><stop offset=".133" style="stop-color:#d0d0d0;stop-opacity:1"/><stop offset=".141" style="stop-color:#d1d1d1;stop-opacity:1"/><stop offset=".148" style="stop-color:#d2d2d2;stop-opacity:1"/><stop offset=".156" style="stop-color:#d3d3d3;stop-opacity:1"/><stop offset=".164" style="stop-color:#d4d4d4;stop-opacity:1"/><stop offset=".172" style="stop-color:#d5d5d5;stop-opacity:1"/><stop offset=".18" style="stop-color:#d6d6d6;stop-opacity:1"/><stop offset=".188" style="stop-color:#d7d7d7;stop-opacity:1"/><stop offset=".195" style="stop-color:#d8d8d8;stop-opacity:1"/><stop offset=".203" style="stop-color:#d9d9d9;stop-opacity:1"/><stop offset=".211" style="stop-color:#dadada;stop-opacity:1"/><stop offset=".219" style="stop-color:#dbdbdb;stop-opacity:1"/><stop offset=".227" style="stop-color:#dcdcdc;stop-opacity:1"/><stop offset=".234" style="stop-color:#ddd;stop-opacity:1"/><stop offset=".242" style="stop-color:#dedede;stop-opacity:1"/><stop offset=".25" style="stop-color:#dfdfdf;stop-opacity:1"/><stop offset=".258" style="stop-color:#e0e0e0;stop-opacity:1"/><stop offset=".266" style="stop-color:#e1e1e1;stop-opacity:1"/><stop offset=".273" style="stop-color:#e2e2e2;stop-opacity:1"/><stop offset=".281" style="stop-color:#e3e3e3;stop-opacity:1"/><stop offset=".289" style="stop-color:#e4e4e4;stop-opacity:1"/><stop offset=".297" style="stop-color:#e5e5e5;stop-opacity:1"/><stop offset=".305" style="stop-color:#e6e6e6;stop-opacity:1"/><stop offset=".313" style="stop-color:#e7e7e7;stop-opacity:1"/><stop offset=".32" style="stop-color:#e8e8e8;stop-opacity:1"/><stop offset=".328" style="stop-color:#e9e9e9;stop-opacity:1"/><stop offset=".336" style="stop-color:#eaeaea;stop-opacity:1"/><stop offset=".344" style="stop-color:#ebebeb;stop-opacity:1"/><stop offset=".352" style="stop-color:#ececec;stop-opacity:1"/><stop offset=".359" style="stop-color:#ededed;stop-opacity:1"/><stop offset=".367" style="stop-color:#eee;stop-opacity:1"/><stop offset=".375" style="stop-color:#efefef;stop-opacity:1"/><stop offset=".383" style="stop-color:#f0f0f0;stop-opacity:1"/><stop offset=".391" style="stop-color:#f1f1f1;stop-opacity:1"/><stop offset=".398" style="stop-color:#f2f2f2;stop-opacity:1"/><stop offset=".406" style="stop-color:#f3f3f3;stop-opacity:1"/><stop offset=".414" style="stop-color:#f4f4f4;stop-opacity:1"/><stop offset=".422" style="stop-color:#f5f5f5;stop-opacity:1"/><stop offset=".43" style="stop-color:#f6f6f6;stop-opacity:1"/><stop offset=".438" style="stop-color:#f7f7f7;stop-opacity:1"/><stop offset=".445" style="stop-color:#f8f8f8;stop-opacity:1"/><stop offset=".453" style="stop-color:#f9f9f9;stop-opacity:1"/><stop offset=".461" style="stop-color:#fafafa;stop-opacity:1"/><stop offset=".469" style="stop-color:#fbfbfb;stop-opacity:1"/><stop offset=".477" style="stop-color:#fcfcfc;stop-opacity:1"/><stop offset=".484" style="stop-color:#fdfdfd;stop-opacity:1"/><stop offset=".492" style="stop-color:#fefefe;stop-opacity:1"/><stop offset=".5" style="stop-color:#fefefe;stop-opacity:1"/><stop offset=".508" style="stop-color:#fefefe;stop-opacity:1"/><stop offset=".516" style="stop-color:#fefefe;stop-opacity:1"/><stop offset=".523" style="stop-color:#fdfdfd;stop-opacity:1"/><stop offset=".531" style="stop-color:#fcfcfc;stop-opacity:1"/><stop offset=".539" style="stop-color:#fbfbfb;stop-opacity:1"/><stop offset=".547" style="stop-color:#fafafa;stop-opacity:1"/><stop offset=".555" style="stop-color:#f9f9f9;stop-opacity:1"/><stop offset=".563" style="stop-color:#f8f8f8;stop-opacity:1"/><stop offset=".57" style="stop-color:#f7f7f7;stop-opacity:1"/><stop offset=".578" style="stop-color:#f6f6f6;stop-opacity:1"/><stop offset=".586" style="stop-color:#f5f5f5;stop-opacity:1"/><stop offset=".594" style="stop-color:#f4f4f4;stop-opacity:1"/><stop offset=".602" style="stop-color:#f3f3f3;stop-opacity:1"/><stop offset=".609" style="stop-color:#f2f2f2;stop-opacity:1"/><stop offset=".617" style="stop-color:#f1f1f1;stop-opacity:1"/><stop offset=".625" style="stop-color:#f0f0f0;stop-opacity:1"/><stop offset=".633" style="stop-color:#efefef;stop-opacity:1"/><stop offset=".641" style="stop-color:#eee;stop-opacity:1"/><stop offset=".648" style="stop-color:#ededed;stop-opacity:1"/><stop offset=".656" style="stop-color:#ececec;stop-opacity:1"/><stop offset=".664" style="stop-color:#ebebeb;stop-opacity:1"/><stop offset=".672" style="stop-color:#eaeaea;stop-opacity:1"/><stop offset=".68" style="stop-color:#e9e9e9;stop-opacity:1"/><stop offset=".688" style="stop-color:#e8e8e8;stop-opacity:1"/><stop offset=".695" style="stop-color:#e7e7e7;stop-opacity:1"/><stop offset=".703" style="stop-color:#e6e6e6;stop-opacity:1"/><stop offset=".711" style="stop-color:#e5e5e5;stop-opacity:1"/><stop offset=".719" style="stop-color:#e4e4e4;stop-opacity:1"/><stop offset=".727" style="stop-color:#e3e3e3;stop-opacity:1"/><stop offset=".734" style="stop-color:#e2e2e2;stop-opacity:1"/><stop offset=".742" style="stop-color:#e1e1e1;stop-opacity:1"/><stop offset=".75" style="stop-color:#e0e0e0;stop-opacity:1"/><stop offset=".758" style="stop-color:#dfdfdf;stop-opacity:1"/><stop offset=".766" style="stop-color:#dedede;stop-opacity:1"/><stop offset=".773" style="stop-color:#ddd;stop-opacity:1"/><stop offset=".781" style="stop-color:#dcdcdc;stop-opacity:1"/><stop offset=".789" style="stop-color:#dbdbdb;stop-opacity:1"/><stop offset=".797" style="stop-color:#dadada;stop-opacity:1"/><stop offset=".805" style="stop-color:#d9d9d9;stop-opacity:1"/><stop offset=".813" style="stop-color:#d8d8d8;stop-opacity:1"/><stop offset=".82" style="stop-color:#d7d7d7;stop-opacity:1"/><stop offset=".828" style="stop-color:#d6d6d6;stop-opacity:1"/><stop offset=".836" style="stop-color:#d5d5d5;stop-opacity:1"/><stop offset=".844" style="stop-color:#d4d4d4;stop-opacity:1"/><stop offset=".852" style="stop-color:#d3d3d3;stop-opacity:1"/><stop offset=".859" style="stop-color:#d2d2d2;stop-opacity:1"/><stop offset=".867" style="stop-color:#d1d1d1;stop-opacity:1"/><stop offset=".875" style="stop-color:#d0d0d0;stop-opacity:1"/><stop offset=".883" style="stop-color:#cfcfcf;stop-opacity:1"/><stop offset=".891" style="stop-color:#cecece;stop-opacity:1"/><stop offset=".898" style="stop-color:#cdcdcd;stop-opacity:1"/><stop offset=".906" style="stop-color:#ccc;stop-opacity:1"/><stop offset=".914" style="stop-color:#cbcbcb;stop-opacity:1"/><stop offset=".922" style="stop-color:#cacaca;stop-opacity:1"/><stop offset=".93" style="stop-color:#c9c9c9;stop-opacity:1"/><stop offset=".938" style="stop-color:#c8c8c8;stop-opacity:1"/><stop offset=".945" style="stop-color:#c7c7c7;stop-opacity:1"/><stop offset=".953" style="stop-color:#c6c6c6;stop-opacity:1"/><stop offset=".961" style="stop-color:#c5c5c5;stop-opacity:1"/><stop offset=".969" style="stop-color:#c4c4c4;stop-opacity:1"/><stop offset=".977" style="stop-color:#c3c3c3;stop-opacity:1"/><stop offset=".984" style="stop-color:#c2c2c2;stop-opacity:1"/><stop offset=".992" style="stop-color:#c1c1c1;stop-opacity:1"/><stop offset="1" style="stop-color:silver;stop-opacity:1"/></linearGradient><symbol id="h" overflow="visible"><path d="M3.422-5.422c.078-.344.11-.422.828-.422.172 0 .266 0 .266-.172 0-.093-.094-.109-.141-.109-.188 0-.39.016-.578.016-.203 0-.547.015-.61.015-.203 0-.406-.015-.609-.015-.187 0-.406-.016-.594-.016-.046 0-.171 0-.171.156 0 .125.093.125.265.125.203 0 .406 0 .578.063a.275.275 0 0 1 .016.093c0 .032-.016.125-.016.157L1.437-.688c-.078.313-.093.407-.796.407-.188 0-.297 0-.297.172 0 .03.031.109.14.109.172 0 .375-.016.563-.016.203 0 .422-.015.625-.015s.406.015.61.015c.187 0 .405.016.593.016.063 0 .172 0 .172-.156 0-.125-.094-.125-.266-.125-.344 0-.61 0-.61-.156 0-.063 0-.079.048-.204Zm0 0" style="stroke:none"/></symbol></defs><g clip-path="url(#a)"><g clip-path="url(#b)"><path d="M62.05 80.965v-8.617h25.513v8.617Zm0 0" style="stroke:none;fill-rule:nonzero;fill:url(#c)"/></g></g><g clip-path="url(#d)"><g clip-path="url(#e)"><path d="M88.414 84.82H61.2v-7.937h27.215Zm0 0" style="stroke:none;fill-rule:nonzero;fill:url(#f)"/></g></g><path d="m74.809 76.883-3.524 4.379v3.402c-4.695-.418-8.363-1.64-9.62-3.207v-3.402Zm0 0" style="stroke:none;fill-rule:nonzero;fill:#000;fill-opacity:.01999"/><path d="m74.809 76.883-3.98 4.336v3.402c-4.325-.441-7.712-1.57-9.032-3.012v-3.402Zm0 0" style="stroke:none;fill-rule:nonzero;fill:#000;fill-opacity:.01999"/><path d="m74.809 76.883-4.43 4.289v3.398c-3.961-.453-7.074-1.488-8.438-2.808v-3.403Zm0 0" style="stroke:none;fill-rule:nonzero;fill:#000;fill-opacity:.01999"/><path d="m74.809 76.883-4.88 4.234v3.403c-3.597-.461-6.445-1.41-7.824-2.61v-3.402Zm0 0" style="stroke:none;fill-rule:nonzero;fill:#000;fill-opacity:.01999"/><path d="m74.809 76.883-5.317 4.176v3.398c-3.246-.457-5.832-1.32-7.21-2.402v-3.403Zm0 0" style="stroke:none;fill-rule:nonzero;fill:#000;fill-opacity:.01999"/><path d="m74.809 76.883-5.75 4.11v3.402c-2.903-.45-5.23-1.227-6.582-2.196v-3.402Zm0 0" style="stroke:none;fill-rule:nonzero;fill:#000;fill-opacity:.01999"/><path d="m74.809 76.883-6.18 4.039v3.402c-2.559-.433-4.64-1.129-5.945-1.98V78.94Zm0 0" style="stroke:none;fill-rule:nonzero;fill:#000;fill-opacity:.01999"/><path d="m74.809 76.883-6.598 3.965v3.402c-2.23-.41-4.07-1.023-5.305-1.77v-3.398Zm0 0" style="stroke:none;fill-rule:nonzero;fill:#000;fill-opacity:.01999"/><path d="M74.809 76.883 67.8 80.77v3.402c-1.91-.383-3.512-.918-4.656-1.55v-3.403Zm0 0" style="stroke:none;fill-rule:nonzero;fill:#000;fill-opacity:.01999"/><path d="m74.809 76.883-7.414 3.805v3.398c-1.598-.344-2.961-.8-4-1.332v-3.402Zm0 0" style="stroke:none;fill-rule:nonzero;fill:#000;fill-opacity:.01999"/><path d="m74.809 76.883-7.805 3.715V84c-1.3-.305-2.434-.684-3.344-1.113v-3.403Zm0 0" style="stroke:none;fill-rule:nonzero;fill:#000;fill-opacity:.01999"/><path d="m74.809 76.883-8.192 3.62v3.403c-1.012-.254-1.914-.554-2.676-.894v-3.399Zm0 0" style="stroke:none;fill-rule:nonzero;fill:#000;fill-opacity:.01999"/><path d="m74.809 76.883-8.563 3.523v3.403c-.742-.2-1.414-.426-2.012-.672v-3.403Zm0 0" style="stroke:none;fill-rule:nonzero;fill:#000;fill-opacity:.01999"/><path d="m74.809 76.883-8.93 3.422v3.402c-.477-.14-.926-.289-1.34-.45V79.86Zm0 0" style="stroke:none;fill-rule:nonzero;fill:#000;fill-opacity:.01999"/><path d="m74.809 76.883-9.282 3.316v3.403a19.27 19.27 0 0 1-.672-.227v-3.398Zm0 0" style="stroke:none;fill-rule:nonzero;fill:#000;fill-opacity:.01999"/><path d="m74.809 76.883-9.621 3.207v3.402-3.402ZM74.809 76.883l13.14 1.172v3.402c-1.258 1.566-4.926 2.79-9.62 3.207v-3.402Zm0 0" style="stroke:none;fill-rule:nonzero;fill:#000;fill-opacity:.01999"/><path d="m74.809 76.883 13.011 1.324v3.402c-1.324 1.442-4.71 2.57-9.035 3.012V81.22Zm0 0" style="stroke:none;fill-rule:nonzero;fill:#000;fill-opacity:.01999"/><path d="m74.809 76.883 12.863 1.476v3.403c-1.363 1.316-4.477 2.355-8.434 2.808v-3.398Zm0 0" style="stroke:none;fill-rule:nonzero;fill:#000;fill-opacity:.01999"/><path d="m74.809 76.883 12.699 1.625v3.402c-1.38 1.2-4.227 2.149-7.824 2.606v-3.399Zm0 0" style="stroke:none;fill-rule:nonzero;fill:#000;fill-opacity:.01999"/><path d="m74.809 76.883 12.523 1.77v3.402c-1.379 1.082-3.965 1.945-7.207 2.402v-3.398Zm0 0" style="stroke:none;fill-rule:nonzero;fill:#000;fill-opacity:.01999"/><path d="m74.809 76.883 12.328 1.914v3.402c-1.352.969-3.68 1.746-6.578 2.196v-3.403Zm0 0" style="stroke:none;fill-rule:nonzero;fill:#000;fill-opacity:.01999"/><path d="m74.809 76.883 12.12 2.058v3.403c-1.304.851-3.386 1.547-5.945 1.98v-3.402Zm0 0" style="stroke:none;fill-rule:nonzero;fill:#000;fill-opacity:.01999"/><path d="m74.809 76.883 11.898 2.199v3.398c-1.234.747-3.074 1.36-5.305 1.77v-3.402Zm0 0" style="stroke:none;fill-rule:nonzero;fill:#000;fill-opacity:.01999"/><path d="m74.809 76.883 11.66 2.336v3.402c-1.145.633-2.746 1.168-4.653 1.55V80.77Zm0 0" style="stroke:none;fill-rule:nonzero;fill:#000;fill-opacity:.01999"/><path d="m74.809 76.883 11.41 2.469v3.402c-1.04.531-2.403.988-4 1.332v-3.398Zm0 0" style="stroke:none;fill-rule:nonzero;fill:#000;fill-opacity:.01999"/><path d="m74.809 76.883 11.144 2.601v3.403c-.91.43-2.043.808-3.34 1.113v-3.402Zm0 0" style="stroke:none;fill-rule:nonzero;fill:#000;fill-opacity:.01999"/><path d="m74.809 76.883 10.867 2.73v3.399c-.766.34-1.668.64-2.68.894v-3.402Zm0 0" style="stroke:none;fill-rule:nonzero;fill:#000;fill-opacity:.01999"/><path d="m74.809 76.883 10.574 2.851v3.403c-.602.246-1.274.472-2.012.672v-3.403Zm0 0" style="stroke:none;fill-rule:nonzero;fill:#000;fill-opacity:.01999"/><path d="m74.809 76.883 10.265 2.976v3.399c-.414.16-.863.308-1.34.449v-3.402Zm0 0" style="stroke:none;fill-rule:nonzero;fill:#000;fill-opacity:.01999"/><path d="m74.809 76.883 9.949 3.094v3.398c-.215.078-.442.152-.672.227v-3.403Zm0 0" style="stroke:none;fill-rule:nonzero;fill:#000;fill-opacity:.01999"/><path d="m74.809 76.883 9.62 3.207v3.402-3.402Zm0 0" style="stroke:none;fill-rule:nonzero;fill:#000;fill-opacity:.01999"/><path d="m74.809 76.883 3.52-4.383c4.694.422 8.362 1.645 9.62 3.207Zm0 0" style="stroke:none;fill-rule:nonzero;fill:#000;fill-opacity:.02"/><path d="m74.809 76.883 3.976-4.34c4.324.441 7.711 1.57 9.035 3.012Zm0 0" style="stroke:none;fill-rule:nonzero;fill:#000;fill-opacity:.02"/><path d="m74.809 76.883 4.43-4.29c3.956.454 7.07 1.493 8.433 2.813Zm0 0" style="stroke:none;fill-rule:nonzero;fill:#000;fill-opacity:.02"/><path d="m74.809 76.883 4.875-4.235c3.597.461 6.445 1.41 7.824 2.61Zm0 0" style="stroke:none;fill-rule:nonzero;fill:#000;fill-opacity:.02"/><path d="m74.809 76.883 5.316-4.176c3.242.461 5.828 1.32 7.207 2.402Zm0 0" style="stroke:none;fill-rule:nonzero;fill:#000;fill-opacity:.02"/><path d="m74.809 76.883 5.75-4.11c2.898.45 5.226 1.227 6.578 2.192Zm0 0" style="stroke:none;fill-rule:nonzero;fill:#000;fill-opacity:.02"/><path d="m74.809 76.883 6.175-4.043c2.559.437 4.641 1.129 5.946 1.984Zm0 0" style="stroke:none;fill-rule:nonzero;fill:#000;fill-opacity:.02"/><path d="m74.809 76.883 6.593-3.969c2.23.414 4.07 1.027 5.305 1.77Zm0 0" style="stroke:none;fill-rule:nonzero;fill:#000;fill-opacity:.02"/><path d="m74.809 76.883 7.007-3.887c1.907.379 3.508.914 4.653 1.55Zm0 0" style="stroke:none;fill-rule:nonzero;fill:#000;fill-opacity:.02"/><path d="m74.809 76.883 7.41-3.805c1.597.348 2.96.8 4 1.332Zm0 0" style="stroke:none;fill-rule:nonzero;fill:#000;fill-opacity:.02"/><path d="m74.809 76.883 7.804-3.715c1.297.3 2.43.68 3.34 1.113Zm0 0" style="stroke:none;fill-rule:nonzero;fill:#000;fill-opacity:.02"/><path d="m74.809 76.883 8.187-3.621c1.012.254 1.914.554 2.676.89Zm0 0" style="stroke:none;fill-rule:nonzero;fill:#000;fill-opacity:.02"/><path d="m74.809 76.883 8.562-3.528c.738.204 1.41.426 2.012.672Zm0 0" style="stroke:none;fill-rule:nonzero;fill:#000;fill-opacity:.02"/><path d="m74.809 76.883 8.925-3.422c.477.137.926.285 1.34.445Zm0 0" style="stroke:none;fill-rule:nonzero;fill:#000;fill-opacity:.02"/><path d="m74.809 76.883 9.277-3.317c.23.07.457.145.672.223ZM74.809 76.883l9.62-3.207ZM74.809 76.883l-13.145-1.176c1.258-1.562 4.926-2.785 9.621-3.207Zm0 0" style="stroke:none;fill-rule:nonzero;fill:#000;fill-opacity:.02"/><path d="m74.809 76.883-13.012-1.328c1.32-1.442 4.707-2.57 9.031-3.012Zm0 0" style="stroke:none;fill-rule:nonzero;fill:#000;fill-opacity:.02"/><path d="M74.809 76.883 61.94 75.406c1.364-1.32 4.477-2.36 8.438-2.812Zm0 0" style="stroke:none;fill-rule:nonzero;fill:#000;fill-opacity:.02"/><path d="m74.809 76.883-12.704-1.625c1.38-1.2 4.227-2.149 7.825-2.61Zm0 0" style="stroke:none;fill-rule:nonzero;fill:#000;fill-opacity:.02"/><path d="M74.809 76.883 62.28 75.109c1.38-1.082 3.965-1.941 7.211-2.402Zm0 0" style="stroke:none;fill-rule:nonzero;fill:#000;fill-opacity:.02"/><path d="m74.809 76.883-12.332-1.918c1.351-.965 3.68-1.742 6.582-2.192Zm0 0" style="stroke:none;fill-rule:nonzero;fill:#000;fill-opacity:.02"/><path d="m74.809 76.883-12.125-2.059c1.304-.855 3.386-1.547 5.945-1.984Zm0 0" style="stroke:none;fill-rule:nonzero;fill:#000;fill-opacity:.02"/><path d="m74.809 76.883-11.903-2.2c1.235-.742 3.074-1.355 5.305-1.769Zm0 0" style="stroke:none;fill-rule:nonzero;fill:#000;fill-opacity:.02"/><path d="m74.809 76.883-11.664-2.336c1.144-.637 2.746-1.172 4.656-1.55Zm0 0" style="stroke:none;fill-rule:nonzero;fill:#000;fill-opacity:.02"/><path d="M74.809 76.883 63.395 74.41c1.039-.531 2.402-.984 4-1.332Zm0 0" style="stroke:none;fill-rule:nonzero;fill:#000;fill-opacity:.02"/><path d="M74.809 76.883 63.66 74.28c.91-.433 2.043-.812 3.344-1.113Zm0 0" style="stroke:none;fill-rule:nonzero;fill:#000;fill-opacity:.02"/><path d="m74.809 76.883-10.868-2.73a16.885 16.885 0 0 1 2.676-.891Zm0 0" style="stroke:none;fill-rule:nonzero;fill:#000;fill-opacity:.02"/><path d="m74.809 76.883-10.575-2.856c.598-.246 1.27-.468 2.012-.668Zm0 0" style="stroke:none;fill-rule:nonzero;fill:#000;fill-opacity:.02"/><path d="m74.809 76.883-10.27-2.977c.414-.16.863-.308 1.34-.445Zm0 0" style="stroke:none;fill-rule:nonzero;fill:#000;fill-opacity:.02"/><path d="m74.809 76.883-9.954-3.094c.215-.078.442-.152.672-.223ZM74.809 76.883l-9.621-3.207Zm0 0" style="stroke:none;fill-rule:nonzero;fill:#000;fill-opacity:.02"/><path d="M1.795 0C1.795.33.99.596.002.596c-.993 0-1.793-.266-1.793-.598 0-.328.8-.597 1.793-.597.988 0 1.793.27 1.793.597Zm0 0" style="fill-rule:nonzero;fill:#000;fill-opacity:1;stroke-width:.3985;stroke-linecap:butt;stroke-linejoin:miter;stroke:#000;stroke-opacity:1;stroke-miterlimit:10" transform="matrix(1 0 0 -1 74.807 76.882)"/><path d="M.002 0v34.015" style="fill:none;stroke-width:2.98883;stroke-linecap:butt;stroke-linejoin:miter;stroke:#000;stroke-opacity:1;stroke-miterlimit:10" transform="matrix(1 0 0 -1 74.807 76.882)"/><path d="m-1.494 31.429 2.988 5.176-25.305-2.59Zm0 0" style="fill-rule:nonzero;fill:#fff;fill-opacity:1;stroke-width:.3985;stroke-linecap:butt;stroke-linejoin:miter;stroke:#000;stroke-opacity:1;stroke-miterlimit:10" transform="matrix(1 0 0 -1 74.807 76.882)"/><path d="m1.494 36.605-2.988-5.176 27.007 2.586Zm0 0" style="fill-rule:nonzero;fill:red;fill-opacity:1;stroke-width:.3985;stroke-linecap:butt;stroke-linejoin:miter;stroke:#000;stroke-opacity:1;stroke-miterlimit:10" transform="matrix(1 0 0 -1 74.807 76.882)"/><path d="M27.213 34.015c-.11-3.133-1.485-5.332-2.493-5.867" style="fill:none;stroke-width:.3985;stroke-linecap:butt;stroke-linejoin:miter;stroke:#000;stroke-opacity:1;stroke-miterlimit:10" transform="matrix(1 0 0 -1 74.807 76.882)"/><path d="m97.77 49.668 3.562-.09-1.805-.844.309-1.972" style="stroke:none;fill-rule:nonzero;fill:#000;fill-opacity:1"/><g clip-path="url(#g)"><path d="M-68.034 7.655 68.033 68.882" style="fill:none;stroke-width:3.5866;stroke-linecap:butt;stroke-linejoin:miter;stroke:#fff;stroke-opacity:1;stroke-miterlimit:10" transform="matrix(1 0 0 -1 74.807 76.882)"/><path d="M-68.034 7.655 68.033 68.882" style="fill:none;stroke-width:1.99255;stroke-linecap:butt;stroke-linejoin:miter;stroke:#000;stroke-opacity:1;stroke-miterlimit:10" transform="matrix(1 0 0 -1 74.807 76.882)"/></g><path d="m51.025 68.034-16.89-7.68" style="fill:none;stroke-width:.3985;stroke-linecap:butt;stroke-linejoin:miter;stroke:#000;stroke-opacity:1;stroke-miterlimit:10" transform="matrix(1 0 0 -1 74.807 76.882)"/><path d="m107.121 17.352 3.57.132-1.75-.957.426-1.949" style="stroke:none;fill-rule:nonzero;fill:#000;fill-opacity:1"/><use xlink:href="#h" x="114.112" y="11.108" style="fill:#000;fill-opacity:1"/></svg>