<svg xmlns="http://www.w3.org/2000/svg" xmlns:xlink="http://www.w3.org/1999/xlink" width="201.133" height="124.24" viewBox="0 0 150.85 93.18"><defs><symbol id="b" overflow="visible"><path d="M4.094-2.25c0-1-.828-1.781-1.782-1.781A1.794 1.794 0 0 0 .516-2.25c0 1 .828 1.797 1.78 1.797A1.807 1.807 0 0 0 4.095-2.25Zm0 0" style="stroke:none"/></symbol><symbol id="c" overflow="visible"><path d="M6.047-2.047c.172 0 .344 0 .344-.203 0-.188-.188-.188-.344-.188H1.109c-.156 0-.343 0-.343.188 0 .203.171.203.343.203Zm0 0" style="stroke:none"/></symbol><symbol id="d" overflow="visible"><path d="M7.625-2.047c-1.063.75-1.281 1.938-1.281 2.031 0 .125.125.125.187.125.11 0 .172 0 .203-.125.25-1.046.86-1.75 1.844-2.109.047-.016.125-.047.125-.125s-.062-.094-.125-.125c-1.125-.422-1.64-1.219-1.844-2.094-.03-.125-.062-.125-.203-.125-.078 0-.187 0-.187.125 0 .094.218 1.282 1.281 2.032H.844c-.156 0-.328 0-.328.187 0 .203.171.203.328.203Zm0 0" style="stroke:none"/></symbol><symbol id="e" overflow="visible"><path d="M1.688-1.406c.109-.422.28-1.078.28-1.157.016-.046.25-.484.563-.796.266-.235.61-.375.953-.375.485 0 .485.468.485.625 0 .546-.422 1.64-.516 1.921-.11.266-.14.36-.14.532 0 .484.359.75.765.75.86 0 1.219-1.282 1.219-1.375 0-.047-.031-.11-.125-.11s-.11.047-.14.157c-.22.765-.595 1.109-.923 1.109-.062 0-.218 0-.218-.281 0-.235.078-.469.156-.656.172-.47.531-1.407.531-1.922 0-.797-.594-.985-1.062-.985-.829 0-1.266.594-1.422.781a.84.84 0 0 0-.86-.78c-.375 0-.578.28-.703.53-.14.313-.265.813-.265.86 0 .078.062.11.125.11.093 0 .109-.048.156-.235.172-.703.36-1.031.656-1.031.281 0 .281.28.281.421 0 .188-.078.454-.125.688-.062.234-.156.625-.187.734L.812-.42C.75-.204.75-.189.75-.157c0 .11.078.25.266.25a.402.402 0 0 0 .328-.188c.031-.047.093-.344.14-.515Zm0 0" style="stroke:none"/></symbol><symbol id="f" overflow="visible"><path d="M3.422-5.422c.078-.344.11-.422.828-.422.172 0 .266 0 .266-.172 0-.093-.094-.109-.141-.109-.188 0-.39.016-.578.016-.203 0-.547.015-.61.015-.203 0-.406-.015-.609-.015-.187 0-.406-.016-.594-.016-.046 0-.171 0-.171.156 0 .125.093.125.265.125.203 0 .406 0 .578.063a.275.275 0 0 1 .016.093c0 .032-.016.125-.016.157L1.437-.688c-.078.313-.093.407-.796.407-.188 0-.297 0-.297.172 0 .03.031.109.14.109.172 0 .375-.016.563-.016.203 0 .422-.015.625-.015s.406.015.61.015c.187 0 .405.016.593.016.063 0 .172 0 .172-.156 0-.125-.094-.125-.266-.125-.344 0-.61 0-.61-.156 0-.063 0-.079.048-.204Zm0 0" style="stroke:none"/></symbol><clipPath id="a"><path d="M7 34h42v59.18H7Zm0 0"/></clipPath><clipPath id="g"><path d="M92 34h40v59.18H92Zm0 0"/></clipPath></defs><path d="M-28.53 19.98c-3.649-3.5-2.781-14.918 1.941-25.504 4.719-10.59 11.504-16.336 15.156-12.836 3.649 3.496 2.778 14.914-1.941 25.5-3.594 8.059-8.543 13.594-12.383 13.848" style="fill:none;stroke-width:.3985;stroke-linecap:butt;stroke-linejoin:miter;stroke:#000;stroke-opacity:1;stroke-miterlimit:10" transform="matrix(1 0 0 -1 49.499 66.14)"/><g clip-path="url(#a)"><path d="M-28.53 19.98c-3.649-3.5-2.781-14.918 1.941-25.504 4.149-9.305 10-15.059 13.88-13.645" style="fill:none;stroke-width:.79701;stroke-linecap:butt;stroke-linejoin:miter;stroke:#000;stroke-opacity:1;stroke-miterlimit:10" transform="matrix(1 0 0 -1 49.499 66.14)"/></g><path d="m19.242 59.785 1.34-4.437-1.777 1.882-2.309-1.18" style="stroke:none;fill-rule:nonzero;fill:#000;fill-opacity:1"/><path d="M-43.073 59.933-28.53 19.98" style="fill:none;stroke-width:.3985;stroke-linecap:butt;stroke-linejoin:miter;stroke:#000;stroke-opacity:1;stroke-miterlimit:10" transform="matrix(1 0 0 -1 49.499 66.14)"/><path d="m16.133 32.879.406-3.543-1.09 1.668-1.906-.578" style="stroke:none;fill-rule:nonzero;fill:#000;fill-opacity:1"/><path d="m-25.722 21-14.543 39.956" style="fill:none;stroke-width:.3985;stroke-linecap:butt;stroke-linejoin:miter;stroke:#000;stroke-opacity:1;stroke-miterlimit:10" transform="matrix(1 0 0 -1 49.499 66.14)"/><path d="m14.07 18.469-.41 3.539 1.09-1.668 1.906.578" style="stroke:none;fill-rule:nonzero;fill:#000;fill-opacity:1"/><path d="M-23.32-7.704c-1.667 2.57-3.745 8.281-4.363 13.305L-11.85-5.602c-.613 5.023-2.695 10.738-4.363 13.305" style="fill:none;stroke-width:.3985;stroke-linecap:butt;stroke-linejoin:miter;stroke:#000;stroke-opacity:1;stroke-miterlimit:10" transform="matrix(1 0 0 -1 49.499 66.14)"/><path d="m27.27 75.52-.403-3.555-.687 1.879-1.996-.137M32.195 56.758l.403 3.558.687-1.879 2 .137" style="stroke:none;fill-rule:nonzero;fill:#000;fill-opacity:1"/><path d="m-19.854.511 18.101 6.59" style="fill:none;stroke-width:.3985;stroke-linecap:butt;stroke-linejoin:miter;stroke:#000;stroke-opacity:1;stroke-miterlimit:10" transform="matrix(1 0 0 -1 49.499 66.14)"/><path d="m49.621 58.36-3.547-.41 1.672 1.09-.578 1.91" style="stroke:none;fill-rule:nonzero;fill:#000;fill-opacity:1"/><use xlink:href="#b" x="27.339" y="67.646" style="fill:#000;fill-opacity:1"/><use xlink:href="#c" x="51.614" y="58.097" style="fill:#000;fill-opacity:1"/><use xlink:href="#d" x="51.618" y="58.097" style="fill:#000;fill-opacity:1"/><use xlink:href="#e" x="53.442" y="61.957" style="fill:#000;fill-opacity:1"/><use xlink:href="#f" x="4.981" y="29.247" style="fill:#000;fill-opacity:1"/><path d="M71.052 19.98c-5.043-.336-11.719-9.64-14.906-20.785-3.188-11.145-1.684-19.91 3.359-19.575 5.043.332 11.719 9.637 14.906 20.782 2.426 8.484 2.192 15.902-.586 18.566" style="fill:none;stroke-width:.3985;stroke-linecap:butt;stroke-linejoin:miter;stroke:#000;stroke-opacity:1;stroke-miterlimit:10" transform="matrix(1 0 0 -1 49.499 66.14)"/><g clip-path="url(#g)"><path d="M71.052 19.98c-5.043-.336-11.719-9.64-14.906-20.785-2.801-9.793-2.016-17.965 1.863-19.375" style="fill:none;stroke-width:.79701;stroke-linecap:butt;stroke-linejoin:miter;stroke:#000;stroke-opacity:1;stroke-miterlimit:10" transform="matrix(1 0 0 -1 49.499 66.14)"/></g><path d="m110.473 55.492 3.882-2.543-2.578.301-1.007-2.387" style="stroke:none;fill-rule:nonzero;fill:#000;fill-opacity:1"/><path d="M85.595 59.933 71.052 19.98" style="fill:none;stroke-width:.3985;stroke-linecap:butt;stroke-linejoin:miter;stroke:#000;stroke-opacity:1;stroke-miterlimit:10" transform="matrix(1 0 0 -1 49.499 66.14)"/><path d="m125.387 32.879 2.59-2.453-1.91.578-1.087-1.668" style="stroke:none;fill-rule:nonzero;fill:#000;fill-opacity:1"/><path d="m73.86 18.956 14.543 39.957" style="fill:none;stroke-width:.3985;stroke-linecap:butt;stroke-linejoin:miter;stroke:#000;stroke-opacity:1;stroke-miterlimit:10" transform="matrix(1 0 0 -1 49.499 66.14)"/><path d="m133.066 20.512-2.59 2.453 1.91-.578 1.087 1.668" style="stroke:none;fill-rule:nonzero;fill:#000;fill-opacity:1"/><path d="M57.599-3.626c.375 3.047 2.457 8.762 5.21 13.008L67.74-9.38C70.497-5.133 72.575.578 72.95 3.624" style="fill:none;stroke-width:.3985;stroke-linecap:butt;stroke-linejoin:miter;stroke:#000;stroke-opacity:1;stroke-miterlimit:10" transform="matrix(1 0 0 -1 49.499 66.14)"/><path d="m106.855 71.742 1.973-2.969-1.73.993-1.434-1.383M122.691 60.54l-1.972 2.968 1.73-.992 1.438 1.382" style="stroke:none;fill-rule:nonzero;fill:#000;fill-opacity:1"/><path d="m65.185-.512 18.101-6.586" style="fill:none;stroke-width:.3985;stroke-linecap:butt;stroke-linejoin:miter;stroke:#000;stroke-opacity:1;stroke-miterlimit:10" transform="matrix(1 0 0 -1 49.499 66.14)"/><path d="m134.66 73.922-2.453-2.59.578 1.906-1.668 1.094" style="stroke:none;fill-rule:nonzero;fill:#000;fill-opacity:1"/><use xlink:href="#b" x="112.38" y="68.668" style="fill:#000;fill-opacity:1"/><use xlink:href="#c" x="136.654" y="73.662" style="fill:#000;fill-opacity:1"/><use xlink:href="#d" x="136.658" y="73.662" style="fill:#000;fill-opacity:1"/><use xlink:href="#e" x="138.482" y="77.522" style="fill:#000;fill-opacity:1"/><use xlink:href="#f" x="119.107" y="29.247" style="fill:#000;fill-opacity:1"/><path d="M.001-21.258h17.473" style="fill:none;stroke-width:1.59404;stroke-linecap:round;stroke-linejoin:miter;stroke:#369;stroke-opacity:1;stroke-miterlimit:10" transform="matrix(1 0 0 -1 49.499 66.14)"/><path d="m70.758 87.398-6.055-3.027 2.27 3.027-2.27 3.032" style="stroke:none;fill-rule:nonzero;fill:#369;fill-opacity:1"/><path d="M46.77-21.258H29.299" style="fill:none;stroke-width:1.59404;stroke-linecap:round;stroke-linejoin:miter;stroke:#369;stroke-opacity:1;stroke-miterlimit:10" transform="matrix(1 0 0 -1 49.499 66.14)"/><path d="m75.012 87.398 6.054 3.032-2.27-3.032 2.27-3.027" style="stroke:none;fill-rule:nonzero;fill:#369;fill-opacity:1"/></svg>