<svg xmlns="http://www.w3.org/2000/svg" xmlns:xlink="http://www.w3.org/1999/xlink" width="239.267" height="220.573" viewBox="0 0 179.45 165.43"><defs><symbol id="a" overflow="visible"><path d="M6.047-2.047c.172 0 .344 0 .344-.203 0-.188-.188-.188-.344-.188H1.109c-.156 0-.343 0-.343.188 0 .203.171.203.343.203Zm0 0" style="stroke:none"/></symbol><symbol id="b" overflow="visible"><path d="M7.625-2.047c-1.063.75-1.281 1.938-1.281 2.031 0 .125.125.125.187.125.11 0 .172 0 .203-.125.25-1.046.86-1.75 1.844-2.109.047-.016.125-.047.125-.125s-.062-.094-.125-.125c-1.125-.422-1.64-1.219-1.844-2.094-.03-.125-.062-.125-.203-.125-.078 0-.187 0-.187.125 0 .094.218 1.282 1.281 2.032H.844c-.156 0-.328 0-.328.187 0 .203.171.203.328.203Zm0 0" style="stroke:none"/></symbol><symbol id="n" overflow="visible"><path d="M4.094-2.25c0-1-.828-1.781-1.782-1.781A1.794 1.794 0 0 0 .516-2.25c0 1 .828 1.797 1.78 1.797A1.807 1.807 0 0 0 4.095-2.25Zm0 0" style="stroke:none"/></symbol><symbol id="c" overflow="visible"><path d="M4.375-2.922c.047-.234.156-.64.156-.687 0-.11-.078-.25-.281-.25a.402.402 0 0 0-.328.187c-.031.078-.64 2.516-.703 2.813-.188.328-.547.734-1.047.734-.547 0-.547-.563-.547-.734 0-.407.11-.844.5-1.844.078-.219.125-.344.125-.5a.739.739 0 0 0-.766-.766c-.859 0-1.218 1.281-1.218 1.39 0 .079.062.11.125.11.093 0 .109-.062.14-.172.188-.656.531-1.093.922-1.093.188 0 .219.125.219.296 0 .141-.047.313-.125.516-.422 1.125-.531 1.5-.531 1.922 0 1 .812 1.094 1.14 1.094.5 0 .875-.313 1.094-.594.172.594.766.594.813.594.265 0 .484-.125.671-.469.157-.297.297-.875.297-.906 0-.047-.031-.11-.11-.11-.109 0-.124.047-.155.22-.188.702-.375 1.046-.672 1.046-.219 0-.282-.188-.282-.406 0-.172.047-.36.126-.672l.218-.922Zm0 0" style="stroke:none"/></symbol><symbol id="d" overflow="visible"><path d="M1.25-.766c.188-.218.672-.671 1.063-1 .671-.562.874-.75.984-.875.734-.718.984-1.171.984-1.218 0-.016 0-.11-.125-.11-.078 0-.093.031-.14.11-.11.171-.36.562-.657.562-.187 0-.296-.11-.5-.328-.218-.234-.39-.344-.625-.344-.687 0-1.109.828-1.109 1.047 0 .031.016.11.11.11.093 0 .124-.063.124-.079.172-.437.704-.437.782-.437.203 0 .421.062.609.14.36.11.516.11.656.11-.281.312-.781.75-1.36 1.234-.437.375-.718.657-.921.844-.328.36-.734.906-.734 1 0 .063.046.094.125.094.078 0 .093-.032.14-.078.344-.547.688-.579.781-.579.22 0 .344.125.547.36.204.234.407.297.579.297.921 0 1.468-1.14 1.468-1.39 0-.079-.062-.11-.125-.11-.094 0-.11.062-.125.11-.25.655-.89.765-1.125.765-.156 0-.344-.047-.61-.14-.187-.048-.39-.126-.577-.126-.094 0-.188.031-.219.031Zm0 0" style="stroke:none"/></symbol><symbol id="g" overflow="visible"><path d="M1.469-.688c-.094.329-.11.407-.782.407-.171 0-.265 0-.265.172C.422 0 .516 0 .672 0h3.265c1.454 0 2.516-1.063 2.516-1.922 0-.64-.531-1.187-1.406-1.281 1.016-.203 1.89-.875 1.89-1.672 0-.703-.656-1.25-1.718-1.25H2.156c-.172 0-.265 0-.265.156 0 .125.078.125.265.125.031 0 .188 0 .344.016.14.016.203.031.203.14 0 .032 0 .079-.031.172Zm1.39-2.609L3.406-5.5c.078-.328.094-.344.485-.344h1.203c.937 0 1.015.703 1.015.922 0 .813-.828 1.625-1.843 1.625ZM2.438-.28H2.25c-.094-.016-.11-.031-.11-.094 0-.016 0-.031.032-.203l.625-2.5h1.687c.563 0 1.125.25 1.125 1.062 0 .891-.812 1.735-1.89 1.735Zm0 0" style="stroke:none"/></symbol><symbol id="j" overflow="visible"><path d="M3.422-5.422c.078-.344.11-.422.828-.422.172 0 .266 0 .266-.172 0-.093-.094-.109-.141-.109-.188 0-.39.016-.578.016-.203 0-.547.015-.61.015-.203 0-.406-.015-.609-.015-.187 0-.406-.016-.594-.016-.046 0-.171 0-.171.156 0 .125.093.125.265.125.203 0 .406 0 .578.063a.275.275 0 0 1 .016.093c0 .032-.016.125-.016.157L1.437-.688c-.078.313-.093.407-.796.407-.188 0-.297 0-.297.172 0 .03.031.109.14.109.172 0 .375-.016.563-.016.203 0 .422-.015.625-.015s.406.015.61.015c.187 0 .405.016.593.016.063 0 .172 0 .172-.156 0-.125-.094-.125-.266-.125-.344 0-.61 0-.61-.156 0-.063 0-.079.048-.204Zm0 0" style="stroke:none"/></symbol><symbol id="m" overflow="visible"><path d="M.875-1.25c.11.828.438 1.36 1.047 1.36.547 0 1.094-.485 1.422-.782.015-.015.031-.031.031-.094 0-.046-.063-.125-.125-.125-.031 0-.047 0-.125.079-.578.546-.89.703-1.188.703-.125 0-.328 0-.453-.407a2.796 2.796 0 0 1-.109-.78c0-.141 0-.313.047-.47 0 0 0-.015.172-.187.39-.406.906-.984 1.265-1.531.704-1.079.766-1.875.766-2.125 0-.313-.078-.72-.547-.72-.406 0-.703.376-.828.532C1.422-4.766.844-2.875.844-1.719c0 .047 0 .11.015.157-.218.187-.421.375-.625.578C.22-.97.156-.906.125-.891c-.016.032-.031.063-.031.094s.031.14.11.14c.077 0 .421-.343.515-.452Zm.594-.938c.062-.359.375-1.734.672-2.53.109-.282.515-1.376.953-1.376.25 0 .297.235.297.453 0 .141-.032.704-.391 1.438-.531 1.047-1.516 2.016-1.531 2.016Zm0 0" style="stroke:none"/></symbol><symbol id="o" overflow="visible"><path d="M3.625-3.625a.523.523 0 0 0-.453.484c0 .172.125.329.36.329.234 0 .484-.204.484-.547 0-.344-.329-.61-.766-.61-.672 0-1.047.5-1.172.672-.11-.484-.515-.672-.844-.672-.328 0-.53.203-.687.516a3.399 3.399 0 0 0-.281.875c0 .078.062.11.125.11.093 0 .109-.048.156-.235.172-.703.36-1.031.656-1.031.281 0 .281.28.281.421 0 .188-.078.454-.125.688-.062.234-.156.625-.187.734L.812-.42C.75-.204.75-.189.75-.157c0 .11.078.25.266.25.296 0 .359-.235.421-.5.11-.39.11-.406.188-.766.344-1.344.39-1.562.406-1.61.063-.109.469-.952 1.219-.952.203 0 .328.062.375.109Zm0 0" style="stroke:none"/></symbol><symbol id="p" overflow="visible"><path d="M2.453.078c.078.016.14.016.313.016 1.515 0 2.921-1.375 2.921-2.797 0-.735-.39-1.266-1.062-1.266-1.39 0-1.984 2.047-2.406 3.453-.938-.171-1.5-.625-1.5-1.296 0-.235.203-1.22.75-1.829.078-.078.078-.093.078-.125 0-.015 0-.093-.125-.093-.281 0-.969 1.312-.969 2.14 0 .985.797 1.563 1.594 1.735-.188.562-.516 1.609-.516 1.671 0 .172.14.266.266.266.031 0 .312 0 .375-.328.11-.422.203-1.063.281-1.547Zm.11-.547c.03-.125.078-.422.093-.547.094-.421.203-1.093.672-1.687.297-.39.703-.703 1.203-.703.516 0 .875.344.875.89C5.406-1.5 4.25-.453 2.844-.453c-.094 0-.188 0-.281-.016Zm0 0" style="stroke:none"/></symbol><symbol id="f" overflow="visible"><path d="M3.484-1.078c0 .156 0 .187-.125.375a1.3 1.3 0 0 1-1.046.578c-.391 0-.75-.219-.985-.594-.234-.39-.25-.906-.25-1.203 0-.422.047-.89.281-1.25a1.262 1.262 0 0 1 1.047-.562c.375 0 .735.187.969.53.11.142.11.142.11.313Zm.032-2.36c-.047-.046-.454-.53-1.141-.53-1.11 0-2.063.89-2.063 2.046 0 1.11.891 2.016 1.954 2.016A1.59 1.59 0 0 0 3.484-.47v.563L4.844 0v-.281c-.61 0-.688-.063-.688-.5V-6.22l-1.328.094v.281c.61 0 .688.063.688.5Zm0 0" style="stroke:none"/></symbol><symbol id="h" overflow="visible"><path d="M1.703-1.797c.016-.016.156-.297.39-.484a.85.85 0 0 1 .516-.156c.047 0 .25 0 .407.078-.157.062-.25.203-.25.328 0 .187.156.234.234.234.172 0 .344-.14.344-.375 0-.312-.344-.469-.719-.469-.156 0-.531.016-.89.438-.094-.313-.407-.438-.657-.438-.266 0-.406.172-.484.313-.14.234-.235.562-.235.61 0 .062.063.077.11.077.094 0 .11-.03.14-.125.11-.468.25-.671.454-.671.187 0 .218.171.218.296 0 .094-.062.344-.11.5-.046.172-.093.407-.124.547C1-.954.969-.797.922-.64c-.047.172-.11.47-.11.5 0 .141.094.203.204.203A.286.286 0 0 0 1.28-.14c.016-.047.25-.953.282-1.093Zm0 0" style="stroke:none"/></symbol><symbol id="i" overflow="visible"><path d="M3.266-2.875c0-.688-.297-1.344-.891-1.344-.938 0-1.922 1.563-1.922 2.938 0 .781.344 1.343.89 1.343.938 0 1.923-1.593 1.923-2.937Zm-2.11.672c.375-1.485.922-1.813 1.203-1.813.422 0 .422.72.422.813 0 .047 0 .39-.156 1Zm1.407.25C2.219-.61 1.687-.141 1.359-.141.953-.14.938-.734.938-.953c0-.203.015-.453.156-1Zm0 0" style="stroke:none"/></symbol><symbol id="k" overflow="visible"><path d="M8.047 0v-.281h-.203c-.688 0-.703-.094-.703-.422v-4.719c0-.328.015-.422.703-.422h.203v-.281h-1.5c-.188 0-.25 0-.313.156L4.22-.875l-2-5.047c-.078-.187-.078-.203-.328-.203H.39v.281h.203c.687 0 .703.094.703.422v4.469c0 .25 0 .672-.906.672V0C.875-.016 1-.031 1.437-.031c.438 0 .579.015 1.063.031v-.281c-.922 0-.922-.422-.922-.672V-5.75l.016-.016L3.797-.203c.047.125.078.203.187.203.094 0 .141-.078.172-.156l2.25-5.672v5.125c0 .328-.015.422-.703.422H5.5V0c.531-.031 1.14-.031 1.266-.031.062 0 .718 0 1.28.031Zm0 0" style="stroke:none"/></symbol><symbol id="l" overflow="visible"><path d="M5.75-4.453c0-.89-.922-1.672-2.172-1.672H.36v.281h.204c.687 0 .718.094.718.422v4.719c0 .328-.031.422-.718.422H.359V0c.407-.031.907-.031 1.313-.031.422 0 .922 0 1.328.031v-.281h-.203c-.703 0-.719-.094-.719-.422v-2.11h1.5c1.25 0 2.172-.78 2.172-1.64Zm-.922 0c0 .406 0 1.39-1.484 1.39H2.047v-2.421c0-.297.031-.36.453-.36h.86c1.468 0 1.468.985 1.468 1.39Zm0 0" style="stroke:none"/></symbol><clipPath id="e"><path d="M102 69h77.45v61H102Zm0 0"/></clipPath></defs><path d="m0 42.521 11.547-14.12" style="fill:none;stroke-width:.79701;stroke-linecap:butt;stroke-linejoin:miter;stroke:#000;stroke-opacity:1;stroke-miterlimit:10" transform="matrix(1 0 0 -1 81.394 95.873)"/><path d="m94.59 69.484-1.024-4.535-.625 2.524-2.597.109" style="stroke:none;fill-rule:nonzero;fill:#000;fill-opacity:1"/><use xlink:href="#a" x="92.622" y="64.384" style="fill:#000;fill-opacity:1"/><use xlink:href="#b" x="92.626" y="64.384" style="fill:#000;fill-opacity:1"/><use xlink:href="#c" x="94.579" y="68.245" style="fill:#000;fill-opacity:1"/><path d="M0 .002V85.04" style="fill:none;stroke-width:.3985;stroke-linecap:butt;stroke-linejoin:miter;stroke:gray;stroke-opacity:1;stroke-miterlimit:10" transform="matrix(1 0 0 -1 81.394 95.873)"/><use xlink:href="#d" x="79.057" y="8.84" style="fill:gray;fill-opacity:1"/><path d="m0 .002-30.019-30.02M0 .002h85.04" style="fill:none;stroke-width:.3985;stroke-linecap:butt;stroke-linejoin:miter;stroke:gray;stroke-opacity:1;stroke-miterlimit:10" transform="matrix(1 0 0 -1 81.394 95.873)"/><path d="M-22.515-22.514c35.226 0 73.86 10.078 86.297 22.516 12.433 12.433-6.043 22.512-41.266 22.512-35.226 0-73.863-10.079-86.297-22.512-12.433-12.438 6.043-22.516 41.266-22.516Zm0 0" style="fill:none;stroke-width:.3985;stroke-linecap:butt;stroke-linejoin:miter;stroke:#000;stroke-opacity:1;stroke-dasharray:.3985,1.99255;stroke-miterlimit:10" transform="matrix(1 0 0 -1 81.394 95.873)"/><g clip-path="url(#e)"><path d="M43.981-11.256 83.254 3.643" style="fill:none;stroke-width:1.59404;stroke-linecap:round;stroke-linejoin:miter;stroke:#369;stroke-opacity:1;stroke-miterlimit:10" transform="matrix(1 0 0 -1 81.394 95.873)"/></g><path d="m168.195 90.883-6.757-.688 3.21 2.035-1.054 3.649" style="stroke:none;fill-rule:nonzero;fill:#369;fill-opacity:1"/><use xlink:href="#a" x="161.927" y="82.663" style="fill:#369;fill-opacity:1"/><use xlink:href="#b" x="165.257" y="82.663" style="fill:#369;fill-opacity:1"/><use xlink:href="#f" x="161.927" y="88.89" style="fill:#369;fill-opacity:1"/><use xlink:href="#g" x="167.047" y="88.89" style="fill:#369;fill-opacity:1"/><path d="m43.981-11.256 19.477-4.988" style="fill:none;stroke-width:.79701;stroke-linecap:butt;stroke-linejoin:miter;stroke:#000;stroke-opacity:1;stroke-miterlimit:10" transform="matrix(1 0 0 -1 81.394 95.873)"/><path d="m147.363 112.758-3.504-3.04.993 2.4-2.024 1.624" style="stroke:none;fill-rule:nonzero;fill:#000;fill-opacity:1"/><use xlink:href="#a" x="149.356" y="111.999" style="fill:#000;fill-opacity:1"/><use xlink:href="#b" x="149.611" y="111.999" style="fill:#000;fill-opacity:1"/><use xlink:href="#c" x="149.356" y="115.86" style="fill:#000;fill-opacity:1"/><use xlink:href="#h" x="154.659" y="116.856" style="fill:#000;fill-opacity:1"/><path d="m43.981-11.256 14.7 5.574" style="fill:none;stroke-width:.79701;stroke-linecap:butt;stroke-linejoin:miter;stroke:#000;stroke-opacity:1;stroke-miterlimit:10" transform="matrix(1 0 0 -1 81.394 95.873)"/><path d="m142.504 100.633-4.625-.469 2.195 1.39-.719 2.497" style="stroke:none;fill-rule:nonzero;fill:#000;fill-opacity:1"/><use xlink:href="#a" x="130.987" y="93.715" style="fill:#000;fill-opacity:1"/><use xlink:href="#b" x="131.304" y="93.715" style="fill:#000;fill-opacity:1"/><use xlink:href="#c" x="130.987" y="97.576" style="fill:#000;fill-opacity:1"/><use xlink:href="#i" x="136.29" y="98.638" style="fill:#000;fill-opacity:1"/><path d="M0-63.78V82.917" style="fill:none;stroke-width:1.59404;stroke-linecap:butt;stroke-linejoin:miter;stroke:#000;stroke-opacity:1;stroke-miterlimit:10" transform="matrix(1 0 0 -1 81.394 95.873)"/><path d="m81.395 117.133-3.028 6.058 3.028-2.273 3.027 2.273" style="stroke:none;fill-rule:nonzero;fill:#000;fill-opacity:1"/><use xlink:href="#j" x="72.679" y="126.043" style="fill:#000;fill-opacity:1"/><path d="m0 42.521 43.981-53.777" style="fill:none;stroke-width:.3985;stroke-linecap:butt;stroke-linejoin:miter;stroke:#000;stroke-opacity:1;stroke-dasharray:2.98883,2.98883;stroke-miterlimit:10" transform="matrix(1 0 0 -1 81.394 95.873)"/><use xlink:href="#k" x="121.151" y="115.3" style="fill:#000;fill-opacity:1"/><path d="M0 44.38v-5.812" style="fill:none;stroke-width:.3985;stroke-linecap:butt;stroke-linejoin:miter;stroke:#000;stroke-opacity:1;stroke-miterlimit:10" transform="matrix(1 0 0 -1 81.394 95.873)"/><path d="M81.395 49.5 79.8 52.688l1.594-1.196 1.593 1.196" style="stroke:none;fill-rule:nonzero;fill:#000;fill-opacity:1"/><path d="M.098-2.59v5.18" style="fill:none;stroke-width:.3985;stroke-linecap:square;stroke-linejoin:miter;stroke:#000;stroke-opacity:1;stroke-miterlimit:10" transform="matrix(0 -1 -1 0 81.394 49.398)"/><path d="M.098-2.59v5.18" style="fill:none;stroke-width:.3985;stroke-linecap:square;stroke-linejoin:miter;stroke:#000;stroke-opacity:1;stroke-miterlimit:10" transform="matrix(0 1 1 0 81.394 57.305)"/><path d="M0 42.986v-4.715" style="fill:none;stroke-width:1.59404;stroke-linecap:butt;stroke-linejoin:miter;stroke:gray;stroke-opacity:1;stroke-miterlimit:10" transform="matrix(1 0 0 -1 81.394 95.873)"/><path d="m81.395 49.098-3.028 6.058 3.028-2.27 3.027 2.27" style="stroke:none;fill-rule:nonzero;fill:gray;fill-opacity:1"/><use xlink:href="#l" x="71.138" y="56.44" style="fill:#000;fill-opacity:1"/><path d="M3.981 43.248c3.105 1.21 5.848 4.637 6.648 9.902" style="fill:none;stroke-width:.3985;stroke-linecap:butt;stroke-linejoin:miter;stroke:#000;stroke-opacity:1;stroke-miterlimit:10" transform="matrix(1 0 0 -1 81.394 95.873)"/><path d="m83.52 53.352 3.55.324-1.695-1.051.535-1.918" style="stroke:none;fill-rule:nonzero;fill:#000;fill-opacity:1"/><use xlink:href="#a" x="93.02" y="35.499" style="fill:#000;fill-opacity:1"/><use xlink:href="#b" x="93.024" y="35.499" style="fill:#000;fill-opacity:1"/><use xlink:href="#f" x="93.166" y="41.726" style="fill:#000;fill-opacity:1"/><use xlink:href="#m" x="98.285" y="41.726" style="fill:#000;fill-opacity:1"/><path d="m0 .002 43.981-11.258" style="fill:none;stroke-width:.3985;stroke-linecap:butt;stroke-linejoin:miter;stroke:#000;stroke-opacity:1;stroke-dasharray:2.98883,2.98883;stroke-miterlimit:10" transform="matrix(1 0 0 -1 81.394 95.873)"/><use xlink:href="#n" x="123.07" y="109.147" style="fill:#000;fill-opacity:1"/><use xlink:href="#o" x="101.177" y="108.351" style="fill:#000;fill-opacity:1"/><path d="M4.403-1.127v4.254L0 4.252" style="fill:none;stroke-width:1.39478;stroke-linecap:butt;stroke-linejoin:miter;stroke:#fff;stroke-opacity:1;stroke-miterlimit:10" transform="matrix(1 0 0 -1 81.394 95.873)"/><path d="M4.403-1.127v4.254L0 4.252" style="fill:none;stroke-width:.59776;stroke-linecap:butt;stroke-linejoin:miter;stroke:#000;stroke-opacity:1;stroke-miterlimit:10" transform="matrix(1 0 0 -1 81.394 95.873)"/><path d="M29.32-7.506C27.4-3.029 27.873.974 30.787 4.877" style="fill:none;stroke-width:.3985;stroke-linecap:butt;stroke-linejoin:miter;stroke:#000;stroke-opacity:1;stroke-miterlimit:10" transform="matrix(1 0 0 -1 81.394 95.873)"/><path d="M100.71 99.395h6.02v-5.606h-6.02Zm0 0" style="stroke:none;fill-rule:nonzero;fill:#fff;fill-opacity:1"/><use xlink:href="#p" x="100.711" y="97.649" style="fill:#000;fill-opacity:1"/></svg>