<svg xmlns="http://www.w3.org/2000/svg" xmlns:xlink="http://www.w3.org/1999/xlink" width="181.32" height="151.043" viewBox="0 0 135.99 113.282"><defs><symbol id="a" overflow="visible"><path d="M3.25-3.531c-.188.062-.36.172-.36.422 0 .218.157.406.422.406.235 0 .422-.172.422-.438 0-.64-.765-.859-1.312-.875h-.094A2.04 2.04 0 0 0 .313-1.953c0 1.094.859 2.047 2 2.047.624 0 1.203-.328 1.453-.969.015-.063.062-.14.062-.203s-.062-.11-.125-.11c-.156 0-.156.235-.234.36-.219.406-.61.672-1.094.672-.984 0-1.297-1.125-1.297-1.813 0-.734.266-1.797 1.266-1.797.25 0 .515.032.734.141.063.016.11.063.172.094Zm0 0" style="stroke:none"/></symbol><symbol id="b" overflow="visible"><path d="M.36-3.86v.266H.5c.297 0 .516.047.516.453v2.485c0 .36-.25.375-.688.375v.265h1.938V-.28h-.141c-.234 0-.469-.031-.469-.313v-3.375Zm.765-2.156c-.234.047-.422.235-.422.485s.219.468.485.468h.062a.474.474 0 0 0 .422-.468.477.477 0 0 0-.484-.485Zm0 0" style="stroke:none"/></symbol><symbol id="c" overflow="visible"><path d="M.266-3.86v.266h.14c.281 0 .547.031.547.453v2.485c0 .36-.234.375-.687.375v.265L.89-.03h1.562v-.25h-.297c-.312 0-.562-.047-.562-.375v-1.516c.062-.625.234-1.562 1.14-1.562-.125.062-.171.203-.171.328a.39.39 0 1 0 .78 0c0-.375-.359-.563-.687-.563-.547 0-.984.469-1.11.969v-.969Zm0 0" style="stroke:none"/></symbol><symbol id="d" overflow="visible"><path d="M.313-3.86v.266H.39c.25 0 .593.031.593.281.016.11.016.188.016.297v1.782c0 .28.016.53.14.78.266.438.813.548 1.282.548.5 0 .984-.297 1.14-.766l.016.766 1.328-.11V-.28H4.75c-.266 0-.531-.031-.531-.438v-3.25l-1.36.11v.265h.125c.282 0 .563.031.563.453v1.766C3.5-.797 3.14-.141 2.453-.141c-.36 0-.687-.078-.765-.546-.016-.172-.016-.329-.016-.5V-3.97Zm0 0" style="stroke:none"/></symbol><symbol id="e" overflow="visible"><path d="M1.36-5.531c0 .656-.298 1.718-1.188 1.718v.22h.781v2.374c0 .282.016.547.156.782.22.39.672.53 1.079.53h.078c.687-.124.796-.859.796-1.39v-.328h-.25c0 .125.016.25.016.39 0 .391-.094 1.079-.625 1.079-.484 0-.594-.563-.594-1.016v-2.422h1.313v-.265H1.609v-1.672Zm0 0" style="stroke:none"/></symbol><symbol id="h" overflow="visible"><path d="M.39-6.14v.28h.313c.313 0 .61.032.61.376 0 .062-.016.125-.016.171v4.375c0 .594-.516.657-.906.657v.265H2.5V-.28c-.422 0-.938-.078-.938-.672 0-.094.016-.172.016-.25l.016-4.578c.047.187.125.375.203.547.531 1.28 1.031 2.593 1.547 3.89L3.75-.312c.047.109.078.296.234.296.157 0 .188-.203.235-.312.64-1.64 1.297-3.297 1.953-4.922.078-.188.172-.39.234-.594v5.14c0 .376-.281.423-.562.423H5.5v.265h2.547V-.28h-.344c-.281 0-.562-.031-.562-.406V-5.47c0-.343.296-.39.593-.39h.313v-.282H6.5l-.172.032-.094.14L4.22-.89c-.063-.14-.11-.296-.172-.453l-.375-.937c-.453-1.14-.906-2.297-1.36-3.438l-.093-.234c-.078-.14-.125-.188-.281-.188Zm0 0" style="stroke:none"/></symbol><symbol id="n" overflow="visible"><path d="M2.156-4.047c-.875.125-1.64.797-1.64 1.797 0 .89.687 1.813 1.812 1.813.953 0 1.766-.86 1.766-1.813 0-.89-.735-1.797-1.813-1.797h-.125Zm0 0" style="stroke:none"/></symbol><symbol id="o" overflow="visible"><path d="M.36-6.14v.28h.343c.297 0 .578.048.578.391v4.782c0 .39-.328.406-.672.406H.36v.265H3V-.28h-.313c-.39 0-.609-.047-.609-.422v-2.125h1.625c.875-.047 2.047-.547 2.047-1.625 0-1.031-1.063-1.625-2.047-1.688Zm1.687 3.062v-2.438c0-.234.094-.343.344-.343h.687c.781 0 1.75.046 1.75 1.406 0 .297-.031.672-.234.906-.328.406-.86.469-1.344.469Zm0 0" style="stroke:none"/></symbol><symbol id="g" overflow="visible"><path d="M3.625-3.625a.523.523 0 0 0-.453.484c0 .172.125.329.36.329.234 0 .484-.204.484-.547 0-.344-.329-.61-.766-.61-.672 0-1.047.5-1.172.672-.11-.484-.515-.672-.844-.672-.328 0-.53.203-.687.516a3.399 3.399 0 0 0-.281.875c0 .078.062.11.125.11.093 0 .109-.048.156-.235.172-.703.36-1.031.656-1.031.281 0 .281.28.281.421 0 .188-.078.454-.125.688-.062.234-.156.625-.187.734L.812-.42C.75-.204.75-.189.75-.157c0 .11.078.25.266.25.296 0 .359-.235.421-.5.11-.39.11-.406.188-.766.344-1.344.39-1.562.406-1.61.063-.109.469-.952 1.219-.952.203 0 .328.062.375.109Zm0 0" style="stroke:none"/></symbol><symbol id="k" overflow="visible"><path d="M4.375-2.922c.047-.234.156-.64.156-.687 0-.11-.078-.25-.281-.25a.402.402 0 0 0-.328.187c-.031.078-.64 2.516-.703 2.813-.188.328-.547.734-1.047.734-.547 0-.547-.563-.547-.734 0-.407.11-.844.5-1.844.078-.219.125-.344.125-.5a.739.739 0 0 0-.766-.766c-.859 0-1.218 1.281-1.218 1.39 0 .079.062.11.125.11.093 0 .109-.062.14-.172.188-.656.531-1.093.922-1.093.188 0 .219.125.219.296 0 .141-.047.313-.125.516-.422 1.125-.531 1.5-.531 1.922 0 1 .812 1.094 1.14 1.094.5 0 .875-.313 1.094-.594.172.594.766.594.813.594.265 0 .484-.125.671-.469.157-.297.297-.875.297-.906 0-.047-.031-.11-.11-.11-.109 0-.124.047-.155.22-.188.702-.375 1.046-.672 1.046-.219 0-.282-.188-.282-.406 0-.172.047-.36.126-.672l.218-.922Zm0 0" style="stroke:none"/></symbol><symbol id="m" overflow="visible"><path d="M.875-1.25c.11.828.438 1.36 1.047 1.36.547 0 1.094-.485 1.422-.782.015-.015.031-.031.031-.094 0-.046-.063-.125-.125-.125-.031 0-.047 0-.125.079-.578.546-.89.703-1.188.703-.125 0-.328 0-.453-.407a2.796 2.796 0 0 1-.109-.78c0-.141 0-.313.047-.47 0 0 0-.015.172-.187.39-.406.906-.984 1.265-1.531.704-1.079.766-1.875.766-2.125 0-.313-.078-.72-.547-.72-.406 0-.703.376-.828.532C1.422-4.766.844-2.875.844-1.719c0 .047 0 .11.015.157-.218.187-.421.375-.625.578C.22-.97.156-.906.125-.891c-.016.032-.031.063-.031.094s.031.14.11.14c.077 0 .421-.343.515-.452Zm.594-.938c.062-.359.375-1.734.672-2.53.109-.282.515-1.376.953-1.376.25 0 .297.235.297.453 0 .141-.032.704-.391 1.438-.531 1.047-1.516 2.016-1.531 2.016Zm0 0" style="stroke:none"/></symbol><symbol id="p" overflow="visible"><path d="M3.422-5.422c.078-.344.11-.422.828-.422.172 0 .266 0 .266-.172 0-.093-.094-.109-.141-.109-.188 0-.39.016-.578.016-.203 0-.547.015-.61.015-.203 0-.406-.015-.609-.015-.187 0-.406-.016-.594-.016-.046 0-.171 0-.171.156 0 .125.093.125.265.125.203 0 .406 0 .578.063a.275.275 0 0 1 .016.093c0 .032-.016.125-.016.157L1.437-.688c-.078.313-.093.407-.796.407-.188 0-.297 0-.297.172 0 .03.031.109.14.109.172 0 .375-.016.563-.016.203 0 .422-.015.625-.015s.406.015.61.015c.187 0 .405.016.593.016.063 0 .172 0 .172-.156 0-.125-.094-.125-.266-.125-.344 0-.61 0-.61-.156 0-.063 0-.079.048-.204Zm0 0" style="stroke:none"/></symbol><symbol id="q" overflow="visible"><path d="M1.469-.688c-.094.329-.11.407-.782.407-.171 0-.265 0-.265.172C.422 0 .516 0 .672 0h3.265c1.454 0 2.516-1.063 2.516-1.922 0-.64-.531-1.187-1.406-1.281 1.016-.203 1.89-.875 1.89-1.672 0-.703-.656-1.25-1.718-1.25H2.156c-.172 0-.265 0-.265.156 0 .125.078.125.265.125.031 0 .188 0 .344.016.14.016.203.031.203.14 0 .032 0 .079-.031.172Zm1.39-2.609L3.406-5.5c.078-.328.094-.344.485-.344h1.203c.937 0 1.015.703 1.015.922 0 .813-.828 1.625-1.843 1.625ZM2.438-.28H2.25c-.094-.016-.11-.031-.11-.094 0-.016 0-.031.032-.203l.625-2.5h1.687c.563 0 1.125.25 1.125 1.062 0 .891-.812 1.735-1.89 1.735Zm0 0" style="stroke:none"/></symbol><symbol id="i" overflow="visible"><path d="M6.047-2.047c.172 0 .344 0 .344-.203 0-.188-.188-.188-.344-.188H1.109c-.156 0-.343 0-.343.188 0 .203.171.203.343.203Zm0 0" style="stroke:none"/></symbol><symbol id="j" overflow="visible"><path d="M7.625-2.047c-1.063.75-1.281 1.938-1.281 2.031 0 .125.125.125.187.125.11 0 .172 0 .203-.125.25-1.046.86-1.75 1.844-2.109.047-.016.125-.047.125-.125s-.062-.094-.125-.125c-1.125-.422-1.64-1.219-1.844-2.094-.03-.125-.062-.125-.203-.125-.078 0-.187 0-.187.125 0 .094.218 1.282 1.281 2.032H.844c-.156 0-.328 0-.328.187 0 .203.171.203.328.203Zm0 0" style="stroke:none"/></symbol><symbol id="l" overflow="visible"><path d="M3.484-1.078c0 .156 0 .187-.125.375a1.3 1.3 0 0 1-1.046.578c-.391 0-.75-.219-.985-.594-.234-.39-.25-.906-.25-1.203 0-.422.047-.89.281-1.25a1.262 1.262 0 0 1 1.047-.562c.375 0 .735.187.969.53.11.142.11.142.11.313Zm.032-2.36c-.047-.046-.454-.53-1.141-.53-1.11 0-2.063.89-2.063 2.046 0 1.11.891 2.016 1.954 2.016A1.59 1.59 0 0 0 3.484-.47v.563L4.844 0v-.281c-.61 0-.688-.063-.688-.5V-6.22l-1.328.094v.281c.61 0 .688.063.688.5Zm0 0" style="stroke:none"/></symbol><clipPath id="f"><path d="M37 0h94v113.281H37Zm0 0"/></clipPath></defs><path d="m-5.67-9.807 5.375.078 5.38.235 5.3.41 5.133.598 4.89.808 4.57 1.051 4.172 1.309 3.715 1.593 3.2 1.887L38.69.357l2.015 2.489 1.375 2.77.711 3.01.035 3.208-.636 3.348-1.31 3.406-1.952 3.39-2.563 3.282-3.14 3.078-3.66 2.797-4.133 2.414-4.532 1.965-4.859 1.453-5.113.883-5.285.304-5.375-.312-5.38-.89-5.3-1.458-5.133-1.969-4.89-2.418-4.567-2.796-4.172-3.083-3.71-3.28-3.196-3.395-2.625-3.403-2.012-3.347-1.367-3.207-.707-3.012-.035-2.766.644-2.484 1.309-2.191 1.957-1.887 2.566-1.59 3.141-1.305 3.668-1.047 4.133-.808 4.531-.594 4.863-.41 5.114-.234 5.285-.075" style="fill:none;stroke-width:.79701;stroke-linecap:butt;stroke-linejoin:miter;stroke:#000;stroke-opacity:1;stroke-miterlimit:10" transform="matrix(1 0 0 -1 48.205 90.373)"/><path d="m48.203 100.09-4.23-1.887 1.644 2-1.46 2.14" style="stroke:none;fill-rule:nonzero;fill:#000;fill-opacity:1"/><path d="M42.522 7.088c8.164-1.442-8.168-19.82-1.965-20.914" style="fill:none;stroke-width:.3985;stroke-linecap:butt;stroke-linejoin:miter;stroke:#000;stroke-opacity:1;stroke-miterlimit:10" transform="matrix(1 0 0 -1 48.205 90.373)"/><path d="m90.727 104.547-2.864-2.125.899 1.777-1.453 1.364" style="stroke:none;fill-rule:nonzero;fill:#000;fill-opacity:1"/><g style="fill:#000;fill-opacity:1"><use xlink:href="#a" x="92.717" y="107.528"/><use xlink:href="#b" x="96.812" y="107.528"/><use xlink:href="#c" x="99.371" y="107.528"/><use xlink:href="#a" x="102.975" y="107.528"/><use xlink:href="#d" x="107.07" y="107.528"/><use xlink:href="#b" x="112.188" y="107.528"/><use xlink:href="#e" x="114.747" y="107.528"/></g><g clip-path="url(#f)"><path d="m20.404-7.678 30.621 82.91" style="fill:none;stroke-width:2.19182;stroke-linecap:butt;stroke-linejoin:miter;stroke:#fff;stroke-opacity:1;stroke-miterlimit:10" transform="matrix(1 0 0 -1 48.205 90.373)"/></g><path d="m20.404-7.678 30.621 82.91" style="fill:none;stroke-width:.59776;stroke-linecap:butt;stroke-linejoin:miter;stroke:gray;stroke-opacity:1;stroke-miterlimit:10" transform="matrix(1 0 0 -1 48.205 90.373)"/><use xlink:href="#g" x="83.636" y="41.945" style="fill:#000;fill-opacity:1"/><use xlink:href="#h" x="95.006" y="11.157" style="fill:#000;fill-opacity:1"/><path d="m20.404-7.678 5.227 14.153" style="fill:none;stroke-width:.79701;stroke-linecap:butt;stroke-linejoin:miter;stroke:#000;stroke-opacity:1;stroke-miterlimit:10" transform="matrix(1 0 0 -1 48.205 90.373)"/><path d="m74.734 81.469-3.379 3.168 2.48-.739 1.407 2.176" style="stroke:none;fill-rule:nonzero;fill:#000;fill-opacity:1"/><use xlink:href="#i" x="76.726" y="81.207" style="fill:#000;fill-opacity:1"/><use xlink:href="#j" x="76.73" y="81.207" style="fill:#000;fill-opacity:1"/><use xlink:href="#k" x="78.682" y="85.068" style="fill:#000;fill-opacity:1"/><path d="m20.404-7.678 6.243 1.684" style="fill:none;stroke-width:.79701;stroke-linecap:butt;stroke-linejoin:miter;stroke:#ec008c;stroke-opacity:1;stroke-miterlimit:10" transform="matrix(1 0 0 -1 48.205 90.373)"/><path d="m77.352 95.695-4.543-.925 2.043 1.597-.961 2.406" style="stroke:none;fill-rule:nonzero;fill:#ec008c;fill-opacity:1"/><use xlink:href="#i" x="72.743" y="101.024" style="fill:#ec008c;fill-opacity:1"/><use xlink:href="#j" x="72.747" y="101.024" style="fill:#ec008c;fill-opacity:1"/><use xlink:href="#l" x="72.888" y="107.251" style="fill:#ec008c;fill-opacity:1"/><use xlink:href="#m" x="78.008" y="107.251" style="fill:#ec008c;fill-opacity:1"/><use xlink:href="#n" x="66.307" y="100.066" style="fill:#000;fill-opacity:1"/><use xlink:href="#o" x="60.348" y="96.057" style="fill:#000;fill-opacity:1"/><use xlink:href="#p" x="40.17" y="108.301" style="fill:#000;fill-opacity:1"/><path d="m51.025 75.232 23.118-9.582" style="fill:none;stroke-width:.79701;stroke-linecap:butt;stroke-linejoin:miter;stroke:#369;stroke-opacity:1;stroke-miterlimit:10" transform="matrix(1 0 0 -1 48.205 90.373)"/><path d="m124.742 25.715-3.035-3.5.64 2.508-2.226 1.32" style="stroke:none;fill-rule:nonzero;fill:#369;fill-opacity:1"/><use xlink:href="#n" x="96.925" y="17.158" style="fill:#369;fill-opacity:1"/><use xlink:href="#i" x="118.47" y="31.046" style="fill:#369;fill-opacity:1"/><use xlink:href="#j" x="121.791" y="31.046" style="fill:#369;fill-opacity:1"/><use xlink:href="#l" x="118.47" y="37.272" style="fill:#369;fill-opacity:1"/><use xlink:href="#q" x="123.59" y="37.272" style="fill:#369;fill-opacity:1"/><path d="m56.127 73.12-2.145-5.806-5.101 2.114" style="fill:none;stroke-width:.3985;stroke-linecap:butt;stroke-linejoin:miter;stroke:gray;stroke-opacity:1;stroke-miterlimit:10" transform="matrix(1 0 0 -1 48.205 90.373)"/></svg>