<svg xmlns="http://www.w3.org/2000/svg" xmlns:xlink="http://www.w3.org/1999/xlink" width="275.547" height="212.8" viewBox="0 0 206.66 159.6"><defs><symbol id="f" overflow="visible"><path d="M5.75-4.453c0-.89-.922-1.672-2.172-1.672H.36v.281h.204c.687 0 .718.094.718.422v4.719c0 .328-.031.422-.718.422H.359V0c.407-.031.907-.031 1.313-.031.422 0 .922 0 1.328.031v-.281h-.203c-.703 0-.719-.094-.719-.422v-2.11h1.5c1.25 0 2.172-.78 2.172-1.64Zm-.922 0c0 .406 0 1.39-1.484 1.39H2.047v-2.421c0-.297.031-.36.453-.36h.86c1.468 0 1.468.985 1.468 1.39Zm0 0" style="stroke:none"/></symbol><symbol id="g" overflow="visible"><path d="M2.344 0v-.281c-.594 0-.688 0-.688-.406V-6.22l-1.328.094v.281c.61 0 .688.063.688.5v4.657c0 .406-.094.406-.688.406V0c.422-.016.594-.031 1-.031.422 0 .578.015 1.016.031Zm0 0" style="stroke:none"/></symbol><symbol id="h" overflow="visible"><path d="M4.453-.797v-.5h-.25v.484c0 .11 0 .547-.312.547-.329 0-.329-.421-.329-.562v-1.578c0-.516 0-.813-.406-1.188-.328-.297-.765-.422-1.203-.422-.766 0-1.39.375-1.39.954 0 .265.187.421.421.421.25 0 .422-.171.422-.406 0-.39-.406-.437-.406-.437.234-.235.672-.313.922-.313.469 0 .969.344.969 1.14v.282c-.485.031-1.157.063-1.75.36-.641.312-.844.78-.844 1.14 0 .734.875.969 1.469.969a1.31 1.31 0 0 0 1.218-.735c.032.375.297.688.688.688.219 0 .781-.125.781-.844Zm-1.562-.469c0 .875-.672 1.141-1.063 1.141-.422 0-.812-.313-.812-.75 0-.594.515-1.219 1.875-1.281Zm0 0" style="stroke:none"/></symbol><symbol id="i" overflow="visible"><path d="M4.906 0v-.281c-.453 0-.687 0-.687-.281v-1.72c0-.734 0-1-.25-1.312-.203-.25-.547-.375-1-.375-.828 0-1.219.625-1.344.875h-.016v-.875l-1.296.11v.265c.609 0 .687.063.687.516v2.39C1-.28.906-.28.312-.28V0c.422-.016.594-.031 1.032-.031.422 0 .547.015 1.015.031v-.281c-.593 0-.687 0-.687-.406v-1.641c0-.953.672-1.406 1.234-1.406.531 0 .64.437.64.968v2.079c0 .406-.093.406-.687.406V0c.422-.016.594-.031 1.032-.031.421 0 .546.015 1.015.031Zm0 0" style="stroke:none"/></symbol><symbol id="j" overflow="visible"><path d="M4.844 0v-.281c-.61 0-.688-.063-.688-.5V-6.22l-1.328.094v.281c.61 0 .688.063.688.5v1.907c-.047-.047-.454-.532-1.141-.532-1.11 0-2.063.89-2.063 2.047 0 1.11.891 2.016 1.954 2.016A1.59 1.59 0 0 0 3.484-.47v.563Zm-1.36-1.078c0 .156 0 .187-.125.375a1.3 1.3 0 0 1-1.046.578c-.391 0-.75-.219-.985-.594-.234-.39-.25-.906-.25-1.203 0-.422.047-.89.281-1.25a1.262 1.262 0 0 1 1.047-.562c.375 0 .735.187.969.53.11.142.11.142.11.313Zm0 0" style="stroke:none"/></symbol><symbol id="k" overflow="visible"><path d="M1.89-5.281c0-.563-.234-.938-.609-.938-.328 0-.484.235-.484.485 0 .234.156.484.484.484.11 0 .219-.047.328-.125l.032-.031s.015.062.015.14c0 .594-.265 1.141-.703 1.547-.015.016-.031.047-.031.094 0 .031.047.094.11.094.093 0 .859-.672.859-1.75Zm0 0" style="stroke:none"/></symbol><symbol id="l" overflow="visible"><path d="M3.063-1.11v-.515h-.25v.484c0 .672-.282.985-.594.985-.61 0-.61-.781-.61-.953v-2.485h1.313v-.265H1.609v-1.657h-.25c0 .75-.312 1.672-1.187 1.704v.218h.781v2.485c0 1 .719 1.203 1.203 1.203.594 0 .906-.563.906-1.203Zm0 0" style="stroke:none"/></symbol><symbol id="m" overflow="visible"><path d="M2.266 0v-.281c-.579 0-.61-.047-.61-.39V-3.97l-1.297.11v.265c.579 0 .657.063.657.5v2.406c0 .407-.094.407-.688.407V0c.39-.016.594-.031.984-.031.141 0 .516 0 .954.031Zm-.5-5.406a.487.487 0 0 0-.485-.485.487.487 0 0 0-.484.485c0 .265.219.484.484.484a.487.487 0 0 0 .485-.484Zm0 0" style="stroke:none"/></symbol><symbol id="n" overflow="visible"><path d="M2.563-1.656v-.563H.092v.563Zm0 0" style="stroke:none"/></symbol><symbol id="o" overflow="visible"><path d="M3.313-1.14c0-.407-.172-.657-.376-.86-.296-.297-.624-.36-1.28-.484-.235-.047-.891-.157-.891-.672 0-.281.203-.672 1.015-.672.969 0 1.032.75 1.047.969.016.109.016.171.125.171.125 0 .125-.062.125-.234v-.86c0-.155 0-.234-.094-.234-.046 0-.062 0-.187.11-.016.015-.094.094-.156.14-.266-.203-.547-.25-.86-.25-1.187 0-1.468.657-1.468 1.11 0 .281.124.515.328.719.296.28.64.343 1.093.421.47.094.61.11.813.266.094.078.312.25.312.578 0 .797-.906.797-1.03.797-.907 0-1.141-.766-1.25-1.25-.032-.094-.048-.14-.141-.14-.126 0-.126.077-.126.234v1.14c0 .157 0 .235.094.235.063 0 .063 0 .235-.172a1.18 1.18 0 0 1 .171-.219c.375.375.797.39 1.016.39 1.11 0 1.484-.64 1.484-1.234Zm0 0" style="stroke:none"/></symbol><symbol id="p" overflow="visible"><path d="M4.656-3.594v-.265c-.281.015-.562.015-.672.015-.25 0-.53 0-.78-.015v.265c.405.031.405.344.405.39a.589.589 0 0 1-.062.25L2.64-.811l-1.016-2.36c-.047-.125-.047-.187-.047-.187 0-.235.313-.235.5-.235v-.265l-1 .015c-.031 0-.547 0-.89-.015v.265c.406 0 .578.031.687.266L2.281 0l-.219.531C1.86 1 1.61 1.61 1.016 1.61a.661.661 0 0 1-.391-.125c.063-.015.313-.078.313-.39A.36.36 0 0 0 .563.719c-.22 0-.391.14-.391.39 0 .391.39.735.844.735.593 0 .968-.532 1.187-1.016l1.625-3.797c.094-.234.266-.594.828-.625Zm0 0" style="stroke:none"/></symbol><symbol id="q" overflow="visible"><path d="M7.469 0v-.281c-.453 0-.672 0-.688-.281v-1.72c0-.78 0-1.03-.297-1.359-.187-.218-.546-.328-.953-.328-.656 0-1.093.375-1.343.86-.11-.532-.47-.86-1.22-.86-.718 0-1.155.469-1.343.89h-.016v-.89l-1.296.11v.265c.609 0 .687.063.687.516v2.39C1-.28.906-.28.312-.28V0c.422-.016.594-.031 1.032-.031.422 0 .547.015 1.015.031v-.281c-.593 0-.687 0-.687-.406v-1.641c0-.969.703-1.406 1.234-1.406.5 0 .656.343.656.968v2.079c0 .406-.093.406-.687.406V0c.422-.016.594-.031 1.016-.031.437 0 .546.015 1.03.031v-.281c-.593 0-.702 0-.702-.406v-1.641c0-.969.703-1.406 1.25-1.406.484 0 .64.343.64.968v2.079c0 .406-.093.406-.687.406V0c.422-.016.594-.031 1.031-.031.422 0 .547.015 1.016.031Zm0 0" style="stroke:none"/></symbol><symbol id="r" overflow="visible"><path d="M3.828-1.063a.123.123 0 0 0-.125-.125c-.094 0-.11.063-.125.11a1.273 1.273 0 0 1-1.234.922c-.438 0-.797-.235-1-.547-.297-.438-.313-.969-.313-1.344h2.563c.187 0 .234 0 .234-.203 0-.922-.5-1.766-1.656-1.766-1.063 0-1.906.938-1.906 2.047 0 1.172.937 2.063 2.03 2.063 1.095 0 1.532-.953 1.532-1.157Zm-.61-1.203H1.048c.078-1.39.875-1.53 1.125-1.53.5 0 1.031.374 1.047 1.53Zm-.03-3.64c0-.203-.172-.36-.329-.36-.156 0-.203.063-.28.172L1.483-4.75l.172.188L3-5.61c.125-.094.188-.172.188-.297Zm0 0" style="stroke:none"/></symbol><symbol id="s" overflow="visible"><path d="M3.344-3.406c0-.281-.266-.563-.672-.563-.531 0-.906.375-1.125.938v-.938l-1.281.11v.265c.609 0 .687.063.687.516v2.39C.953-.28.86-.28.266-.28V0C.75-.016.859-.031 1.312-.031L2.454 0v-.281h-.172c-.656 0-.687-.094-.687-.422v-1.344c0-.375.093-1.687 1.125-1.687-.016.015-.156.125-.156.328a.39.39 0 1 0 .78 0Zm0 0" style="stroke:none"/></symbol><symbol id="t" overflow="visible"><path d="M3.828-1.063a.123.123 0 0 0-.125-.125c-.094 0-.11.063-.125.11a1.273 1.273 0 0 1-1.234.922c-.438 0-.797-.235-1-.547-.297-.438-.313-.969-.313-1.344h2.563c.187 0 .234 0 .234-.203 0-.922-.5-1.766-1.656-1.766-1.063 0-1.906.938-1.906 2.047 0 1.172.937 2.063 2.03 2.063 1.095 0 1.532-.953 1.532-1.157Zm-.61-1.203H1.048c.078-1.39.875-1.53 1.125-1.53.5 0 1.031.374 1.047 1.53Zm0 0" style="stroke:none"/></symbol><clipPath id="a"><path d="M42 70h123v89.602H42Zm0 0"/></clipPath><clipPath id="b"><path d="M37 76h122v83.602H37Zm0 0"/></clipPath><clipPath id="c"><path d="M31 81h123v78.602H31Zm0 0"/></clipPath><clipPath id="d"><path d="M42 93h100v66.602H42Zm0 0"/></clipPath><clipPath id="e"><path d="M0 70h206.66v67H0Zm0 0"/></clipPath></defs><path d="M-17.432 10.914c0-15.656 12.688-28.348 28.344-28.348S39.26-4.742 39.26 10.914" style="fill:none;stroke-width:2.29141;stroke-linecap:butt;stroke-linejoin:miter;stroke:#fff;stroke-opacity:1;stroke-miterlimit:10" transform="matrix(1 0 0 -1 103.33 103.332)"/><path d="M-17.432 10.914c0-15.656 12.688-28.348 28.344-28.348S39.26-4.742 39.26 10.914" style="fill:none;stroke-width:1.49442;stroke-linecap:butt;stroke-linejoin:miter;stroke:#000;stroke-opacity:1;stroke-miterlimit:10" transform="matrix(1 0 0 -1 103.33 103.332)"/><path d="m112.234 120.695-7.445-4.398 2.625 4.062-3.164 3.657" style="stroke:none;fill-rule:nonzero;fill:#000;fill-opacity:1"/><path d="M-22.889 5.457c0-15.656 12.692-28.348 28.344-28.348 15.656 0 28.348 12.692 28.348 28.348" style="fill:none;stroke-width:2.29141;stroke-linecap:butt;stroke-linejoin:miter;stroke:#fff;stroke-opacity:1;stroke-miterlimit:10" transform="matrix(1 0 0 -1 103.33 103.332)"/><path d="M-22.889 5.457c0-15.656 12.692-28.348 28.344-28.348 15.656 0 28.348 12.692 28.348 28.348" style="fill:none;stroke-width:1.49442;stroke-linecap:butt;stroke-linejoin:miter;stroke:#000;stroke-opacity:1;stroke-miterlimit:10" transform="matrix(1 0 0 -1 103.33 103.332)"/><path d="m106.777 126.152-7.445-4.398 2.625 4.062-3.164 3.657" style="stroke:none;fill-rule:nonzero;fill:#000;fill-opacity:1"/><g clip-path="url(#a)"><path d="M-28.346 0c0-15.656 12.692-28.348 28.344-28.348 15.656 0 28.348 12.692 28.348 28.348" style="fill:none;stroke-width:2.29141;stroke-linecap:butt;stroke-linejoin:miter;stroke:#fff;stroke-opacity:1;stroke-miterlimit:10" transform="matrix(1 0 0 -1 103.33 103.332)"/></g><path d="M-28.346 0c0-15.656 12.692-28.348 28.344-28.348 15.656 0 28.348 12.692 28.348 28.348" style="fill:none;stroke-width:1.49442;stroke-linecap:butt;stroke-linejoin:miter;stroke:#000;stroke-opacity:1;stroke-miterlimit:10" transform="matrix(1 0 0 -1 103.33 103.332)"/><path d="m101.32 131.61-7.445-4.4 2.625 4.06-3.164 3.656" style="stroke:none;fill-rule:nonzero;fill:#000;fill-opacity:1"/><g clip-path="url(#b)"><path d="M-33.803-5.457c0-15.656 12.692-28.348 28.348-28.348 15.652 0 28.344 12.692 28.344 28.348" style="fill:none;stroke-width:2.29141;stroke-linecap:butt;stroke-linejoin:miter;stroke:#fff;stroke-opacity:1;stroke-miterlimit:10" transform="matrix(1 0 0 -1 103.33 103.332)"/></g><path d="M-33.803-5.457c0-15.656 12.692-28.348 28.348-28.348 15.652 0 28.344 12.692 28.344 28.348" style="fill:none;stroke-width:1.49442;stroke-linecap:butt;stroke-linejoin:miter;stroke:#000;stroke-opacity:1;stroke-miterlimit:10" transform="matrix(1 0 0 -1 103.33 103.332)"/><path d="m95.867 137.066-7.449-4.398 2.625 4.059-3.164 3.656" style="stroke:none;fill-rule:nonzero;fill:#000;fill-opacity:1"/><g clip-path="url(#c)"><path d="M-39.26-10.914c0-15.656 12.692-28.348 28.348-28.348 15.656 0 28.344 12.692 28.344 28.348" style="fill:none;stroke-width:2.29141;stroke-linecap:butt;stroke-linejoin:miter;stroke:#fff;stroke-opacity:1;stroke-miterlimit:10" transform="matrix(1 0 0 -1 103.33 103.332)"/></g><g clip-path="url(#d)"><path d="M-39.26-10.914c0-15.656 12.692-28.348 28.348-28.348 15.656 0 28.344 12.692 28.344 28.348" style="fill:none;stroke-width:1.49442;stroke-linecap:butt;stroke-linejoin:miter;stroke:#000;stroke-opacity:1;stroke-miterlimit:10" transform="matrix(1 0 0 -1 103.33 103.332)"/></g><path d="m90.41 142.523-7.45-4.398 2.626 4.059-3.164 3.656" style="stroke:none;fill-rule:nonzero;fill:#000;fill-opacity:1"/><path d="M5.18 130.617h141.734l54.566-54.57H59.746Zm0 0" style="stroke:none;fill-rule:nonzero;fill:#ffe6bf;fill-opacity:.75"/><g clip-path="url(#e)"><path d="M-98.15-27.285H43.584l54.566 54.57H-43.584Zm0 0" style="fill:none;stroke-width:.3985;stroke-linecap:butt;stroke-linejoin:miter;stroke:#000;stroke-opacity:.75;stroke-miterlimit:10" transform="matrix(1 0 0 -1 103.33 103.332)"/></g><path d="M10.912 39.262c-15.656 0-28.344-12.692-28.344-28.348" style="fill:none;stroke-width:2.29141;stroke-linecap:butt;stroke-linejoin:miter;stroke:#fff;stroke-opacity:1;stroke-miterlimit:10" transform="matrix(1 0 0 -1 103.33 103.332)"/><path d="M10.912 39.262c-15.656 0-28.344-12.692-28.344-28.348" style="fill:none;stroke-width:1.49442;stroke-linecap:butt;stroke-linejoin:miter;stroke:#000;stroke-opacity:1;stroke-miterlimit:10" transform="matrix(1 0 0 -1 103.33 103.332)"/><path d="m85.965 90.41 4.398-7.445-4.058 2.62-3.657-3.163" style="stroke:none;fill-rule:nonzero;fill:#000;fill-opacity:1"/><path d="M5.455 33.805c-15.652 0-28.344-12.692-28.344-28.348" style="fill:none;stroke-width:2.29141;stroke-linecap:butt;stroke-linejoin:miter;stroke:#fff;stroke-opacity:1;stroke-miterlimit:10" transform="matrix(1 0 0 -1 103.33 103.332)"/><path d="M5.455 33.805c-15.652 0-28.344-12.692-28.344-28.348" style="fill:none;stroke-width:1.49442;stroke-linecap:butt;stroke-linejoin:miter;stroke:#000;stroke-opacity:1;stroke-miterlimit:10" transform="matrix(1 0 0 -1 103.33 103.332)"/><path d="m80.512 95.867 4.398-7.445-4.062 2.621-3.657-3.164" style="stroke:none;fill-rule:nonzero;fill:#000;fill-opacity:1"/><path d="M-.002 28.348c-15.652 0-28.344-12.692-28.344-28.348" style="fill:none;stroke-width:2.29141;stroke-linecap:butt;stroke-linejoin:miter;stroke:#fff;stroke-opacity:1;stroke-miterlimit:10" transform="matrix(1 0 0 -1 103.33 103.332)"/><path d="M-.002 28.348c-15.652 0-28.344-12.692-28.344-28.348" style="fill:none;stroke-width:1.49442;stroke-linecap:butt;stroke-linejoin:miter;stroke:#000;stroke-opacity:1;stroke-miterlimit:10" transform="matrix(1 0 0 -1 103.33 103.332)"/><path d="m75.055 101.324 4.398-7.449-4.062 2.625-3.657-3.164" style="stroke:none;fill-rule:nonzero;fill:#000;fill-opacity:1"/><path d="M-5.455 22.89c-15.656 0-28.348-12.69-28.348-28.347" style="fill:none;stroke-width:2.29141;stroke-linecap:butt;stroke-linejoin:miter;stroke:#fff;stroke-opacity:1;stroke-miterlimit:10" transform="matrix(1 0 0 -1 103.33 103.332)"/><path d="M-5.455 22.89c-15.656 0-28.348-12.69-28.348-28.347" style="fill:none;stroke-width:1.49442;stroke-linecap:butt;stroke-linejoin:miter;stroke:#000;stroke-opacity:1;stroke-miterlimit:10" transform="matrix(1 0 0 -1 103.33 103.332)"/><path d="m69.598 106.781 4.398-7.449-4.062 2.625-3.657-3.164" style="stroke:none;fill-rule:nonzero;fill:#000;fill-opacity:1"/><path d="M-10.912 17.434c-15.656 0-28.348-12.692-28.348-28.348" style="fill:none;stroke-width:2.29141;stroke-linecap:butt;stroke-linejoin:miter;stroke:#fff;stroke-opacity:1;stroke-miterlimit:10" transform="matrix(1 0 0 -1 103.33 103.332)"/><path d="M-10.912 17.434c-15.656 0-28.348-12.692-28.348-28.348" style="fill:none;stroke-width:1.49442;stroke-linecap:butt;stroke-linejoin:miter;stroke:#000;stroke-opacity:1;stroke-miterlimit:10" transform="matrix(1 0 0 -1 103.33 103.332)"/><path d="m64.14 112.238 4.4-7.449-4.063 2.625-3.657-3.164" style="stroke:none;fill-rule:nonzero;fill:#000;fill-opacity:1"/><path d="M-27.283 43.582v-70.867l54.566 54.57v70.867Zm0 0" style="fill-rule:nonzero;fill:#ffe6bf;fill-opacity:.75;stroke-width:.3985;stroke-linecap:butt;stroke-linejoin:miter;stroke:#000;stroke-opacity:.75;stroke-miterlimit:10" transform="matrix(1 0 0 -1 103.33 103.332)"/><path d="M39.26 10.914c0 15.656-12.692 28.348-28.348 28.348" style="fill:none;stroke-width:2.29141;stroke-linecap:butt;stroke-linejoin:miter;stroke:#fff;stroke-opacity:1;stroke-miterlimit:10" transform="matrix(1 0 0 -1 103.33 103.332)"/><path d="M39.26 10.914c0 15.656-12.692 28.348-28.348 28.348" style="fill:none;stroke-width:1.49442;stroke-linecap:butt;stroke-linejoin:miter;stroke:#000;stroke-opacity:1;stroke-miterlimit:10" transform="matrix(1 0 0 -1 103.33 103.332)"/><path d="m116.25 64.14 7.45 4.4-2.626-4.06 3.164-3.656" style="stroke:none;fill-rule:nonzero;fill:#000;fill-opacity:1"/><path d="M33.803 5.457c0 15.656-12.692 28.348-28.348 28.348" style="fill:none;stroke-width:2.29141;stroke-linecap:butt;stroke-linejoin:miter;stroke:#fff;stroke-opacity:1;stroke-miterlimit:10" transform="matrix(1 0 0 -1 103.33 103.332)"/><path d="M33.803 5.457c0 15.656-12.692 28.348-28.348 28.348" style="fill:none;stroke-width:1.49442;stroke-linecap:butt;stroke-linejoin:miter;stroke:#000;stroke-opacity:1;stroke-miterlimit:10" transform="matrix(1 0 0 -1 103.33 103.332)"/><path d="m110.793 69.598 7.45 4.398-2.626-4.058 3.164-3.657" style="stroke:none;fill-rule:nonzero;fill:#000;fill-opacity:1"/><path d="M-.002 0v70.867h70.867V0Zm0 0" style="fill-rule:nonzero;fill:#ffe6bf;fill-opacity:.75;stroke-width:.3985;stroke-linecap:butt;stroke-linejoin:miter;stroke:#000;stroke-opacity:.75;stroke-miterlimit:10" transform="matrix(1 0 0 -1 103.33 103.332)"/><path d="M28.346 0c0 15.656-12.692 28.348-28.348 28.348" style="fill:none;stroke-width:2.29141;stroke-linecap:butt;stroke-linejoin:miter;stroke:#fff;stroke-opacity:1;stroke-miterlimit:10" transform="matrix(1 0 0 -1 103.33 103.332)"/><path d="M28.346 0c0 15.656-12.692 28.348-28.348 28.348" style="fill:none;stroke-width:1.49442;stroke-linecap:butt;stroke-linejoin:miter;stroke:#000;stroke-opacity:1;stroke-miterlimit:10" transform="matrix(1 0 0 -1 103.33 103.332)"/><path d="m105.34 75.055 7.445 4.398-2.625-4.058 3.164-3.657" style="stroke:none;fill-rule:nonzero;fill:#000;fill-opacity:1"/><path d="M22.889-5.457c0 15.656-12.692 28.348-28.344 28.348" style="fill:none;stroke-width:2.29141;stroke-linecap:butt;stroke-linejoin:miter;stroke:#fff;stroke-opacity:1;stroke-miterlimit:10" transform="matrix(1 0 0 -1 103.33 103.332)"/><path d="M22.889-5.457c0 15.656-12.692 28.348-28.344 28.348" style="fill:none;stroke-width:1.49442;stroke-linecap:butt;stroke-linejoin:miter;stroke:#000;stroke-opacity:1;stroke-miterlimit:10" transform="matrix(1 0 0 -1 103.33 103.332)"/><path d="m99.883 80.512 7.445 4.398-2.625-4.062 3.164-3.657" style="stroke:none;fill-rule:nonzero;fill:#000;fill-opacity:1"/><path d="M17.432-10.914c0 15.656-12.688 28.348-28.344 28.348" style="fill:none;stroke-width:2.29141;stroke-linecap:butt;stroke-linejoin:miter;stroke:#fff;stroke-opacity:1;stroke-miterlimit:10" transform="matrix(1 0 0 -1 103.33 103.332)"/><path d="M17.432-10.914c0 15.656-12.688 28.348-28.344 28.348" style="fill:none;stroke-width:1.49442;stroke-linecap:butt;stroke-linejoin:miter;stroke:#000;stroke-opacity:1;stroke-miterlimit:10" transform="matrix(1 0 0 -1 103.33 103.332)"/><path d="m94.426 85.969 7.445 4.398-2.625-4.062 3.164-3.657" style="stroke:none;fill-rule:nonzero;fill:#000;fill-opacity:1"/><g style="fill:#000;fill-opacity:1"><use xlink:href="#f" x="26.951" y="12.855"/><use xlink:href="#g" x="33.222" y="12.855"/><use xlink:href="#h" x="35.782" y="12.855"/><use xlink:href="#i" x="40.39" y="12.855"/></g><g style="fill:#000;fill-opacity:1"><use xlink:href="#j" x="48.576" y="12.855"/><use xlink:href="#k" x="53.696" y="12.855"/><use xlink:href="#h" x="56.256" y="12.855"/><use xlink:href="#i" x="60.864" y="12.855"/></g><g style="fill:#000;fill-opacity:1"><use xlink:href="#l" x="65.741" y="12.855"/><use xlink:href="#m" x="69.325" y="12.855"/><use xlink:href="#n" x="71.885" y="12.855"/><use xlink:href="#o" x="74.957" y="12.855"/><use xlink:href="#p" x="78.592" y="12.855"/><use xlink:href="#q" x="83.455" y="12.855"/><use xlink:href="#r" x="91.134" y="12.855"/><use xlink:href="#l" x="95.234" y="12.855"/><use xlink:href="#s" x="98.818" y="12.855"/><use xlink:href="#m" x="102.422" y="12.855"/><use xlink:href="#t" x="104.982" y="12.855"/></g><path d="M21.826 92.695H7.736" style="fill:none;stroke-width:.19925;stroke-linecap:butt;stroke-linejoin:miter;stroke:gray;stroke-opacity:1;stroke-miterlimit:10" transform="matrix(1 0 0 -1 103.33 103.332)"/><g style="fill:#000;fill-opacity:1"><use xlink:href="#f" x="131.67" y="14.638"/><use xlink:href="#g" x="137.941" y="14.638"/><use xlink:href="#h" x="140.501" y="14.638"/><use xlink:href="#i" x="145.109" y="14.638"/></g><g style="fill:#000;fill-opacity:1"><use xlink:href="#j" x="153.295" y="14.638"/><use xlink:href="#t" x="158.415" y="14.638"/></g><g style="fill:#000;fill-opacity:1"><use xlink:href="#o" x="165.59" y="14.638"/><use xlink:href="#p" x="169.225" y="14.638"/><use xlink:href="#q" x="174.088" y="14.638"/><use xlink:href="#r" x="181.767" y="14.638"/><use xlink:href="#l" x="185.867" y="14.638"/><use xlink:href="#s" x="189.45" y="14.638"/><use xlink:href="#m" x="193.055" y="14.638"/><use xlink:href="#t" x="195.615" y="14.638"/></g><path d="M62.361 70.867v14.09" style="fill:none;stroke-width:.19925;stroke-linecap:butt;stroke-linejoin:miter;stroke:gray;stroke-opacity:1;stroke-miterlimit:10" transform="matrix(1 0 0 -1 103.33 103.332)"/><g style="fill:#000;fill-opacity:1"><use xlink:href="#f" x="91.679" y="152.876"/><use xlink:href="#g" x="97.95" y="152.876"/><use xlink:href="#h" x="100.51" y="152.876"/><use xlink:href="#i" x="105.118" y="152.876"/></g><g style="fill:#000;fill-opacity:1"><use xlink:href="#j" x="113.304" y="152.876"/><use xlink:href="#k" x="118.424" y="152.876"/><use xlink:href="#h" x="120.984" y="152.876"/><use xlink:href="#i" x="125.592" y="152.876"/></g><g style="fill:#000;fill-opacity:1"><use xlink:href="#l" x="130.469" y="152.876"/><use xlink:href="#m" x="134.053" y="152.876"/><use xlink:href="#n" x="136.613" y="152.876"/><use xlink:href="#o" x="139.685" y="152.876"/><use xlink:href="#p" x="143.32" y="152.876"/><use xlink:href="#q" x="148.183" y="152.876"/><use xlink:href="#r" x="155.862" y="152.876"/><use xlink:href="#l" x="159.962" y="152.876"/><use xlink:href="#s" x="163.546" y="152.876"/><use xlink:href="#m" x="167.15" y="152.876"/><use xlink:href="#t" x="169.71" y="152.876"/></g><path d="M29.408-27.285v-14.09" style="fill:none;stroke-width:.19925;stroke-linecap:butt;stroke-linejoin:miter;stroke:gray;stroke-opacity:1;stroke-miterlimit:10" transform="matrix(1 0 0 -1 103.33 103.332)"/></svg>