<svg xmlns="http://www.w3.org/2000/svg" xmlns:xlink="http://www.w3.org/1999/xlink" width="267.773" height="198.6" viewBox="0 0 200.83 148.95"><defs><symbol id="a" overflow="visible"><path d="M7.188-2.516c.187 0 .375 0 .375-.203 0-.219-.188-.219-.375-.219H1.28c-.187 0-.375 0-.375.22 0 .202.188.202.375.202Zm0 0" style="stroke:none"/></symbol><symbol id="b" overflow="visible"><path d="M9.094-2.516c-.594.47-.89.907-.985 1.047-.484.766-.578 1.453-.578 1.453 0 .141.14.141.219.141.188 0 .203-.031.25-.219.25-1.078.89-1.984 2.125-2.484.125-.047.156-.078.156-.14 0-.079-.062-.11-.078-.126-.484-.187-1.812-.734-2.219-2.562-.03-.14-.046-.172-.234-.172-.078 0-.219 0-.219.14 0 .016.11.704.563 1.438.219.328.531.703 1 1.063H1c-.203 0-.406 0-.406.218 0 .203.203.203.406.203Zm0 0" style="stroke:none"/></symbol><symbol id="f" overflow="visible"><path d="M3.875-6.297c-.078-.187-.14-.219-.25-.219-.14 0-.172.063-.234.22L.67-.204C.61-.047.595-.031.595.016c0 .125.11.218.219.218.078 0 .171-.015.25-.218l2.562-5.782L6.188.016c.109.218.218.218.265.218.11 0 .203-.093.203-.218 0-.016 0-.032-.062-.172Zm0 0" style="stroke:none"/></symbol><symbol id="i" overflow="visible"><path d="M4.844-2.719a2.137 2.137 0 0 0-2.125-2.125A2.137 2.137 0 0 0 .594-2.719c0 1.14.953 2.11 2.125 2.11 1.156 0 2.125-.954 2.125-2.11Zm0 0" style="stroke:none"/></symbol><symbol id="c" overflow="visible"><path d="M1.75-.844c-.11.422-.14.5-1 .5-.188 0-.297 0-.297.219C.453 0 .563 0 .75 0h3.89c1.735 0 3.016-1.281 3.016-2.36 0-.78-.625-1.421-1.687-1.53C7.094-4.095 8.25-4.907 8.25-5.938c0-.813-.719-1.516-2.031-1.516H2.547c-.203 0-.313 0-.313.219 0 .125.094.125.313.125.015 0 .219 0 .406.015.203.032.297.032.297.172 0 .047-.016.078-.047.219Zm1.64-3.14.672-2.72c.11-.374.125-.405.594-.405h1.407c.968 0 1.187.64 1.187 1.125 0 .953-.938 2-2.266 2Zm-.484 3.64h-.25c-.11-.015-.14-.031-.14-.11 0-.03 0-.062.062-.25l.75-3.046h2.063c1.046 0 1.25.813 1.25 1.281 0 1.078-.97 2.125-2.25 2.125Zm0 0" style="stroke:none"/></symbol><symbol id="e" overflow="visible"><path d="M3.813-.61c.124.454.5.735.968.735.39 0 .64-.25.813-.61.187-.39.328-1.046.328-1.078 0-.109-.094-.109-.125-.109-.11 0-.125.047-.156.203-.157.61-.36 1.344-.813 1.344-.234 0-.344-.14-.344-.5 0-.234.125-.75.22-1.125L5-2.938c.031-.156.14-.578.188-.734.062-.25.171-.672.171-.734 0-.203-.156-.297-.328-.297-.047 0-.328.016-.422.39-.203.797-.687 2.704-.812 3.282-.016.031-.453.906-1.25.906-.563 0-.672-.484-.672-.89 0-.61.313-1.47.594-2.22.125-.328.187-.484.187-.687 0-.5-.36-.906-.906-.906C.719-4.828.312-3.234.312-3.141c0 .11.11.11.141.11.11 0 .11-.016.172-.203.266-.938.688-1.344 1.094-1.344.11 0 .281.016.281.36 0 .265-.125.577-.188.734-.406 1.078-.64 1.765-.64 2.296 0 1.032.766 1.313 1.344 1.313.718 0 1.109-.5 1.296-.734Zm0 0" style="stroke:none"/></symbol><symbol id="g" overflow="visible"><path d="M5.11-4.063c0-.578-.282-.765-.485-.765-.266 0-.531.297-.531.531 0 .14.047.203.172.328.234.219.375.5.375.89 0 .454-.672 2.954-1.954 2.954-.546 0-.796-.375-.796-.938 0-.609.296-1.406.625-2.312.078-.188.14-.344.14-.547 0-.5-.36-.906-.906-.906C.734-4.828.312-3.234.312-3.141c0 .11.11.11.141.11.11 0 .11-.016.172-.203.313-1.094.781-1.344 1.094-1.344.093 0 .281 0 .281.344 0 .28-.11.562-.188.765-.484 1.266-.625 1.766-.625 2.235 0 1.187.97 1.359 1.47 1.359 1.827 0 2.452-3.61 2.452-4.188Zm0 0" style="stroke:none"/></symbol><symbol id="d" overflow="visible"><path d="M7.5-3.563c.156 0 .36 0 .36-.218C7.86-4 7.655-4 7.5-4H.969c-.156 0-.36 0-.36.219s.204.219.375.219Zm0 2.11c.156 0 .36 0 .36-.219s-.204-.219-.36-.219H.984c-.171 0-.375 0-.375.22 0 .218.204.218.36.218Zm0 0" style="stroke:none"/></symbol><symbol id="j" overflow="visible"><path d="M2.11-3.781c.046-.094.078-.156.078-.235 0-.265-.25-.437-.47-.437-.312 0-.405.281-.437.39L.266-.624C.234-.531.234-.515.234-.5c0 .063.047.078.125.11.157.062.172.062.188.062.015 0 .062 0 .125-.14Zm0 0" style="stroke:none"/></symbol><symbol id="k" overflow="visible"><path d="M5.75-4.453c0-.89-.922-1.672-2.172-1.672H.36v.281h.204c.687 0 .718.094.718.422v4.719c0 .328-.031.422-.718.422H.359V0c.407-.031.907-.031 1.313-.031.422 0 .922 0 1.328.031v-.281h-.203c-.703 0-.719-.094-.719-.422v-2.11h1.5c1.25 0 2.172-.78 2.172-1.64Zm-.922 0c0 .406 0 1.39-1.484 1.39H2.047v-2.421c0-.297.031-.36.453-.36h.86c1.468 0 1.468.985 1.468 1.39Zm0 0" style="stroke:none"/></symbol><symbol id="l" overflow="visible"><path d="M2.344 0v-.281c-.594 0-.688 0-.688-.406V-6.22l-1.328.094v.281c.61 0 .688.063.688.5v4.657c0 .406-.094.406-.688.406V0c.422-.016.594-.031 1-.031.422 0 .578.015 1.016.031Zm0 0" style="stroke:none"/></symbol><symbol id="m" overflow="visible"><path d="M4.453-.797v-.5h-.25v.484c0 .11 0 .547-.312.547-.329 0-.329-.421-.329-.562v-1.578c0-.516 0-.813-.406-1.188-.328-.297-.765-.422-1.203-.422-.766 0-1.39.375-1.39.954 0 .265.187.421.421.421.25 0 .422-.171.422-.406 0-.39-.406-.437-.406-.437.234-.235.672-.313.922-.313.469 0 .969.344.969 1.14v.282c-.485.031-1.157.063-1.75.36-.641.312-.844.78-.844 1.14 0 .734.875.969 1.469.969a1.31 1.31 0 0 0 1.218-.735c.032.375.297.688.688.688.219 0 .781-.125.781-.844Zm-1.562-.469c0 .875-.672 1.141-1.063 1.141-.422 0-.812-.313-.812-.75 0-.594.515-1.219 1.875-1.281Zm0 0" style="stroke:none"/></symbol><symbol id="n" overflow="visible"><path d="M4.906 0v-.281c-.453 0-.687 0-.687-.281v-1.72c0-.734 0-1-.25-1.312-.203-.25-.547-.375-1-.375-.828 0-1.219.625-1.344.875h-.016v-.875l-1.296.11v.265c.609 0 .687.063.687.516v2.39C1-.28.906-.28.312-.28V0c.422-.016.594-.031 1.032-.031.422 0 .547.015 1.015.031v-.281c-.593 0-.687 0-.687-.406v-1.641c0-.953.672-1.406 1.234-1.406.531 0 .64.437.64.968v2.079c0 .406-.093.406-.687.406V0c.422-.016.594-.031 1.032-.031.421 0 .546.015 1.015.031Zm0 0" style="stroke:none"/></symbol><symbol id="o" overflow="visible"><path d="M4.844 0v-.281c-.61 0-.688-.063-.688-.5V-6.22l-1.328.094v.281c.61 0 .688.063.688.5v1.907c-.047-.047-.454-.532-1.141-.532-1.11 0-2.063.89-2.063 2.047 0 1.11.891 2.016 1.954 2.016A1.59 1.59 0 0 0 3.484-.47v.563Zm-1.36-1.078c0 .156 0 .187-.125.375a1.3 1.3 0 0 1-1.046.578c-.391 0-.75-.219-.985-.594-.234-.39-.25-.906-.25-1.203 0-.422.047-.89.281-1.25a1.262 1.262 0 0 1 1.047-.562c.375 0 .735.187.969.53.11.142.11.142.11.313Zm0 0" style="stroke:none"/></symbol><symbol id="p" overflow="visible"><path d="M3.828-1.063a.123.123 0 0 0-.125-.125c-.094 0-.11.063-.125.11a1.273 1.273 0 0 1-1.234.922c-.438 0-.797-.235-1-.547-.297-.438-.313-.969-.313-1.344h2.563c.187 0 .234 0 .234-.203 0-.922-.5-1.766-1.656-1.766-1.063 0-1.906.938-1.906 2.047 0 1.172.937 2.063 2.03 2.063 1.095 0 1.532-.953 1.532-1.157Zm-.61-1.203H1.048c.078-1.39.875-1.53 1.125-1.53.5 0 1.031.374 1.047 1.53Zm0 0" style="stroke:none"/></symbol><symbol id="q" overflow="visible"><path d="M3.313-1.14c0-.407-.172-.657-.376-.86-.296-.297-.624-.36-1.28-.484-.235-.047-.891-.157-.891-.672 0-.281.203-.672 1.015-.672.969 0 1.032.75 1.047.969.016.109.016.171.125.171.125 0 .125-.062.125-.234v-.86c0-.155 0-.234-.094-.234-.046 0-.062 0-.187.11-.016.015-.094.094-.156.14-.266-.203-.547-.25-.86-.25-1.187 0-1.468.657-1.468 1.11 0 .281.124.515.328.719.296.28.64.343 1.093.421.47.094.61.11.813.266.094.078.312.25.312.578 0 .797-.906.797-1.03.797-.907 0-1.141-.766-1.25-1.25-.032-.094-.048-.14-.141-.14-.126 0-.126.077-.126.234v1.14c0 .157 0 .235.094.235.063 0 .063 0 .235-.172a1.18 1.18 0 0 1 .171-.219c.375.375.797.39 1.016.39 1.11 0 1.484-.64 1.484-1.234Zm0 0" style="stroke:none"/></symbol><symbol id="r" overflow="visible"><path d="M4.656-3.594v-.265c-.281.015-.562.015-.672.015-.25 0-.53 0-.78-.015v.265c.405.031.405.344.405.39a.589.589 0 0 1-.062.25L2.64-.811l-1.016-2.36c-.047-.125-.047-.187-.047-.187 0-.235.313-.235.5-.235v-.265l-1 .015c-.031 0-.547 0-.89-.015v.265c.406 0 .578.031.687.266L2.281 0l-.219.531C1.86 1 1.61 1.61 1.016 1.61a.661.661 0 0 1-.391-.125c.063-.015.313-.078.313-.39A.36.36 0 0 0 .563.719c-.22 0-.391.14-.391.39 0 .391.39.735.844.735.593 0 .968-.532 1.187-1.016l1.625-3.797c.094-.234.266-.594.828-.625Zm0 0" style="stroke:none"/></symbol><symbol id="s" overflow="visible"><path d="M7.469 0v-.281c-.453 0-.672 0-.688-.281v-1.72c0-.78 0-1.03-.297-1.359-.187-.218-.546-.328-.953-.328-.656 0-1.093.375-1.343.86-.11-.532-.47-.86-1.22-.86-.718 0-1.155.469-1.343.89h-.016v-.89l-1.296.11v.265c.609 0 .687.063.687.516v2.39C1-.28.906-.28.312-.28V0c.422-.016.594-.031 1.032-.031.422 0 .547.015 1.015.031v-.281c-.593 0-.687 0-.687-.406v-1.641c0-.969.703-1.406 1.234-1.406.5 0 .656.343.656.968v2.079c0 .406-.093.406-.687.406V0c.422-.016.594-.031 1.016-.031.437 0 .546.015 1.03.031v-.281c-.593 0-.702 0-.702-.406v-1.641c0-.969.703-1.406 1.25-1.406.484 0 .64.343.64.968v2.079c0 .406-.093.406-.687.406V0c.422-.016.594-.031 1.031-.031.422 0 .547.015 1.016.031Zm0 0" style="stroke:none"/></symbol><symbol id="t" overflow="visible"><path d="M3.828-1.063a.123.123 0 0 0-.125-.125c-.094 0-.11.063-.125.11a1.273 1.273 0 0 1-1.234.922c-.438 0-.797-.235-1-.547-.297-.438-.313-.969-.313-1.344h2.563c.187 0 .234 0 .234-.203 0-.922-.5-1.766-1.656-1.766-1.063 0-1.906.938-1.906 2.047 0 1.172.937 2.063 2.03 2.063 1.095 0 1.532-.953 1.532-1.157Zm-.61-1.203H1.048c.078-1.39.875-1.53 1.125-1.53.5 0 1.031.374 1.047 1.53Zm-.03-3.64c0-.203-.172-.36-.329-.36-.156 0-.203.063-.28.172L1.483-4.75l.172.188L3-5.61c.125-.094.188-.172.188-.297Zm0 0" style="stroke:none"/></symbol><symbol id="u" overflow="visible"><path d="M3.063-1.11v-.515h-.25v.484c0 .672-.282.985-.594.985-.61 0-.61-.781-.61-.953v-2.485h1.313v-.265H1.609v-1.657h-.25c0 .75-.312 1.672-1.187 1.704v.218h.781v2.485c0 1 .719 1.203 1.203 1.203.594 0 .906-.563.906-1.203Zm0 0" style="stroke:none"/></symbol><symbol id="v" overflow="visible"><path d="M3.344-3.406c0-.281-.266-.563-.672-.563-.531 0-.906.375-1.125.938v-.938l-1.281.11v.265c.609 0 .687.063.687.516v2.39C.953-.28.86-.28.266-.28V0C.75-.016.859-.031 1.312-.031L2.454 0v-.281h-.172c-.656 0-.687-.094-.687-.422v-1.344c0-.375.093-1.687 1.125-1.687-.016.015-.156.125-.156.328a.39.39 0 1 0 .78 0Zm0 0" style="stroke:none"/></symbol><symbol id="w" overflow="visible"><path d="M2.266 0v-.281c-.579 0-.61-.047-.61-.39V-3.97l-1.297.11v.265c.579 0 .657.063.657.5v2.406c0 .407-.094.407-.688.407V0c.39-.016.594-.031.984-.031.141 0 .516 0 .954.031Zm-.5-5.406a.487.487 0 0 0-.485-.485.487.487 0 0 0-.484.485c0 .265.219.484.484.484a.487.487 0 0 0 .485-.484Zm0 0" style="stroke:none"/></symbol><clipPath id="h"><path d="M121 24h79.828v66H121Zm0 0"/></clipPath></defs><use xlink:href="#a" x="57.273" y="8.98" style="fill:#000;fill-opacity:1"/><use xlink:href="#b" x="57.282" y="8.98" style="fill:#000;fill-opacity:1"/><use xlink:href="#c" x="58.317" y="16.434" style="fill:#000;fill-opacity:1"/><use xlink:href="#d" x="71.213" y="16.434" style="fill:#000;fill-opacity:1"/><use xlink:href="#a" x="82.728" y="11.737" style="fill:#000;fill-opacity:1"/><use xlink:href="#b" x="82.737" y="11.737" style="fill:#000;fill-opacity:1"/><use xlink:href="#e" x="85.06" y="16.434" style="fill:#000;fill-opacity:1"/><use xlink:href="#f" x="96.061" y="16.434" style="fill:#000;fill-opacity:1"/><use xlink:href="#a" x="105.758" y="11.737" style="fill:#000;fill-opacity:1"/><use xlink:href="#b" x="105.767" y="11.737" style="fill:#000;fill-opacity:1"/><use xlink:href="#g" x="108.373" y="16.434" style="fill:#000;fill-opacity:1"/><path d="M56.693 28.348 75.537-4.29" style="fill:none;stroke-width:.3985;stroke-linecap:butt;stroke-linejoin:miter;stroke:#000;stroke-opacity:1;stroke-miterlimit:10" transform="matrix(1 0 0 -1 86.971 95.746)"/><path d="m163.508 101.77-.215-3.57-.785 1.835-1.985-.238" style="stroke:none;fill-rule:nonzero;fill:#000;fill-opacity:1"/><use xlink:href="#a" x="158.053" y="107.763" style="fill:#000;fill-opacity:1"/><use xlink:href="#b" x="158.062" y="107.763" style="fill:#000;fill-opacity:1"/><use xlink:href="#g" x="160.668" y="112.46" style="fill:#000;fill-opacity:1"/><path d="M56.693 28.348 49.62 8.91" style="fill:none;stroke-width:.3985;stroke-linecap:butt;stroke-linejoin:miter;stroke:#000;stroke-opacity:1;stroke-miterlimit:10" transform="matrix(1 0 0 -1 86.971 95.746)"/><path d="m135.91 88.71 2.59-2.456-1.91.582-1.09-1.672" style="stroke:none;fill-rule:nonzero;fill:#000;fill-opacity:1"/><use xlink:href="#a" x="130.454" y="94.704" style="fill:#000;fill-opacity:1"/><use xlink:href="#b" x="130.463" y="94.704" style="fill:#000;fill-opacity:1"/><use xlink:href="#e" x="132.786" y="99.401" style="fill:#000;fill-opacity:1"/><path d="M70.869 3.797c4.066 2.347 1.015 15.242-6.809 28.8-7.828 13.56-17.472 22.649-21.539 20.297-4.07-2.347-1.02-15.242 6.809-28.8C57.158 10.535 66.799 1.449 70.869 3.797Zm0 0" style="fill:none;stroke-width:.3985;stroke-linecap:butt;stroke-linejoin:miter;stroke:#000;stroke-opacity:1;stroke-miterlimit:10" transform="matrix(1 0 0 -1 86.971 95.746)"/><path d="M42.521 52.894c-4.07-2.347-1.02-15.242 6.809-28.8C57.158 10.535 66.799 1.449 70.869 3.797" style="fill:none;stroke-width:.79701;stroke-linecap:butt;stroke-linejoin:miter;stroke:#000;stroke-opacity:1;stroke-miterlimit:10" transform="matrix(1 0 0 -1 86.971 95.746)"/><path d="m134.965 69.262-.145-4.649-1.09 2.36-2.57-.383" style="stroke:none;fill-rule:nonzero;fill:#000;fill-opacity:1"/><g clip-path="url(#h)"><path d="m56.693 28.348 35.988 20.777" style="fill:none;stroke-width:1.59404;stroke-linecap:round;stroke-linejoin:miter;stroke:#369;stroke-opacity:1;stroke-miterlimit:10" transform="matrix(1 0 0 -1 86.971 95.746)"/></g><path d="m182.941 44.723-6.78.406 3.491 1.492-.453 3.77" style="stroke:none;fill-rule:nonzero;fill:#369;fill-opacity:1"/><use xlink:href="#i" x="140.937" y="69.823" style="fill:#369;fill-opacity:1"/><use xlink:href="#a" x="184.936" y="42.996" style="fill:#369;fill-opacity:1"/><use xlink:href="#b" x="184.945" y="42.996" style="fill:#369;fill-opacity:1"/><use xlink:href="#c" x="185.98" y="50.45" style="fill:#369;fill-opacity:1"/><path d="M-56.694 28.348-75.537-4.29" style="fill:none;stroke-width:.3985;stroke-linecap:butt;stroke-linejoin:miter;stroke:#000;stroke-opacity:1;stroke-miterlimit:10" transform="matrix(1 0 0 -1 86.971 95.746)"/><path d="m10.434 101.77 2.984-1.973-1.984.238-.786-1.836" style="stroke:none;fill-rule:nonzero;fill:#000;fill-opacity:1"/><use xlink:href="#a" x="4.98" y="107.762" style="fill:#000;fill-opacity:1"/><use xlink:href="#b" x="4.989" y="107.762" style="fill:#000;fill-opacity:1"/><use xlink:href="#g" x="6.198" y="116.149" style="fill:#000;fill-opacity:1"/><use xlink:href="#j" x="11.877" y="112.19" style="fill:#000;fill-opacity:1"/><path d="m-56.694 28.348 35.989-20.782" style="fill:none;stroke-width:1.59404;stroke-linecap:round;stroke-linejoin:miter;stroke:#369;stroke-opacity:1;stroke-miterlimit:10" transform="matrix(1 0 0 -1 86.971 95.746)"/><path d="m69.555 90.078-3.743-5.672.454 3.774-3.493 1.488" style="stroke:none;fill-rule:nonzero;fill:#369;fill-opacity:1"/><use xlink:href="#i" x="27.55" y="69.823" style="fill:#369;fill-opacity:1"/><use xlink:href="#a" x="71.548" y="87.884" style="fill:#369;fill-opacity:1"/><use xlink:href="#b" x="72.266" y="87.884" style="fill:#369;fill-opacity:1"/><use xlink:href="#c" x="71.548" y="96.271" style="fill:#369;fill-opacity:1"/><use xlink:href="#j" x="80.37" y="92.312" style="fill:#369;fill-opacity:1"/><path d="M-42.522 52.894c-4.066 2.352-13.707-6.738-21.535-20.296-7.828-13.559-10.879-26.454-6.809-28.801 4.067-2.348 13.708 6.738 21.536 20.297 7.828 13.558 10.879 26.453 6.808 28.8Zm0 0" style="fill:none;stroke-width:.3985;stroke-linecap:butt;stroke-linejoin:miter;stroke:#000;stroke-opacity:1;stroke-miterlimit:10" transform="matrix(1 0 0 -1 86.971 95.746)"/><path d="M-70.866 3.797c4.067-2.348 13.708 6.738 21.536 20.297 7.828 13.558 10.879 26.453 6.808 28.8" style="fill:none;stroke-width:1.39478;stroke-linecap:butt;stroke-linejoin:miter;stroke:#fff;stroke-opacity:1;stroke-miterlimit:10" transform="matrix(1 0 0 -1 86.971 95.746)"/><path d="M-70.866 3.797c4.067-2.348 13.708 6.738 21.536 20.297 7.828 13.558 10.879 26.453 6.808 28.8" style="fill:none;stroke-width:.59776;stroke-linecap:butt;stroke-linejoin:miter;stroke:#000;stroke-opacity:1;stroke-miterlimit:10" transform="matrix(1 0 0 -1 86.971 95.746)"/><path d="m42.727 61.41-.446-6.23 1.782 3.004 3.382-.868" style="stroke:none;fill-rule:nonzero;fill:#000;fill-opacity:1"/><path d="m-56.694 28.348 7.075-19.438" style="fill:none;stroke-width:.3985;stroke-linecap:butt;stroke-linejoin:miter;stroke:#000;stroke-opacity:1;stroke-miterlimit:10" transform="matrix(1 0 0 -1 86.971 95.746)"/><path d="m38.035 88.71.406-3.546-1.09 1.672-1.91-.582" style="stroke:none;fill-rule:nonzero;fill:#000;fill-opacity:1"/><use xlink:href="#a" x="32.579" y="94.704" style="fill:#000;fill-opacity:1"/><use xlink:href="#b" x="32.588" y="94.704" style="fill:#000;fill-opacity:1"/><use xlink:href="#e" x="33.514" y="103.091" style="fill:#000;fill-opacity:1"/><use xlink:href="#j" x="39.759" y="99.132" style="fill:#000;fill-opacity:1"/><g style="fill:#000;fill-opacity:1"><use xlink:href="#k" x="101.762" y="142.226"/><use xlink:href="#l" x="108.033" y="142.226"/><use xlink:href="#m" x="110.593" y="142.226"/><use xlink:href="#n" x="115.201" y="142.226"/></g><g style="fill:#000;fill-opacity:1"><use xlink:href="#o" x="123.387" y="142.226"/><use xlink:href="#p" x="128.507" y="142.226"/></g><g style="fill:#000;fill-opacity:1"><use xlink:href="#q" x="135.682" y="142.226"/><use xlink:href="#r" x="139.317" y="142.226"/><use xlink:href="#s" x="144.18" y="142.226"/><use xlink:href="#t" x="151.859" y="142.226"/><use xlink:href="#u" x="155.959" y="142.226"/><use xlink:href="#v" x="159.542" y="142.226"/><use xlink:href="#w" x="163.147" y="142.226"/><use xlink:href="#p" x="165.707" y="142.226"/></g><path d="m2.834-28.348 28.785-9.96" style="fill:none;stroke-width:.19925;stroke-linecap:butt;stroke-linejoin:miter;stroke:gray;stroke-opacity:1;stroke-miterlimit:10" transform="matrix(1 0 0 -1 86.971 95.746)"/><path d="M.002-42.52V70.867" style="fill:none;stroke-width:.3985;stroke-linecap:butt;stroke-linejoin:miter;stroke:#000;stroke-opacity:1;stroke-dasharray:2.98883,2.98883;stroke-miterlimit:10" transform="matrix(1 0 0 -1 86.971 95.746)"/><path d="M.002-14.172H24.56" style="fill:none;stroke-width:1.59404;stroke-linecap:round;stroke-linejoin:miter;stroke:#369;stroke-opacity:1;stroke-miterlimit:10" transform="matrix(1 0 0 -1 86.971 95.746)"/><path d="m115.316 109.918-6.054-3.027 2.27 3.027-2.27 3.031" style="stroke:none;fill-rule:nonzero;fill:#369;fill-opacity:1"/></svg>